<?xml version="1.0" encoding="UTF-8"?>
<!DOCTYPE svg PUBLIC "-//W3C//DTD SVG 1.1//EN" "http://www.w3.org/Graphics/SVG/1.1/DTD/svg11.dtd">
<svg version="1.1" xmlns="http://www.w3.org/2000/svg" xmlns:xlink="http://www.w3.org/1999/xlink" x="0" y="0" width="283.465" height="226.772" viewBox="0, 0, 283.465, 226.772">
  <g id="Background">
    <rect x="0" y="0" width="283.465" height="226.772" fill="#FFFFFF"/>
    <g stroke-width="1px">
      <line x1="12" y1="0" x2="12" y2="226.772" stroke="#AAAAAA" stroke-opacity="0.25"/>
      <line x1="24" y1="0" x2="24" y2="226.772" stroke="#AAAAAA" stroke-opacity="0.25"/>
      <line x1="36" y1="0" x2="36" y2="226.772" stroke="#AAAAAA" stroke-opacity="0.25"/>
      <line x1="48" y1="0" x2="48" y2="226.772" stroke="#AAAAAA" stroke-opacity="0.25"/>
      <line x1="60" y1="0" x2="60" y2="226.772" stroke="#AAAAAA" stroke-opacity="0.25"/>
      <line x1="72" y1="0" x2="72" y2="226.772" stroke="#AAAAAA" stroke-opacity="0.5"/>
      <line x1="84" y1="0" x2="84" y2="226.772" stroke="#AAAAAA" stroke-opacity="0.25"/>
      <line x1="96" y1="0" x2="96" y2="226.772" stroke="#AAAAAA" stroke-opacity="0.25"/>
      <line x1="108" y1="0" x2="108" y2="226.772" stroke="#AAAAAA" stroke-opacity="0.25"/>
      <line x1="120" y1="0" x2="120" y2="226.772" stroke="#AAAAAA" stroke-opacity="0.25"/>
      <line x1="132" y1="0" x2="132" y2="226.772" stroke="#AAAAAA" stroke-opacity="0.25"/>
      <line x1="144" y1="0" x2="144" y2="226.772" stroke="#AAAAAA" stroke-opacity="0.5"/>
      <line x1="156" y1="0" x2="156" y2="226.772" stroke="#AAAAAA" stroke-opacity="0.25"/>
      <line x1="168" y1="0" x2="168" y2="226.772" stroke="#AAAAAA" stroke-opacity="0.25"/>
      <line x1="180" y1="0" x2="180" y2="226.772" stroke="#AAAAAA" stroke-opacity="0.25"/>
      <line x1="192" y1="0" x2="192" y2="226.772" stroke="#AAAAAA" stroke-opacity="0.25"/>
      <line x1="204" y1="0" x2="204" y2="226.772" stroke="#AAAAAA" stroke-opacity="0.25"/>
      <line x1="216" y1="0" x2="216" y2="226.772" stroke="#AAAAAA" stroke-opacity="0.5"/>
      <line x1="228" y1="0" x2="228" y2="226.772" stroke="#AAAAAA" stroke-opacity="0.25"/>
      <line x1="240" y1="0" x2="240" y2="226.772" stroke="#AAAAAA" stroke-opacity="0.25"/>
      <line x1="252" y1="0" x2="252" y2="226.772" stroke="#AAAAAA" stroke-opacity="0.25"/>
      <line x1="264" y1="0" x2="264" y2="226.772" stroke="#AAAAAA" stroke-opacity="0.25"/>
      <line x1="276" y1="0" x2="276" y2="226.772" stroke="#AAAAAA" stroke-opacity="0.25"/>
      <line x1="0" y1="12" x2="283.465" y2="12" stroke="#AAAAAA" stroke-opacity="0.25"/>
      <line x1="0" y1="24" x2="283.465" y2="24" stroke="#AAAAAA" stroke-opacity="0.25"/>
      <line x1="0" y1="36" x2="283.465" y2="36" stroke="#AAAAAA" stroke-opacity="0.25"/>
      <line x1="0" y1="48" x2="283.465" y2="48" stroke="#AAAAAA" stroke-opacity="0.25"/>
      <line x1="0" y1="60" x2="283.465" y2="60" stroke="#AAAAAA" stroke-opacity="0.25"/>
      <line x1="0" y1="72" x2="283.465" y2="72" stroke="#AAAAAA" stroke-opacity="0.5"/>
      <line x1="0" y1="84" x2="283.465" y2="84" stroke="#AAAAAA" stroke-opacity="0.25"/>
      <line x1="0" y1="96" x2="283.465" y2="96" stroke="#AAAAAA" stroke-opacity="0.25"/>
      <line x1="0" y1="108" x2="283.465" y2="108" stroke="#AAAAAA" stroke-opacity="0.25"/>
      <line x1="0" y1="120" x2="283.465" y2="120" stroke="#AAAAAA" stroke-opacity="0.25"/>
      <line x1="0" y1="132" x2="283.465" y2="132" stroke="#AAAAAA" stroke-opacity="0.25"/>
      <line x1="0" y1="144" x2="283.465" y2="144" stroke="#AAAAAA" stroke-opacity="0.5"/>
      <line x1="0" y1="156" x2="283.465" y2="156" stroke="#AAAAAA" stroke-opacity="0.25"/>
      <line x1="0" y1="168" x2="283.465" y2="168" stroke="#AAAAAA" stroke-opacity="0.25"/>
      <line x1="0" y1="180" x2="283.465" y2="180" stroke="#AAAAAA" stroke-opacity="0.25"/>
      <line x1="0" y1="192" x2="283.465" y2="192" stroke="#AAAAAA" stroke-opacity="0.25"/>
      <line x1="0" y1="204" x2="283.465" y2="204" stroke="#AAAAAA" stroke-opacity="0.25"/>
      <line x1="0" y1="216" x2="283.465" y2="216" stroke="#AAAAAA" stroke-opacity="0.5"/>
    </g>
  </g>
  <g id="Layer_1">
    <g>
      <path d="M144.409,212.719 L144.409,17.461" fill-opacity="0" stroke="#000000" stroke-width="1"/>
      <path d="M147.409,17.461 L144.409,9.461 L141.409,17.461 z" fill="#000000" fill-opacity="1" stroke="#000000" stroke-width="1" stroke-opacity="1"/>
    </g>
    <g>
      <path d="M20.158,204.839 L264.813,204.839" fill-opacity="0" stroke="#000000" stroke-width="1"/>
      <path d="M264.813,207.839 L272.813,204.839 L264.813,201.839 z" fill="#000000" fill-opacity="1" stroke="#000000" stroke-width="1" stroke-opacity="1"/>
    </g>
    <path d="M48.645,204.839 L240.477,204.839" fill-opacity="0" stroke="#AB1500" stroke-width="3"/>
    <path d="M48.645,199.688 L48.645,210.294" fill-opacity="0" stroke="#000000" stroke-width="0.75"/>
    <path d="M240.477,199.688 L240.477,210.294" fill-opacity="0" stroke="#000000" stroke-width="0.75"/>
    <text transform="matrix(1, 0, 0, 1, 47.555, 217.294)">
      <tspan x="-5.865" y="3.5" font-family="Georgia-Italic" font-size="12" fill="#000000">-L</tspan>
    </text>
    <text transform="matrix(1, 0, 0, 1, 239.977, 217.294)">
      <tspan x="-3.621" y="3.5" font-family="Georgia-Italic" font-size="12" fill="#000000">L</tspan>
    </text>
    <path d="M143.909,48.815 C142.344,48.815 141.075,47.546 141.075,45.981 C141.075,44.415 142.344,43.146 143.909,43.146 C145.475,43.146 146.744,44.415 146.744,45.981 C146.744,47.546 145.475,48.815 143.909,48.815 z" fill="#000000"/>
    <text transform="matrix(1, 0, 0, 1, 172.619, 45.981)">
      <tspan x="-20.657" y="3.5" font-family="Georgia-Italic" font-size="12" fill="#000000">(0, 0, z)</tspan>
    </text>
    <text transform="matrix(1, 0, 0, 1, 134.938, 15.461)">
      <tspan x="-2.663" y="3.5" font-family="Georgia-Italic" font-size="12" fill="#000000">z</tspan>
    </text>
    <text transform="matrix(1, 0, 0, 1, 268.86, 214.963)">
      <tspan x="-3.006" y="3.5" font-family="Georgia-Italic" font-size="12" fill="#000000">x</tspan>
    </text>
  </g>
</svg>
