<?xml version="1.0" encoding="utf-8" standalone="no"?>
<!DOCTYPE svg PUBLIC "-//W3C//DTD SVG 1.1//EN"
  "http://www.w3.org/Graphics/SVG/1.1/DTD/svg11.dtd">
<!-- Created with matplotlib (http://matplotlib.org/) -->
<svg height="432pt" version="1.1" viewBox="0 0 432 432" width="432pt" xmlns="http://www.w3.org/2000/svg" xmlns:xlink="http://www.w3.org/1999/xlink">
 <defs>
  <style type="text/css">
*{stroke-linecap:butt;stroke-linejoin:round;}
  </style>
 </defs>
 <g id="figure_1">
  <g id="patch_1">
   <path d="M 0 432 
L 432 432 
L 432 0 
L 0 0 
z
" style="fill:#ffffff;"/>
  </g>
  <g id="axes_1">
   <g id="patch_2">
    <path d="M 13.32 208.08 
L 208.08 208.08 
L 208.08 32.64 
L 13.32 32.64 
z
" style="fill:#ffffff;"/>
   </g>
   <g id="Quiver_1">
    <path clip-path="url(#p99e79af608)" d="M 30.953153 200.106847 
L 65.257234 234.410928 
L 65.77367 232.861621 
L 69.388718 239.575282 
L 62.675057 235.960234 
L 64.224363 235.443799 
L 29.920282 201.139718 
L 30.953153 200.106847 
"/>
    <path clip-path="url(#p99e79af608)" d="M 57.596271 200.015594 
L 91.079079 222.337467 
L 91.281642 220.716965 
L 96.143145 226.591282 
L 88.85089 224.363093 
L 90.268829 223.552843 
L 56.78602 201.23097 
L 57.596271 200.015594 
"/>
    <path clip-path="url(#p99e79af608)" d="M 84.17653 199.930411 
L 116.892692 210.835799 
L 116.661735 209.2191 
L 122.897573 213.607282 
L 115.275993 213.376325 
L 116.430778 212.22154 
L 83.714616 201.316153 
L 84.17653 199.930411 
"/>
    <path clip-path="url(#p99e79af608)" d="M 110.7 199.892932 
L 143.07885 199.892932 
L 142.3485 198.432232 
L 149.652 200.623282 
L 142.3485 202.814332 
L 143.07885 201.353632 
L 110.7 201.353632 
L 110.7 199.892932 
"/>
    <path clip-path="url(#p99e79af608)" d="M 137.22347 199.930411 
L 169.939633 189.025024 
L 168.784848 187.870239 
L 176.406427 187.639282 
L 170.17059 192.027464 
L 170.401547 190.410766 
L 137.685384 201.316153 
L 137.22347 199.930411 
"/>
    <path clip-path="url(#p99e79af608)" d="M 163.803729 200.015594 
L 197.286538 177.693722 
L 195.8686 176.883471 
L 203.160855 174.655282 
L 198.299351 180.529599 
L 198.096789 178.909098 
L 164.61398 201.23097 
L 163.803729 200.015594 
"/>
    <path clip-path="url(#p99e79af608)" d="M 190.446847 200.106847 
L 224.750928 165.802766 
L 223.201621 165.28633 
L 229.915282 161.671282 
L 226.300234 168.384943 
L 225.783799 166.835637 
L 191.479718 201.139718 
L 190.446847 200.106847 
"/>
    <path clip-path="url(#p99e79af608)" d="M 31.044406 173.463729 
L 53.366278 206.946538 
L 54.176529 205.5286 
L 56.404718 212.820855 
L 50.530401 207.959351 
L 52.150902 207.756789 
L 29.82903 174.27398 
L 31.044406 173.463729 
"/>
    <path clip-path="url(#p99e79af608)" d="M 57.707581 173.352419 
L 79.027662 194.6725 
L 79.544097 193.123194 
L 83.159145 199.836855 
L 76.445485 196.221807 
L 77.994791 195.705371 
L 56.67471 174.38529 
L 57.707581 173.352419 
"/>
    <path clip-path="url(#p99e79af608)" d="M 84.272195 173.21561 
L 104.360991 183.260008 
L 104.360991 181.626896 
L 109.913573 186.852855 
L 102.401256 185.546365 
L 103.707746 184.566498 
L 83.61895 174.5221 
L 84.272195 173.21561 
"/>
    <path clip-path="url(#p99e79af608)" d="M 110.7 173.138505 
L 130.09485 173.138505 
L 129.3645 171.677805 
L 136.668 173.868855 
L 129.3645 176.059905 
L 130.09485 174.599205 
L 110.7 174.599205 
L 110.7 173.138505 
"/>
    <path clip-path="url(#p99e79af608)" d="M 137.127805 173.21561 
L 157.216601 163.171212 
L 155.910111 162.191345 
L 163.422427 160.884855 
L 157.869846 166.110814 
L 157.869846 164.477702 
L 137.78105 174.5221 
L 137.127805 173.21561 
"/>
    <path clip-path="url(#p99e79af608)" d="M 163.692419 173.352419 
L 185.0125 152.032338 
L 183.463194 151.515903 
L 190.176855 147.900855 
L 186.561807 154.614515 
L 186.045371 153.065209 
L 164.72529 174.38529 
L 163.692419 173.352419 
"/>
    <path clip-path="url(#p99e79af608)" d="M 190.355594 173.463729 
L 212.677467 139.980921 
L 211.056965 139.778358 
L 216.931282 134.916855 
L 214.703093 142.20911 
L 213.892843 140.791171 
L 191.57097 174.27398 
L 190.355594 173.463729 
"/>
    <path clip-path="url(#p99e79af608)" d="M 31.129589 146.88347 
L 42.034976 179.599633 
L 43.189761 178.444848 
L 43.420718 186.066427 
L 39.032536 179.83059 
L 40.649234 180.061547 
L 29.743847 147.345384 
L 31.129589 146.88347 
"/>
    <path clip-path="url(#p99e79af608)" d="M 57.84439 146.787805 
L 67.888788 166.876601 
L 68.868655 165.570111 
L 70.175145 173.082427 
L 64.949186 167.529846 
L 66.582298 167.529846 
L 56.5379 147.44105 
L 57.84439 146.787805 
"/>
    <path clip-path="url(#p99e79af608)" d="M 84.462008 146.597992 
L 92.798089 154.934073 
L 93.314525 153.384767 
L 96.929573 160.098427 
L 90.215912 156.483379 
L 91.765218 155.966944 
L 83.429137 147.630863 
L 84.462008 146.597992 
"/>
    <path clip-path="url(#p99e79af608)" d="M 110.7 146.384077 
L 117.11085 146.384077 
L 116.3805 144.923377 
L 123.684 147.114427 
L 116.3805 149.305477 
L 117.11085 147.844777 
L 110.7 147.844777 
L 110.7 146.384077 
"/>
    <path clip-path="url(#p99e79af608)" d="M 136.937992 146.597992 
L 145.274073 138.261911 
L 143.724767 137.745475 
L 150.438427 134.130427 
L 146.823379 140.844088 
L 146.306944 139.294782 
L 137.970863 147.630863 
L 136.937992 146.597992 
"/>
    <path clip-path="url(#p99e79af608)" d="M 163.55561 146.787805 
L 173.600008 126.699009 
L 171.966896 126.699009 
L 177.192855 121.146427 
L 175.886365 128.658744 
L 174.906498 127.352254 
L 164.8621 147.44105 
L 163.55561 146.787805 
"/>
    <path clip-path="url(#p99e79af608)" d="M 190.270411 146.88347 
L 201.175799 114.167308 
L 199.5591 114.398265 
L 203.947282 108.162427 
L 203.716325 115.784007 
L 202.56154 114.629222 
L 191.656153 147.345384 
L 190.270411 146.88347 
"/>
    <path clip-path="url(#p99e79af608)" d="M 31.167068 120.36 
L 31.167068 152.73885 
L 32.627768 152.0085 
L 30.436718 159.312 
L 28.245668 152.0085 
L 29.706368 152.73885 
L 29.706368 120.36 
L 31.167068 120.36 
"/>
    <path clip-path="url(#p99e79af608)" d="M 57.921495 120.36 
L 57.921495 139.75485 
L 59.382195 139.0245 
L 57.191145 146.328 
L 55.000095 139.0245 
L 56.460795 139.75485 
L 56.460795 120.36 
L 57.921495 120.36 
"/>
    <path clip-path="url(#p99e79af608)" d="M 84.675923 120.36 
L 84.675923 126.77085 
L 86.136623 126.0405 
L 83.945573 133.344 
L 81.754523 126.0405 
L 83.215223 126.77085 
L 83.215223 120.36 
L 84.675923 120.36 
"/>
    <path clip-path="url(#p99e79af608)" d="M 111.43035 120.36 
L 111.065175 119.727498 
L 110.334825 119.727498 
L 109.96965 120.36 
L 110.334825 120.992502 
L 111.065175 120.992502 
L 111.43035 120.36 
L 111.065175 119.727498 
"/>
    <path clip-path="url(#p99e79af608)" d="M 136.724077 120.36 
L 136.724077 113.94915 
L 135.263377 114.6795 
L 137.454427 107.376 
L 139.645477 114.6795 
L 138.184777 113.94915 
L 138.184777 120.36 
L 136.724077 120.36 
"/>
    <path clip-path="url(#p99e79af608)" d="M 163.478505 120.36 
L 163.478505 100.96515 
L 162.017805 101.6955 
L 164.208855 94.392 
L 166.399905 101.6955 
L 164.939205 100.96515 
L 164.939205 120.36 
L 163.478505 120.36 
"/>
    <path clip-path="url(#p99e79af608)" d="M 190.232932 120.36 
L 190.232932 87.98115 
L 188.772232 88.7115 
L 190.963282 81.408 
L 193.154332 88.7115 
L 191.693632 87.98115 
L 191.693632 120.36 
L 190.232932 120.36 
"/>
    <path clip-path="url(#p99e79af608)" d="M 31.129589 93.83653 
L 20.224201 126.552692 
L 21.8409 126.321735 
L 17.452718 132.557573 
L 17.683675 124.935993 
L 18.83846 126.090778 
L 29.743847 93.374616 
L 31.129589 93.83653 
"/>
    <path clip-path="url(#p99e79af608)" d="M 57.84439 93.932195 
L 47.799992 114.020991 
L 49.433104 114.020991 
L 44.207145 119.573573 
L 45.513635 112.061256 
L 46.493502 113.367746 
L 56.5379 93.27895 
L 57.84439 93.932195 
"/>
    <path clip-path="url(#p99e79af608)" d="M 84.462008 94.122008 
L 76.125927 102.458089 
L 77.675233 102.974525 
L 70.961573 106.589573 
L 74.576621 99.875912 
L 75.093056 101.425218 
L 83.429137 93.089137 
L 84.462008 94.122008 
"/>
    <path clip-path="url(#p99e79af608)" d="M 110.7 94.335923 
L 104.28915 94.335923 
L 105.0195 95.796623 
L 97.716 93.605573 
L 105.0195 91.414523 
L 104.28915 92.875223 
L 110.7 92.875223 
L 110.7 94.335923 
"/>
    <path clip-path="url(#p99e79af608)" d="M 136.937992 94.122008 
L 128.601911 85.785927 
L 128.085475 87.335233 
L 124.470427 80.621573 
L 131.184088 84.236621 
L 129.634782 84.753056 
L 137.970863 93.089137 
L 136.937992 94.122008 
"/>
    <path clip-path="url(#p99e79af608)" d="M 163.55561 93.932195 
L 153.511212 73.843399 
L 152.531345 75.149889 
L 151.224855 67.637573 
L 156.450814 73.190154 
L 154.817702 73.190154 
L 164.8621 93.27895 
L 163.55561 93.932195 
"/>
    <path clip-path="url(#p99e79af608)" d="M 190.270411 93.83653 
L 179.365024 61.120367 
L 178.210239 62.275152 
L 177.979282 54.653573 
L 182.367464 60.88941 
L 180.750766 60.658453 
L 191.656153 93.374616 
L 190.270411 93.83653 
"/>
    <path clip-path="url(#p99e79af608)" d="M 31.044406 67.256271 
L 8.722533 100.739079 
L 10.343035 100.941642 
L 4.468718 105.803145 
L 6.696907 98.51089 
L 7.507157 99.928829 
L 29.82903 66.44602 
L 31.044406 67.256271 
"/>
    <path clip-path="url(#p99e79af608)" d="M 57.707581 67.367581 
L 36.3875 88.687662 
L 37.936806 89.204097 
L 31.223145 92.819145 
L 34.838193 86.105485 
L 35.354629 87.654791 
L 56.67471 66.33471 
L 57.707581 67.367581 
"/>
    <path clip-path="url(#p99e79af608)" d="M 84.272195 67.50439 
L 64.183399 77.548788 
L 65.489889 78.528655 
L 57.977573 79.835145 
L 63.530154 74.609186 
L 63.530154 76.242298 
L 83.61895 66.1979 
L 84.272195 67.50439 
"/>
    <path clip-path="url(#p99e79af608)" d="M 110.7 67.581495 
L 91.30515 67.581495 
L 92.0355 69.042195 
L 84.732 66.851145 
L 92.0355 64.660095 
L 91.30515 66.120795 
L 110.7 66.120795 
L 110.7 67.581495 
"/>
    <path clip-path="url(#p99e79af608)" d="M 137.127805 67.50439 
L 117.039009 57.459992 
L 117.039009 59.093104 
L 111.486427 53.867145 
L 118.998744 55.173635 
L 117.692254 56.153502 
L 137.78105 66.1979 
L 137.127805 67.50439 
"/>
    <path clip-path="url(#p99e79af608)" d="M 163.692419 67.367581 
L 142.372338 46.0475 
L 141.855903 47.596806 
L 138.240855 40.883145 
L 144.954515 44.498193 
L 143.405209 45.014629 
L 164.72529 66.33471 
L 163.692419 67.367581 
"/>
    <path clip-path="url(#p99e79af608)" d="M 190.355594 67.256271 
L 168.033722 33.773462 
L 167.223471 35.1914 
L 164.995282 27.899145 
L 170.869599 32.760649 
L 169.249098 32.963211 
L 191.57097 66.44602 
L 190.355594 67.256271 
"/>
    <path clip-path="url(#p99e79af608)" d="M 30.953153 40.613153 
L -3.350928 74.917234 
L -1.801621 75.43367 
L -8.515282 79.048718 
L -4.900234 72.335057 
L -4.383799 73.884363 
L 29.920282 39.580282 
L 30.953153 40.613153 
"/>
    <path clip-path="url(#p99e79af608)" d="M 57.596271 40.704406 
L 24.113462 63.026278 
L 25.5314 63.836529 
L 18.239145 66.064718 
L 23.100649 60.190401 
L 23.303211 61.810902 
L 56.78602 39.48903 
L 57.596271 40.704406 
"/>
    <path clip-path="url(#p99e79af608)" d="M 84.17653 40.789589 
L 51.460367 51.694976 
L 52.615152 52.849761 
L 44.993573 53.080718 
L 51.22941 48.692536 
L 50.998453 50.309234 
L 83.714616 39.403847 
L 84.17653 40.789589 
"/>
    <path clip-path="url(#p99e79af608)" d="M 110.7 40.827068 
L 78.32115 40.827068 
L 79.0515 42.287768 
L 71.748 40.096718 
L 79.0515 37.905668 
L 78.32115 39.366368 
L 110.7 39.366368 
L 110.7 40.827068 
"/>
    <path clip-path="url(#p99e79af608)" d="M 137.22347 40.789589 
L 104.507308 29.884201 
L 104.738265 31.5009 
L 98.502427 27.112718 
L 106.124007 27.343675 
L 104.969222 28.49846 
L 137.685384 39.403847 
L 137.22347 40.789589 
"/>
    <path clip-path="url(#p99e79af608)" d="M 163.803729 40.704406 
L 130.320921 18.382533 
L 130.118358 20.003035 
L 125.256855 14.128718 
L 132.54911 16.356907 
L 131.131171 17.167157 
L 164.61398 39.48903 
L 163.803729 40.704406 
"/>
    <path clip-path="url(#p99e79af608)" d="M 190.446847 40.613153 
L 156.142766 6.309072 
L 155.62633 7.858379 
L 152.011282 1.144718 
L 158.724943 4.759766 
L 157.175637 5.276201 
L 191.479718 39.580282 
L 190.446847 40.613153 
"/>
   </g>
   <g id="matplotlib.axis_1"/>
   <g id="matplotlib.axis_2"/>
   <g id="patch_3">
    <path d="M 13.32 208.08 
L 13.32 32.64 
" style="fill:none;stroke:#000000;stroke-linecap:square;stroke-linejoin:miter;stroke-width:0.8;"/>
   </g>
   <g id="patch_4">
    <path d="M 208.08 208.08 
L 208.08 32.64 
" style="fill:none;stroke:#000000;stroke-linecap:square;stroke-linejoin:miter;stroke-width:0.8;"/>
   </g>
   <g id="patch_5">
    <path d="M 13.32 208.08 
L 208.08 208.08 
" style="fill:none;stroke:#000000;stroke-linecap:square;stroke-linejoin:miter;stroke-width:0.8;"/>
   </g>
   <g id="patch_6">
    <path d="M 13.32 32.64 
L 208.08 32.64 
" style="fill:none;stroke:#000000;stroke-linecap:square;stroke-linejoin:miter;stroke-width:0.8;"/>
   </g>
   <g id="text_1">
    <!-- 1 -->
    <defs>
     <path d="M 12.40625 8.296875 
L 28.515625 8.296875 
L 28.515625 63.921875 
L 10.984375 60.40625 
L 10.984375 69.390625 
L 28.421875 72.90625 
L 38.28125 72.90625 
L 38.28125 8.296875 
L 54.390625 8.296875 
L 54.390625 0 
L 12.40625 0 
z
" id="DejaVuSans-31"/>
    </defs>
    <g transform="translate(104.3375 26.64)scale(0.2 -0.2)">
     <use xlink:href="#DejaVuSans-31"/>
    </g>
   </g>
  </g>
  <g id="axes_2">
   <g id="patch_7">
    <path d="M 13.32 418.68 
L 208.08 418.68 
L 208.08 243.24 
L 13.32 243.24 
z
" style="fill:#ffffff;"/>
   </g>
   <g id="Quiver_2">
    <path clip-path="url(#p9262a30947)" d="M 30.953153 411.739718 
L -3.350928 446.043799 
L -1.801621 446.560234 
L -8.515282 450.175282 
L -4.900234 443.461621 
L -4.383799 445.010928 
L 29.920282 410.706847 
L 30.953153 411.739718 
"/>
    <path clip-path="url(#p9262a30947)" d="M 57.798833 411.628407 
L 35.476961 445.111216 
L 37.097462 445.313779 
L 31.223145 450.175282 
L 33.451334 442.883027 
L 34.261585 444.300965 
L 56.583457 410.818157 
L 57.798833 411.628407 
"/>
    <path clip-path="url(#p9262a30947)" d="M 84.638443 411.454239 
L 73.733056 444.170402 
L 75.349755 443.939445 
L 70.961573 450.175282 
L 71.19253 442.553703 
L 72.347314 443.708488 
L 83.252702 410.992325 
L 84.638443 411.454239 
"/>
    <path clip-path="url(#p9262a30947)" d="M 111.43035 411.223282 
L 111.43035 443.602132 
L 112.89105 442.871782 
L 110.7 450.175282 
L 108.50895 442.871782 
L 109.96965 443.602132 
L 109.96965 411.223282 
L 111.43035 411.223282 
"/>
    <path clip-path="url(#p9262a30947)" d="M 138.147298 410.992325 
L 149.052686 443.708488 
L 150.20747 442.553703 
L 150.438427 450.175282 
L 146.050245 443.939445 
L 147.666944 444.170402 
L 136.761557 411.454239 
L 138.147298 410.992325 
"/>
    <path clip-path="url(#p9262a30947)" d="M 164.816543 410.818157 
L 187.138415 444.300965 
L 187.948666 442.883027 
L 190.176855 450.175282 
L 184.302538 445.313779 
L 185.923039 445.111216 
L 163.601167 411.628407 
L 164.816543 410.818157 
"/>
    <path clip-path="url(#p9262a30947)" d="M 191.479718 410.706847 
L 225.783799 445.010928 
L 226.300234 443.461621 
L 229.915282 450.175282 
L 223.201621 446.560234 
L 224.750928 446.043799 
L 190.446847 411.739718 
L 191.479718 410.706847 
"/>
    <path clip-path="url(#p9262a30947)" d="M 30.841843 385.076543 
L -2.640965 407.398415 
L -1.223027 408.208666 
L -8.515282 410.436855 
L -3.653779 404.562538 
L -3.451216 406.183039 
L 30.031593 383.861167 
L 30.841843 385.076543 
"/>
    <path clip-path="url(#p9262a30947)" d="M 57.707581 384.98529 
L 36.3875 406.305371 
L 37.936806 406.821807 
L 31.223145 410.436855 
L 34.838193 403.723194 
L 35.354629 405.2725 
L 56.67471 383.952419 
L 57.707581 384.98529 
"/>
    <path clip-path="url(#p9262a30947)" d="M 84.598818 384.795477 
L 74.55442 404.884273 
L 76.187532 404.884273 
L 70.961573 410.436855 
L 72.268062 402.924538 
L 73.24793 404.231028 
L 83.292328 384.142232 
L 84.598818 384.795477 
"/>
    <path clip-path="url(#p9262a30947)" d="M 111.43035 384.468855 
L 111.43035 403.863705 
L 112.89105 403.133355 
L 110.7 410.436855 
L 108.50895 403.133355 
L 109.96965 403.863705 
L 109.96965 384.468855 
L 111.43035 384.468855 
"/>
    <path clip-path="url(#p9262a30947)" d="M 138.107672 384.142232 
L 148.15207 404.231028 
L 149.131938 402.924538 
L 150.438427 410.436855 
L 145.212468 404.884273 
L 146.84558 404.884273 
L 136.801182 384.795477 
L 138.107672 384.142232 
"/>
    <path clip-path="url(#p9262a30947)" d="M 164.72529 383.952419 
L 186.045371 405.2725 
L 186.561807 403.723194 
L 190.176855 410.436855 
L 183.463194 406.821807 
L 185.0125 406.305371 
L 163.692419 384.98529 
L 164.72529 383.952419 
"/>
    <path clip-path="url(#p9262a30947)" d="M 191.368407 383.861167 
L 224.851216 406.183039 
L 225.053779 404.562538 
L 229.915282 410.436855 
L 222.623027 408.208666 
L 224.040965 407.398415 
L 190.558157 385.076543 
L 191.368407 383.861167 
"/>
    <path clip-path="url(#p9262a30947)" d="M 30.667675 358.407298 
L -2.048488 369.312686 
L -0.893703 370.46747 
L -8.515282 370.698427 
L -2.279445 366.310245 
L -2.510402 367.926944 
L 30.205761 357.021557 
L 30.667675 358.407298 
"/>
    <path clip-path="url(#p9262a30947)" d="M 57.517768 358.367672 
L 37.428972 368.41207 
L 38.735462 369.391938 
L 31.223145 370.698427 
L 36.775727 365.472468 
L 36.775727 367.10558 
L 56.864523 357.061182 
L 57.517768 358.367672 
"/>
    <path clip-path="url(#p9262a30947)" d="M 84.462008 358.230863 
L 76.125927 366.566944 
L 77.675233 367.083379 
L 70.961573 370.698427 
L 74.576621 363.984767 
L 75.093056 365.534073 
L 83.429137 357.197992 
L 84.462008 358.230863 
"/>
    <path clip-path="url(#p9262a30947)" d="M 111.43035 357.714427 
L 111.43035 364.125277 
L 112.89105 363.394927 
L 110.7 370.698427 
L 108.50895 363.394927 
L 109.96965 364.125277 
L 109.96965 357.714427 
L 111.43035 357.714427 
"/>
    <path clip-path="url(#p9262a30947)" d="M 137.970863 357.197992 
L 146.306944 365.534073 
L 146.823379 363.984767 
L 150.438427 370.698427 
L 143.724767 367.083379 
L 145.274073 366.566944 
L 136.937992 358.230863 
L 137.970863 357.197992 
"/>
    <path clip-path="url(#p9262a30947)" d="M 164.535477 357.061182 
L 184.624273 367.10558 
L 184.624273 365.472468 
L 190.176855 370.698427 
L 182.664538 369.391938 
L 183.971028 368.41207 
L 163.882232 358.367672 
L 164.535477 357.061182 
"/>
    <path clip-path="url(#p9262a30947)" d="M 191.194239 357.021557 
L 223.910402 367.926944 
L 223.679445 366.310245 
L 229.915282 370.698427 
L 222.293703 370.46747 
L 223.448488 369.312686 
L 190.732325 358.407298 
L 191.194239 357.021557 
"/>
    <path clip-path="url(#p9262a30947)" d="M 30.436718 331.69035 
L -1.942132 331.69035 
L -1.211782 333.15105 
L -8.515282 330.96 
L -1.211782 328.76895 
L -1.942132 330.22965 
L 30.436718 330.22965 
L 30.436718 331.69035 
"/>
    <path clip-path="url(#p9262a30947)" d="M 57.191145 331.69035 
L 37.796295 331.69035 
L 38.526645 333.15105 
L 31.223145 330.96 
L 38.526645 328.76895 
L 37.796295 330.22965 
L 57.191145 330.22965 
L 57.191145 331.69035 
"/>
    <path clip-path="url(#p9262a30947)" d="M 83.945573 331.69035 
L 77.534723 331.69035 
L 78.265073 333.15105 
L 70.961573 330.96 
L 78.265073 328.76895 
L 77.534723 330.22965 
L 83.945573 330.22965 
L 83.945573 331.69035 
"/>
    <path clip-path="url(#p9262a30947)" d="M 111.43035 330.96 
L 111.065175 330.327498 
L 110.334825 330.327498 
L 109.96965 330.96 
L 110.334825 331.592502 
L 111.065175 331.592502 
L 111.43035 330.96 
L 111.065175 330.327498 
"/>
    <path clip-path="url(#p9262a30947)" d="M 137.454427 330.22965 
L 143.865277 330.22965 
L 143.134927 328.76895 
L 150.438427 330.96 
L 143.134927 333.15105 
L 143.865277 331.69035 
L 137.454427 331.69035 
L 137.454427 330.22965 
"/>
    <path clip-path="url(#p9262a30947)" d="M 164.208855 330.22965 
L 183.603705 330.22965 
L 182.873355 328.76895 
L 190.176855 330.96 
L 182.873355 333.15105 
L 183.603705 331.69035 
L 164.208855 331.69035 
L 164.208855 330.22965 
"/>
    <path clip-path="url(#p9262a30947)" d="M 190.963282 330.22965 
L 223.342132 330.22965 
L 222.611782 328.76895 
L 229.915282 330.96 
L 222.611782 333.15105 
L 223.342132 331.69035 
L 190.963282 331.69035 
L 190.963282 330.22965 
"/>
    <path clip-path="url(#p9262a30947)" d="M 30.205761 304.898443 
L -2.510402 293.993056 
L -2.279445 295.609755 
L -8.515282 291.221573 
L -0.893703 291.45253 
L -2.048488 292.607314 
L 30.667675 303.512702 
L 30.205761 304.898443 
"/>
    <path clip-path="url(#p9262a30947)" d="M 56.864523 304.858818 
L 36.775727 294.81442 
L 36.775727 296.447532 
L 31.223145 291.221573 
L 38.735462 292.528062 
L 37.428972 293.50793 
L 57.517768 303.552328 
L 56.864523 304.858818 
"/>
    <path clip-path="url(#p9262a30947)" d="M 83.429137 304.722008 
L 75.093056 296.385927 
L 74.576621 297.935233 
L 70.961573 291.221573 
L 77.675233 294.836621 
L 76.125927 295.353056 
L 84.462008 303.689137 
L 83.429137 304.722008 
"/>
    <path clip-path="url(#p9262a30947)" d="M 109.96965 304.205573 
L 109.96965 297.794723 
L 108.50895 298.525073 
L 110.7 291.221573 
L 112.89105 298.525073 
L 111.43035 297.794723 
L 111.43035 304.205573 
L 109.96965 304.205573 
"/>
    <path clip-path="url(#p9262a30947)" d="M 136.937992 303.689137 
L 145.274073 295.353056 
L 143.724767 294.836621 
L 150.438427 291.221573 
L 146.823379 297.935233 
L 146.306944 296.385927 
L 137.970863 304.722008 
L 136.937992 303.689137 
"/>
    <path clip-path="url(#p9262a30947)" d="M 163.882232 303.552328 
L 183.971028 293.50793 
L 182.664538 292.528062 
L 190.176855 291.221573 
L 184.624273 296.447532 
L 184.624273 294.81442 
L 164.535477 304.858818 
L 163.882232 303.552328 
"/>
    <path clip-path="url(#p9262a30947)" d="M 190.732325 303.512702 
L 223.448488 292.607314 
L 222.293703 291.45253 
L 229.915282 291.221573 
L 223.679445 295.609755 
L 223.910402 293.993056 
L 191.194239 304.898443 
L 190.732325 303.512702 
"/>
    <path clip-path="url(#p9262a30947)" d="M 30.031593 278.058833 
L -3.451216 255.736961 
L -3.653779 257.357462 
L -8.515282 251.483145 
L -1.223027 253.711334 
L -2.640965 254.521585 
L 30.841843 276.843457 
L 30.031593 278.058833 
"/>
    <path clip-path="url(#p9262a30947)" d="M 56.67471 277.967581 
L 35.354629 256.6475 
L 34.838193 258.196806 
L 31.223145 251.483145 
L 37.936806 255.098193 
L 36.3875 255.614629 
L 57.707581 276.93471 
L 56.67471 277.967581 
"/>
    <path clip-path="url(#p9262a30947)" d="M 83.292328 277.777768 
L 73.24793 257.688972 
L 72.268062 258.995462 
L 70.961573 251.483145 
L 76.187532 257.035727 
L 74.55442 257.035727 
L 84.598818 277.124523 
L 83.292328 277.777768 
"/>
    <path clip-path="url(#p9262a30947)" d="M 109.96965 277.451145 
L 109.96965 258.056295 
L 108.50895 258.786645 
L 110.7 251.483145 
L 112.89105 258.786645 
L 111.43035 258.056295 
L 111.43035 277.451145 
L 109.96965 277.451145 
"/>
    <path clip-path="url(#p9262a30947)" d="M 136.801182 277.124523 
L 146.84558 257.035727 
L 145.212468 257.035727 
L 150.438427 251.483145 
L 149.131938 258.995462 
L 148.15207 257.688972 
L 138.107672 277.777768 
L 136.801182 277.124523 
"/>
    <path clip-path="url(#p9262a30947)" d="M 163.692419 276.93471 
L 185.0125 255.614629 
L 183.463194 255.098193 
L 190.176855 251.483145 
L 186.561807 258.196806 
L 186.045371 256.6475 
L 164.72529 277.967581 
L 163.692419 276.93471 
"/>
    <path clip-path="url(#p9262a30947)" d="M 190.558157 276.843457 
L 224.040965 254.521585 
L 222.623027 253.711334 
L 229.915282 251.483145 
L 225.053779 257.357462 
L 224.851216 255.736961 
L 191.368407 278.058833 
L 190.558157 276.843457 
"/>
    <path clip-path="url(#p9262a30947)" d="M 29.920282 251.213153 
L -4.383799 216.909072 
L -4.900234 218.458379 
L -8.515282 211.744718 
L -1.801621 215.359766 
L -3.350928 215.876201 
L 30.953153 250.180282 
L 29.920282 251.213153 
"/>
    <path clip-path="url(#p9262a30947)" d="M 56.583457 251.101843 
L 34.261585 217.619035 
L 33.451334 219.036973 
L 31.223145 211.744718 
L 37.097462 216.606221 
L 35.476961 216.808784 
L 57.798833 250.291593 
L 56.583457 251.101843 
"/>
    <path clip-path="url(#p9262a30947)" d="M 83.252702 250.927675 
L 72.347314 218.211512 
L 71.19253 219.366297 
L 70.961573 211.744718 
L 75.349755 217.980555 
L 73.733056 217.749598 
L 84.638443 250.465761 
L 83.252702 250.927675 
"/>
    <path clip-path="url(#p9262a30947)" d="M 109.96965 250.696718 
L 109.96965 218.317868 
L 108.50895 219.048218 
L 110.7 211.744718 
L 112.89105 219.048218 
L 111.43035 218.317868 
L 111.43035 250.696718 
L 109.96965 250.696718 
"/>
    <path clip-path="url(#p9262a30947)" d="M 136.761557 250.465761 
L 147.666944 217.749598 
L 146.050245 217.980555 
L 150.438427 211.744718 
L 150.20747 219.366297 
L 149.052686 218.211512 
L 138.147298 250.927675 
L 136.761557 250.465761 
"/>
    <path clip-path="url(#p9262a30947)" d="M 163.601167 250.291593 
L 185.923039 216.808784 
L 184.302538 216.606221 
L 190.176855 211.744718 
L 187.948666 219.036973 
L 187.138415 217.619035 
L 164.816543 251.101843 
L 163.601167 250.291593 
"/>
    <path clip-path="url(#p9262a30947)" d="M 190.446847 250.180282 
L 224.750928 215.876201 
L 223.201621 215.359766 
L 229.915282 211.744718 
L 226.300234 218.458379 
L 225.783799 216.909072 
L 191.479718 251.213153 
L 190.446847 250.180282 
"/>
   </g>
   <g id="matplotlib.axis_3"/>
   <g id="matplotlib.axis_4"/>
   <g id="patch_8">
    <path d="M 13.32 418.68 
L 13.32 243.24 
" style="fill:none;stroke:#000000;stroke-linecap:square;stroke-linejoin:miter;stroke-width:0.8;"/>
   </g>
   <g id="patch_9">
    <path d="M 208.08 418.68 
L 208.08 243.24 
" style="fill:none;stroke:#000000;stroke-linecap:square;stroke-linejoin:miter;stroke-width:0.8;"/>
   </g>
   <g id="patch_10">
    <path d="M 13.32 418.68 
L 208.08 418.68 
" style="fill:none;stroke:#000000;stroke-linecap:square;stroke-linejoin:miter;stroke-width:0.8;"/>
   </g>
   <g id="patch_11">
    <path d="M 13.32 243.24 
L 208.08 243.24 
" style="fill:none;stroke:#000000;stroke-linecap:square;stroke-linejoin:miter;stroke-width:0.8;"/>
   </g>
   <g id="text_2">
    <!-- 3 -->
    <defs>
     <path d="M 40.578125 39.3125 
Q 47.65625 37.796875 51.625 33 
Q 55.609375 28.21875 55.609375 21.1875 
Q 55.609375 10.40625 48.1875 4.484375 
Q 40.765625 -1.421875 27.09375 -1.421875 
Q 22.515625 -1.421875 17.65625 -0.515625 
Q 12.796875 0.390625 7.625 2.203125 
L 7.625 11.71875 
Q 11.71875 9.328125 16.59375 8.109375 
Q 21.484375 6.890625 26.8125 6.890625 
Q 36.078125 6.890625 40.9375 10.546875 
Q 45.796875 14.203125 45.796875 21.1875 
Q 45.796875 27.640625 41.28125 31.265625 
Q 36.765625 34.90625 28.71875 34.90625 
L 20.21875 34.90625 
L 20.21875 43.015625 
L 29.109375 43.015625 
Q 36.375 43.015625 40.234375 45.921875 
Q 44.09375 48.828125 44.09375 54.296875 
Q 44.09375 59.90625 40.109375 62.90625 
Q 36.140625 65.921875 28.71875 65.921875 
Q 24.65625 65.921875 20.015625 65.03125 
Q 15.375 64.15625 9.8125 62.3125 
L 9.8125 71.09375 
Q 15.4375 72.65625 20.34375 73.4375 
Q 25.25 74.21875 29.59375 74.21875 
Q 40.828125 74.21875 47.359375 69.109375 
Q 53.90625 64.015625 53.90625 55.328125 
Q 53.90625 49.265625 50.4375 45.09375 
Q 46.96875 40.921875 40.578125 39.3125 
z
" id="DejaVuSans-33"/>
    </defs>
    <g transform="translate(104.3375 237.24)scale(0.2 -0.2)">
     <use xlink:href="#DejaVuSans-33"/>
    </g>
   </g>
  </g>
  <g id="axes_3">
   <g id="patch_12">
    <path d="M 223.92 208.08 
L 418.68 208.08 
L 418.68 32.64 
L 223.92 32.64 
z
" style="fill:#ffffff;"/>
   </g>
   <g id="Quiver_3">
    <path clip-path="url(#p5b2f13b3eb)" d="M 241.036718 201.353632 
L 208.657868 201.353632 
L 209.388218 202.814332 
L 202.084718 200.623282 
L 209.388218 198.432232 
L 208.657868 199.892932 
L 241.036718 199.892932 
L 241.036718 201.353632 
"/>
    <path clip-path="url(#p5b2f13b3eb)" d="M 321.3 201.353632 
L 288.92115 201.353632 
L 289.6515 202.814332 
L 282.348 200.623282 
L 289.6515 198.432232 
L 288.92115 199.892932 
L 321.3 199.892932 
L 321.3 201.353632 
"/>
    <path clip-path="url(#p5b2f13b3eb)" d="M 401.563282 201.353632 
L 369.184432 201.353632 
L 369.914782 202.814332 
L 362.611282 200.623282 
L 369.914782 198.432232 
L 369.184432 199.892932 
L 401.563282 199.892932 
L 401.563282 201.353632 
"/>
    <path clip-path="url(#p5b2f13b3eb)" d="M 241.036718 169.248319 
L 224.238668 169.248319 
L 224.969018 170.709019 
L 217.665518 168.517969 
L 224.969018 166.326919 
L 224.238668 167.787619 
L 241.036718 167.787619 
L 241.036718 169.248319 
"/>
    <path clip-path="url(#p5b2f13b3eb)" d="M 321.3 169.248319 
L 304.50195 169.248319 
L 305.2323 170.709019 
L 297.9288 168.517969 
L 305.2323 166.326919 
L 304.50195 167.787619 
L 321.3 167.787619 
L 321.3 169.248319 
"/>
    <path clip-path="url(#p5b2f13b3eb)" d="M 401.563282 169.248319 
L 384.765232 169.248319 
L 385.495582 170.709019 
L 378.192082 168.517969 
L 385.495582 166.326919 
L 384.765232 167.787619 
L 401.563282 167.787619 
L 401.563282 169.248319 
"/>
    <path clip-path="url(#p5b2f13b3eb)" d="M 241.036718 137.143006 
L 239.819468 137.143006 
L 240.549818 138.603706 
L 233.246318 136.412656 
L 240.549818 134.221606 
L 239.819468 135.682306 
L 241.036718 135.682306 
L 241.036718 137.143006 
"/>
    <path clip-path="url(#p5b2f13b3eb)" d="M 321.3 137.143006 
L 320.08275 137.143006 
L 320.8131 138.603706 
L 313.5096 136.412656 
L 320.8131 134.221606 
L 320.08275 135.682306 
L 321.3 135.682306 
L 321.3 137.143006 
"/>
    <path clip-path="url(#p5b2f13b3eb)" d="M 401.563282 137.143006 
L 400.346032 137.143006 
L 401.076382 138.603706 
L 393.772882 136.412656 
L 401.076382 134.221606 
L 400.346032 135.682306 
L 401.563282 135.682306 
L 401.563282 137.143006 
"/>
    <path clip-path="url(#p5b2f13b3eb)" d="M 241.036718 103.576994 
L 242.253968 103.576994 
L 241.523618 102.116294 
L 248.827118 104.307344 
L 241.523618 106.498394 
L 242.253968 105.037694 
L 241.036718 105.037694 
L 241.036718 103.576994 
"/>
    <path clip-path="url(#p5b2f13b3eb)" d="M 321.3 103.576994 
L 322.51725 103.576994 
L 321.7869 102.116294 
L 329.0904 104.307344 
L 321.7869 106.498394 
L 322.51725 105.037694 
L 321.3 105.037694 
L 321.3 103.576994 
"/>
    <path clip-path="url(#p5b2f13b3eb)" d="M 401.563282 103.576994 
L 402.780532 103.576994 
L 402.050182 102.116294 
L 409.353682 104.307344 
L 402.050182 106.498394 
L 402.780532 105.037694 
L 401.563282 105.037694 
L 401.563282 103.576994 
"/>
    <path clip-path="url(#p5b2f13b3eb)" d="M 241.036718 71.471681 
L 257.834768 71.471681 
L 257.104418 70.010981 
L 264.407918 72.202031 
L 257.104418 74.393081 
L 257.834768 72.932381 
L 241.036718 72.932381 
L 241.036718 71.471681 
"/>
    <path clip-path="url(#p5b2f13b3eb)" d="M 321.3 71.471681 
L 338.09805 71.471681 
L 337.3677 70.010981 
L 344.6712 72.202031 
L 337.3677 74.393081 
L 338.09805 72.932381 
L 321.3 72.932381 
L 321.3 71.471681 
"/>
    <path clip-path="url(#p5b2f13b3eb)" d="M 401.563282 71.471681 
L 418.361332 71.471681 
L 417.630982 70.010981 
L 424.934482 72.202031 
L 417.630982 74.393081 
L 418.361332 72.932381 
L 401.563282 72.932381 
L 401.563282 71.471681 
"/>
    <path clip-path="url(#p5b2f13b3eb)" d="M 241.036718 39.366368 
L 273.415568 39.366368 
L 272.685218 37.905668 
L 279.988718 40.096718 
L 272.685218 42.287768 
L 273.415568 40.827068 
L 241.036718 40.827068 
L 241.036718 39.366368 
"/>
    <path clip-path="url(#p5b2f13b3eb)" d="M 321.3 39.366368 
L 353.67885 39.366368 
L 352.9485 37.905668 
L 360.252 40.096718 
L 352.9485 42.287768 
L 353.67885 40.827068 
L 321.3 40.827068 
L 321.3 39.366368 
"/>
    <path clip-path="url(#p5b2f13b3eb)" d="M 401.563282 39.366368 
L 433.942132 39.366368 
L 433.211782 37.905668 
L 440.515282 40.096718 
L 433.211782 42.287768 
L 433.942132 40.827068 
L 401.563282 40.827068 
L 401.563282 39.366368 
"/>
   </g>
   <g id="matplotlib.axis_5"/>
   <g id="matplotlib.axis_6"/>
   <g id="patch_13">
    <path d="M 223.92 208.08 
L 223.92 32.64 
" style="fill:none;stroke:#000000;stroke-linecap:square;stroke-linejoin:miter;stroke-width:0.8;"/>
   </g>
   <g id="patch_14">
    <path d="M 418.68 208.08 
L 418.68 32.64 
" style="fill:none;stroke:#000000;stroke-linecap:square;stroke-linejoin:miter;stroke-width:0.8;"/>
   </g>
   <g id="patch_15">
    <path d="M 223.92 208.08 
L 418.68 208.08 
" style="fill:none;stroke:#000000;stroke-linecap:square;stroke-linejoin:miter;stroke-width:0.8;"/>
   </g>
   <g id="patch_16">
    <path d="M 223.92 32.64 
L 418.68 32.64 
" style="fill:none;stroke:#000000;stroke-linecap:square;stroke-linejoin:miter;stroke-width:0.8;"/>
   </g>
   <g id="text_3">
    <!-- 2 -->
    <defs>
     <path d="M 19.1875 8.296875 
L 53.609375 8.296875 
L 53.609375 0 
L 7.328125 0 
L 7.328125 8.296875 
Q 12.9375 14.109375 22.625 23.890625 
Q 32.328125 33.6875 34.8125 36.53125 
Q 39.546875 41.84375 41.421875 45.53125 
Q 43.3125 49.21875 43.3125 52.78125 
Q 43.3125 58.59375 39.234375 62.25 
Q 35.15625 65.921875 28.609375 65.921875 
Q 23.96875 65.921875 18.8125 64.3125 
Q 13.671875 62.703125 7.8125 59.421875 
L 7.8125 69.390625 
Q 13.765625 71.78125 18.9375 73 
Q 24.125 74.21875 28.421875 74.21875 
Q 39.75 74.21875 46.484375 68.546875 
Q 53.21875 62.890625 53.21875 53.421875 
Q 53.21875 48.921875 51.53125 44.890625 
Q 49.859375 40.875 45.40625 35.40625 
Q 44.1875 33.984375 37.640625 27.21875 
Q 31.109375 20.453125 19.1875 8.296875 
z
" id="DejaVuSans-32"/>
    </defs>
    <g transform="translate(314.9375 26.64)scale(0.2 -0.2)">
     <use xlink:href="#DejaVuSans-32"/>
    </g>
   </g>
  </g>
  <g id="axes_4">
   <g id="patch_17">
    <path d="M 223.92 418.68 
L 418.68 418.68 
L 418.68 243.24 
L 223.92 243.24 
z
" style="fill:#ffffff;"/>
   </g>
   <g id="Quiver_4">
    <path clip-path="url(#pbb54386308)" d="M 241.036718 410.492932 
L 273.415568 410.492932 
L 272.685218 409.032232 
L 279.988718 411.223282 
L 272.685218 413.414332 
L 273.415568 411.953632 
L 241.036718 411.953632 
L 241.036718 410.492932 
"/>
    <path clip-path="url(#pbb54386308)" d="M 321.3 410.492932 
L 353.67885 410.492932 
L 352.9485 409.032232 
L 360.252 411.223282 
L 352.9485 413.414332 
L 353.67885 411.953632 
L 321.3 411.953632 
L 321.3 410.492932 
"/>
    <path clip-path="url(#pbb54386308)" d="M 401.563282 410.492932 
L 433.942132 410.492932 
L 433.211782 409.032232 
L 440.515282 411.223282 
L 433.211782 413.414332 
L 433.942132 411.953632 
L 401.563282 411.953632 
L 401.563282 410.492932 
"/>
    <path clip-path="url(#pbb54386308)" d="M 241.036718 378.387619 
L 257.834768 378.387619 
L 257.104418 376.926919 
L 264.407918 379.117969 
L 257.104418 381.309019 
L 257.834768 379.848319 
L 241.036718 379.848319 
L 241.036718 378.387619 
"/>
    <path clip-path="url(#pbb54386308)" d="M 321.3 378.387619 
L 338.09805 378.387619 
L 337.3677 376.926919 
L 344.6712 379.117969 
L 337.3677 381.309019 
L 338.09805 379.848319 
L 321.3 379.848319 
L 321.3 378.387619 
"/>
    <path clip-path="url(#pbb54386308)" d="M 401.563282 378.387619 
L 418.361332 378.387619 
L 417.630982 376.926919 
L 424.934482 379.117969 
L 417.630982 381.309019 
L 418.361332 379.848319 
L 401.563282 379.848319 
L 401.563282 378.387619 
"/>
    <path clip-path="url(#pbb54386308)" d="M 241.036718 346.282306 
L 242.253968 346.282306 
L 241.523618 344.821606 
L 248.827118 347.012656 
L 241.523618 349.203706 
L 242.253968 347.743006 
L 241.036718 347.743006 
L 241.036718 346.282306 
"/>
    <path clip-path="url(#pbb54386308)" d="M 321.3 346.282306 
L 322.51725 346.282306 
L 321.7869 344.821606 
L 329.0904 347.012656 
L 321.7869 349.203706 
L 322.51725 347.743006 
L 321.3 347.743006 
L 321.3 346.282306 
"/>
    <path clip-path="url(#pbb54386308)" d="M 401.563282 346.282306 
L 402.780532 346.282306 
L 402.050182 344.821606 
L 409.353682 347.012656 
L 402.050182 349.203706 
L 402.780532 347.743006 
L 401.563282 347.743006 
L 401.563282 346.282306 
"/>
    <path clip-path="url(#pbb54386308)" d="M 241.036718 314.176994 
L 242.253968 314.176994 
L 241.523618 312.716294 
L 248.827118 314.907344 
L 241.523618 317.098394 
L 242.253968 315.637694 
L 241.036718 315.637694 
L 241.036718 314.176994 
"/>
    <path clip-path="url(#pbb54386308)" d="M 321.3 314.176994 
L 322.51725 314.176994 
L 321.7869 312.716294 
L 329.0904 314.907344 
L 321.7869 317.098394 
L 322.51725 315.637694 
L 321.3 315.637694 
L 321.3 314.176994 
"/>
    <path clip-path="url(#pbb54386308)" d="M 401.563282 314.176994 
L 402.780532 314.176994 
L 402.050182 312.716294 
L 409.353682 314.907344 
L 402.050182 317.098394 
L 402.780532 315.637694 
L 401.563282 315.637694 
L 401.563282 314.176994 
"/>
    <path clip-path="url(#pbb54386308)" d="M 241.036718 282.071681 
L 257.834768 282.071681 
L 257.104418 280.610981 
L 264.407918 282.802031 
L 257.104418 284.993081 
L 257.834768 283.532381 
L 241.036718 283.532381 
L 241.036718 282.071681 
"/>
    <path clip-path="url(#pbb54386308)" d="M 321.3 282.071681 
L 338.09805 282.071681 
L 337.3677 280.610981 
L 344.6712 282.802031 
L 337.3677 284.993081 
L 338.09805 283.532381 
L 321.3 283.532381 
L 321.3 282.071681 
"/>
    <path clip-path="url(#pbb54386308)" d="M 401.563282 282.071681 
L 418.361332 282.071681 
L 417.630982 280.610981 
L 424.934482 282.802031 
L 417.630982 284.993081 
L 418.361332 283.532381 
L 401.563282 283.532381 
L 401.563282 282.071681 
"/>
    <path clip-path="url(#pbb54386308)" d="M 241.036718 249.966368 
L 273.415568 249.966368 
L 272.685218 248.505668 
L 279.988718 250.696718 
L 272.685218 252.887768 
L 273.415568 251.427068 
L 241.036718 251.427068 
L 241.036718 249.966368 
"/>
    <path clip-path="url(#pbb54386308)" d="M 321.3 249.966368 
L 353.67885 249.966368 
L 352.9485 248.505668 
L 360.252 250.696718 
L 352.9485 252.887768 
L 353.67885 251.427068 
L 321.3 251.427068 
L 321.3 249.966368 
"/>
    <path clip-path="url(#pbb54386308)" d="M 401.563282 249.966368 
L 433.942132 249.966368 
L 433.211782 248.505668 
L 440.515282 250.696718 
L 433.211782 252.887768 
L 433.942132 251.427068 
L 401.563282 251.427068 
L 401.563282 249.966368 
"/>
   </g>
   <g id="matplotlib.axis_7"/>
   <g id="matplotlib.axis_8"/>
   <g id="patch_18">
    <path d="M 223.92 418.68 
L 223.92 243.24 
" style="fill:none;stroke:#000000;stroke-linecap:square;stroke-linejoin:miter;stroke-width:0.8;"/>
   </g>
   <g id="patch_19">
    <path d="M 418.68 418.68 
L 418.68 243.24 
" style="fill:none;stroke:#000000;stroke-linecap:square;stroke-linejoin:miter;stroke-width:0.8;"/>
   </g>
   <g id="patch_20">
    <path d="M 223.92 418.68 
L 418.68 418.68 
" style="fill:none;stroke:#000000;stroke-linecap:square;stroke-linejoin:miter;stroke-width:0.8;"/>
   </g>
   <g id="patch_21">
    <path d="M 223.92 243.24 
L 418.68 243.24 
" style="fill:none;stroke:#000000;stroke-linecap:square;stroke-linejoin:miter;stroke-width:0.8;"/>
   </g>
   <g id="text_4">
    <!-- 4 -->
    <defs>
     <path d="M 37.796875 64.3125 
L 12.890625 25.390625 
L 37.796875 25.390625 
z
M 35.203125 72.90625 
L 47.609375 72.90625 
L 47.609375 25.390625 
L 58.015625 25.390625 
L 58.015625 17.1875 
L 47.609375 17.1875 
L 47.609375 0 
L 37.796875 0 
L 37.796875 17.1875 
L 4.890625 17.1875 
L 4.890625 26.703125 
z
" id="DejaVuSans-34"/>
    </defs>
    <g transform="translate(314.9375 237.24)scale(0.2 -0.2)">
     <use xlink:href="#DejaVuSans-34"/>
    </g>
   </g>
  </g>
 </g>
 <defs>
  <clipPath id="p99e79af608">
   <rect height="175.44" width="194.76" x="13.32" y="32.64"/>
  </clipPath>
  <clipPath id="p9262a30947">
   <rect height="175.44" width="194.76" x="13.32" y="243.24"/>
  </clipPath>
  <clipPath id="p5b2f13b3eb">
   <rect height="175.44" width="194.76" x="223.92" y="32.64"/>
  </clipPath>
  <clipPath id="pbb54386308">
   <rect height="175.44" width="194.76" x="223.92" y="243.24"/>
  </clipPath>
 </defs>
</svg>
