<?xml version="1.0" encoding="UTF-8"?>
<!DOCTYPE svg PUBLIC "-//W3C//DTD SVG 1.1//EN" "http://www.w3.org/Graphics/SVG/1.1/DTD/svg11.dtd">
<svg version="1.1" xmlns="http://www.w3.org/2000/svg" xmlns:xlink="http://www.w3.org/1999/xlink" x="0" y="0" width="637.795" height="425.197" viewBox="0, 0, 637.795, 425.197">
  <g id="Background">
    <rect x="0" y="0" width="637.795" height="425.197" fill="#FFFFFF"/>
  </g>
  <g id="Layer_1">
    <g id="grad_skalarfelt_pcolor">
      <path d="M208,428 L640,428 L640,-4 L208,-4 z" fill="#FFFFFF"/>
      <g id="axes_1">
        <path d="M221.32,204.08 L416.08,204.08 L416.08,22.88 L221.32,22.88 z" fill="#FFFFFF"/>
        <g id="Quiver_1">
          <path d="M235.285,195.862 L236.318,196.895 L229.133,204.08 L227.067,204.08 L235.285,195.862 z" fill="#000000"/>
          <path d="M268.343,195.988 L269.578,196.768 L264.961,204.08 L263.233,204.08 L268.343,195.988 z" fill="#000000"/>
          <path d="M301.406,196.228 L302.835,196.529 L301.245,204.08 L299.753,204.08 L301.406,196.228 z" fill="#000000"/>
          <path d="M335.994,196.228 L337.647,204.08 L336.155,204.08 L334.565,196.529 L335.994,196.228 z" fill="#000000"/>
          <path d="M369.057,195.988 L374.167,204.08 L372.439,204.08 L367.822,196.768 L369.057,195.988 z" fill="#000000"/>
          <path d="M402.115,195.862 L410.333,204.08 L408.267,204.08 L401.082,196.895 L402.115,195.862 z" fill="#000000"/>
          <path d="M235.412,162.602 L236.192,163.837 L221.32,173.229 L221.32,171.501 L235.412,162.602 z" fill="#000000"/>
          <path d="M269.477,163.736 L250.754,182.459 L252.303,182.975 L245.59,186.59 L249.205,179.877 L249.721,181.426 L268.444,162.703 L269.477,163.736" fill="#000000"/>
          <path d="M302.813,163.45 L297.101,180.585 L298.718,180.354 L294.33,186.59 L294.561,178.969 L295.716,180.123 L301.427,162.988 L302.813,163.45" fill="#000000"/>
          <path d="M335.973,162.988 L341.684,180.123 L342.839,178.969 L343.07,186.59 L338.682,180.354 L340.299,180.585 L334.587,163.45 L335.973,162.988" fill="#000000"/>
          <path d="M368.956,162.703 L387.679,181.426 L388.195,179.877 L391.81,186.59 L385.097,182.975 L386.646,182.459 L367.923,163.736 L368.956,162.703" fill="#000000"/>
          <path d="M401.988,162.602 L416.08,171.502 L416.08,173.229 L401.208,163.837 L401.988,162.602 z" fill="#000000"/>
          <path d="M235.651,129.345 L235.952,130.774 L221.32,133.855 L221.32,132.362 L235.651,129.345 z" fill="#000000"/>
          <path d="M269.192,130.753 L252.057,136.464 L253.211,137.619 L245.59,137.85 L251.826,133.462 L251.595,135.079 L268.73,129.367 L269.192,130.753" fill="#000000"/>
          <path d="M302.637,130.576 L299.494,133.719 L301.044,134.235 L294.33,137.85 L297.945,131.136 L298.461,132.686 L301.604,129.543 L302.637,130.576" fill="#000000"/>
          <path d="M335.796,129.543 L338.939,132.686 L339.455,131.136 L343.07,137.85 L336.356,134.235 L337.906,133.719 L334.763,130.576 L335.796,129.543" fill="#000000"/>
          <path d="M368.67,129.367 L385.805,135.079 L385.574,133.462 L391.81,137.85 L384.189,137.619 L385.344,136.464 L368.208,130.753 L368.67,129.367" fill="#000000"/>
          <path d="M401.749,129.345 L416.08,132.362 L416.08,133.855 L401.448,130.774 L401.749,129.345 z" fill="#000000"/>
          <path d="M221.32,93.105 L235.952,96.186 L235.651,97.615 L221.32,94.598 L221.32,93.105 z" fill="#000000"/>
          <path d="M268.73,97.593 L251.595,91.881 L251.826,93.498 L245.59,89.11 L253.211,89.341 L252.057,90.496 L269.192,96.207 L268.73,97.593" fill="#000000"/>
          <path d="M301.604,97.417 L298.461,94.274 L297.945,95.824 L294.33,89.11 L301.044,92.725 L299.494,93.241 L302.637,96.384 L301.604,97.417" fill="#000000"/>
          <path d="M334.763,96.384 L337.906,93.241 L336.356,92.725 L343.07,89.11 L339.455,95.824 L338.939,94.274 L335.796,97.417 L334.763,96.384" fill="#000000"/>
          <path d="M368.208,96.207 L385.344,90.496 L384.189,89.341 L391.81,89.11 L385.574,93.498 L385.805,91.881 L368.67,97.593 L368.208,96.207" fill="#000000"/>
          <path d="M416.08,93.105 L416.08,94.598 L401.749,97.615 L401.448,96.186 L416.08,93.105 z" fill="#000000"/>
          <path d="M221.32,53.731 L236.192,63.123 L235.412,64.358 L221.32,55.458 L221.32,53.731 z" fill="#000000"/>
          <path d="M268.444,64.257 L249.721,45.534 L249.205,47.083 L245.59,40.37 L252.303,43.985 L250.754,44.501 L269.477,63.224 L268.444,64.257" fill="#000000"/>
          <path d="M301.427,63.972 L295.716,46.837 L294.561,47.991 L294.33,40.37 L298.718,46.606 L297.101,46.375 L302.813,63.51 L301.427,63.972" fill="#000000"/>
          <path d="M334.587,63.51 L340.299,46.375 L338.682,46.606 L343.07,40.37 L342.839,47.991 L341.684,46.837 L335.973,63.972 L334.587,63.51" fill="#000000"/>
          <path d="M367.923,63.224 L386.646,44.501 L385.097,43.985 L391.81,40.37 L388.195,47.083 L387.679,45.534 L368.956,64.257 L367.923,63.224" fill="#000000"/>
          <path d="M416.08,53.731 L416.08,55.458 L401.988,64.358 L401.208,63.123 L416.08,53.731 z" fill="#000000"/>
          <path d="M229.133,22.88 L236.318,30.065 L235.285,31.098 L227.067,22.88 L229.133,22.88 z" fill="#000000"/>
          <path d="M264.961,22.88 L269.578,30.192 L268.343,30.972 L263.233,22.88 L264.961,22.88 z" fill="#000000"/>
          <path d="M301.245,22.88 L302.835,30.431 L301.406,30.732 L299.753,22.88 L301.245,22.88 z" fill="#000000"/>
          <path d="M337.647,22.88 L335.994,30.732 L334.565,30.431 L336.155,22.88 L337.647,22.88 z" fill="#000000"/>
          <path d="M374.167,22.88 L369.057,30.972 L367.822,30.192 L372.439,22.88 L374.167,22.88 z" fill="#000000"/>
          <path d="M410.333,22.88 L402.115,31.098 L401.082,30.065 L408.267,22.88 L410.333,22.88 z" fill="#000000"/>
        </g>
        <path d="M221.82,204.58 L221.82,23.38" fill-opacity="0" stroke="#000000" stroke-width="0.8" stroke-linecap="square"/>
        <path d="M416.58,204.58 L416.58,23.38" fill-opacity="0" stroke="#000000" stroke-width="0.8" stroke-linecap="square"/>
        <path d="M221.82,204.58 L416.58,204.58" fill-opacity="0" stroke="#000000" stroke-width="0.8" stroke-linecap="square"/>
        <path d="M221.82,23.38 L416.58,23.38" fill-opacity="0" stroke="#000000" stroke-width="0.8" stroke-linecap="square"/>
        <path d="M318.698,9.297 L317.091,13.651 L320.309,13.651 z M318.029,8.131 L319.371,8.131 L322.705,16.88 L321.475,16.88 L320.678,14.636 L316.735,14.636 L315.938,16.88 L314.689,16.88 z" fill="#000000" id="DejaVuSans-41"/>
      </g>
      <g id="axes_2">
        <path d="M431.92,204.08 L626.68,204.08 L626.68,22.88 L431.92,22.88 z" fill="#FFFFFF"/>
        <g id="Quiver_2">
          <path d="M446.918,195.862 L449.805,198.749 L450.322,197.2 L453.937,203.914 L447.223,200.299 L448.772,199.782 L445.885,196.895 L446.918,195.862" fill="#000000"/>
          <path d="M479.981,195.781 L485.312,199.533 L485.556,197.918 L490.267,203.914 L483.034,201.502 L484.472,200.728 L479.141,196.976 L479.981,195.781" fill="#000000"/>
          <path d="M513.032,195.718 L523.059,200.449 L523.022,198.816 L528.693,203.914 L521.152,202.779 L522.436,201.77 L512.409,197.039 L513.032,195.718" fill="#000000"/>
          <path d="M546.1,195.682 L563.66,201.235 L563.404,199.623 L569.707,203.914 L562.083,203.801 L563.22,202.628 L545.659,197.075 L546.1,195.682" fill="#000000"/>
          <path d="M579.19,195.664 L608.307,201.836 L607.895,200.256 L614.586,203.914 L612.578,204.08 L607.355,204.08 L608.004,203.265 L578.888,197.093 L579.19,195.664 z" fill="#000000"/>
          <path d="M612.307,195.656 L626.68,197.806 L626.68,199.283 L612.09,197.101 L612.307,195.656 z" fill="#000000"/>
          <path d="M446.999,162.799 L450.751,168.13 L451.525,166.692 L453.937,173.926 L447.942,169.214 L449.556,168.971 L445.804,163.639 L446.999,162.799" fill="#000000"/>
          <path d="M480.077,162.703 L486.136,168.761 L486.652,167.212 L490.267,173.926 L483.554,170.311 L485.103,169.794 L479.044,163.736 L480.077,162.703" fill="#000000"/>
          <path d="M513.127,162.612 L523.639,169.659 L523.846,168.039 L528.693,173.926 L521.406,171.679 L522.826,170.872 L512.314,163.826 L513.127,162.612" fill="#000000"/>
          <path d="M546.179,162.553 L564.011,170.565 L563.944,168.934 L569.707,173.926 L562.147,172.931 L563.412,171.898 L545.58,163.885 L546.179,162.553" fill="#000000"/>
          <path d="M579.25,162.52 L608.503,171.331 L608.225,169.721 L614.586,173.926 L606.961,173.917 L608.081,172.729 L578.828,163.918 L579.25,162.52" fill="#000000"/>
          <path d="M612.35,162.505 L626.68,165.55 L626.68,167.043 L612.047,163.933 L612.35,162.505 z" fill="#000000"/>
          <path d="M447.062,129.748 L451.793,139.775 L452.802,138.492 L453.937,146.032 L448.839,140.361 L450.472,140.399 L445.741,130.371 L447.062,129.748" fill="#000000"/>
          <path d="M480.168,129.653 L487.214,140.165 L488.021,138.745 L490.267,146.032 L484.381,141.185 L486.001,140.979 L478.954,130.466 L480.168,129.653" fill="#000000"/>
          <path d="M513.237,129.543 L524.561,140.868 L525.077,139.318 L528.693,146.032 L521.979,142.417 L523.528,141.9 L512.204,130.576 L513.237,129.543" fill="#000000"/>
          <path d="M546.286,129.453 L564.654,141.765 L564.861,140.145 L569.707,146.032 L562.421,143.785 L563.841,142.979 L545.473,130.666 L546.286,129.453" fill="#000000"/>
          <path d="M579.338,129.394 L608.89,142.672 L608.822,141.04 L614.586,146.032 L607.026,145.037 L608.291,144.004 L578.74,130.726 L579.338,129.394" fill="#000000"/>
          <path d="M612.419,129.363 L626.68,133.885 L626.68,135.417 L611.978,130.756 L612.419,129.363 z" fill="#000000"/>
          <path d="M447.098,96.68 L452.651,114.241 L453.824,113.104 L453.937,120.728 L449.646,114.425 L451.259,114.681 L445.705,97.121 L447.098,96.68" fill="#000000"/>
          <path d="M480.227,96.601 L488.24,114.433 L489.273,113.168 L490.267,120.728 L485.275,114.964 L486.907,115.032 L478.895,97.2 L480.227,96.601" fill="#000000"/>
          <path d="M513.327,96.494 L525.639,114.861 L526.446,113.441 L528.693,120.728 L522.806,115.881 L524.426,115.675 L512.114,97.307 L513.327,96.494" fill="#000000"/>
          <path d="M546.396,96.384 L565.576,115.564 L566.092,114.014 L569.707,120.728 L562.994,117.113 L564.543,116.597 L545.363,97.417 L546.396,96.384" fill="#000000"/>
          <path d="M579.446,96.294 L609.533,116.461 L609.739,114.841 L614.586,120.728 L607.299,118.481 L608.719,117.675 L578.632,97.507 L579.446,96.294" fill="#000000"/>
          <path d="M612.511,96.24 L626.68,102.941 L626.68,104.557 L611.886,97.561 L612.511,96.24 z" fill="#000000"/>
          <path d="M447.116,63.589 L453.288,92.706 L454.566,91.689 L453.937,99.288 L450.279,92.597 L451.859,93.009 L445.687,63.892 L447.116,63.589" fill="#000000"/>
          <path d="M480.26,63.53 L489.071,92.783 L490.259,91.663 L490.267,99.288 L486.063,92.926 L487.672,93.204 L478.862,63.952 L480.26,63.53" fill="#000000"/>
          <path d="M513.386,63.442 L526.665,92.993 L527.698,91.728 L528.693,99.288 L523.701,93.524 L525.332,93.591 L512.054,64.04 L513.386,63.442" fill="#000000"/>
          <path d="M546.486,63.334 L566.654,93.421 L567.461,92.001 L569.707,99.288 L563.821,94.441 L565.441,94.234 L545.273,64.148 L546.486,63.334" fill="#000000"/>
          <path d="M579.556,63.224 L610.454,94.123 L610.971,92.574 L614.586,99.288 L607.872,95.673 L609.422,95.156 L578.523,64.257 L579.556,63.224" fill="#000000"/>
          <path d="M612.62,63.144 L626.68,73.065 L626.68,74.852 L611.777,64.338 L612.62,63.144 z" fill="#000000"/>
          <path d="M447.124,30.473 L453.687,74.353 L455.023,73.415 L453.937,80.962 L450.69,74.063 L452.242,74.569 L445.679,30.69 L447.124,30.473" fill="#000000"/>
          <path d="M480.275,30.43 L489.615,74.38 L490.892,73.362 L490.267,80.962 L486.606,74.273 L488.187,74.684 L478.847,30.733 L480.275,30.43" fill="#000000"/>
          <path d="M513.417,30.361 L527.402,74.475 L528.574,73.338 L528.693,80.962 L524.397,74.662 L526.01,74.917 L512.024,30.802 L513.417,30.361" fill="#000000"/>
          <path d="M546.54,30.269 L567.557,74.707 L568.565,73.423 L569.707,80.962 L564.604,75.296 L566.237,75.332 L545.219,30.894 L546.54,30.269" fill="#000000"/>
          <path d="M579.636,30.16 L611.393,75.17 L612.166,73.731 L614.586,80.962 L608.585,76.257 L610.2,76.012 L578.442,31.003 L579.636,30.16" fill="#000000"/>
          <path d="M612.715,30.065 L626.68,44.03 L626.68,46.096 L611.682,31.098 L612.715,30.065 z" fill="#000000"/>
        </g>
        <path d="M432.42,204.58 L432.42,23.38" fill-opacity="0" stroke="#000000" stroke-width="0.8" stroke-linecap="square"/>
        <path d="M627.18,204.58 L627.18,23.38" fill-opacity="0" stroke="#000000" stroke-width="0.8" stroke-linecap="square"/>
        <path d="M432.42,204.58 L627.18,204.58" fill-opacity="0" stroke="#000000" stroke-width="0.8" stroke-linecap="square"/>
        <path d="M432.42,23.38 L627.18,23.38" fill-opacity="0" stroke="#000000" stroke-width="0.8" stroke-linecap="square"/>
        <path d="M527.544,12.702 L527.544,15.907 L529.443,15.907 Q530.398,15.907 530.857,15.511 Q531.318,15.116 531.318,14.302 Q531.318,13.481 530.857,13.092 Q530.398,12.702 529.443,12.702 z M527.544,9.104 L527.544,11.741 L529.297,11.741 Q530.163,11.741 530.587,11.416 Q531.013,11.09 531.013,10.422 Q531.013,9.761 530.587,9.432 Q530.163,9.104 529.297,9.104 z M526.361,8.131 L529.385,8.131 Q530.739,8.131 531.47,8.694 Q532.203,9.256 532.203,10.293 Q532.203,11.097 531.828,11.572 Q531.453,12.046 530.726,12.162 Q531.6,12.35 532.083,12.946 Q532.567,13.541 532.567,14.431 Q532.567,15.603 531.77,16.242 Q530.973,16.88 529.502,16.88 L526.361,16.88 z" fill="#000000" id="DejaVuSans-42"/>
      </g>
      <g id="axes_3">
        <path d="M221.32,414.68 L416.08,414.68 L416.08,233.48 L221.32,233.48 z" fill="#FFFFFF"/>
        <g id="Quiver_3">
          <path d="M235.285,406.462 L236.153,405.595 L234.603,405.078 L241.317,401.463 L237.702,408.177 L237.185,406.627 L236.318,407.495 L235.285,406.462" fill="#000000"/>
          <path d="M268.326,406.617 L271.028,401.87 L269.397,401.782 L274.914,396.519 L273.206,403.95 L272.297,402.593 L269.596,407.34 L268.326,406.617" fill="#000000"/>
          <path d="M301.403,406.843 L302.907,398.897 L301.336,399.342 L304.847,392.574 L305.642,400.158 L304.342,399.168 L302.838,407.114 L301.403,406.843" fill="#000000"/>
          <path d="M334.562,407.114 L333.058,399.168 L331.758,400.158 L332.553,392.574 L336.064,399.342 L334.493,398.897 L335.997,406.843 L334.562,407.114" fill="#000000"/>
          <path d="M367.804,407.34 L365.103,402.593 L364.194,403.95 L362.486,396.519 L368.003,401.782 L366.372,401.87 L369.074,406.617 L367.804,407.34" fill="#000000"/>
          <path d="M401.082,407.495 L400.215,406.627 L399.698,408.177 L396.083,401.463 L402.797,405.078 L401.247,405.595 L402.115,406.462 L401.082,407.495" fill="#000000"/>
          <path d="M235.44,373.184 L240.187,370.483 L238.83,369.574 L246.261,367.866 L240.998,373.383 L240.91,371.752 L236.163,374.454 L235.44,373.184" fill="#000000"/>
          <path d="M268.444,373.303 L275.086,366.661 L273.537,366.144 L280.251,362.529 L276.636,369.243 L276.119,367.694 L269.477,374.336 L268.444,373.303" fill="#000000"/>
          <path d="M301.427,373.589 L304.524,364.278 L302.908,364.51 L307.292,358.272 L307.066,365.893 L305.91,364.739 L302.813,374.05 L301.427,373.589" fill="#000000"/>
          <path d="M334.587,374.05 L331.49,364.739 L330.334,365.893 L330.108,358.272 L334.492,364.51 L332.876,364.278 L335.973,373.589 L334.587,374.05" fill="#000000"/>
          <path d="M367.923,374.336 L361.281,367.694 L360.764,369.243 L357.149,362.529 L363.863,366.144 L362.314,366.661 L368.956,373.303 L367.923,374.336" fill="#000000"/>
          <path d="M401.237,374.454 L396.49,371.752 L396.402,373.383 L391.139,367.866 L398.57,369.574 L397.213,370.483 L401.96,373.184 L401.237,374.454" fill="#000000"/>
          <path d="M235.666,339.942 L243.612,338.438 L242.622,337.138 L250.206,337.933 L243.438,341.444 L243.883,339.873 L235.937,341.377 L235.666,339.942" fill="#000000"/>
          <path d="M268.73,339.967 L278.041,336.87 L276.887,335.714 L284.508,335.488 L278.27,339.872 L278.502,338.256 L269.191,341.353 L268.73,339.967" fill="#000000"/>
          <path d="M301.604,340.143 L304.078,337.669 L302.528,337.153 L309.242,333.538 L305.627,340.252 L305.111,338.702 L302.637,341.176 L301.604,340.143" fill="#000000"/>
          <path d="M334.763,341.176 L332.289,338.702 L331.773,340.252 L328.158,333.538 L334.872,337.153 L333.322,337.669 L335.796,340.143 L334.763,341.176" fill="#000000"/>
          <path d="M368.209,341.353 L358.898,338.256 L359.13,339.872 L352.892,335.488 L360.513,335.714 L359.359,336.87 L368.67,339.967 L368.209,341.353" fill="#000000"/>
          <path d="M401.463,341.377 L393.517,339.873 L393.962,341.444 L387.194,337.933 L394.778,337.138 L393.788,338.438 L401.734,339.942 L401.463,341.377" fill="#000000"/>
          <path d="M235.937,306.783 L243.883,308.287 L243.438,306.716 L250.206,310.227 L242.622,311.022 L243.612,309.722 L235.666,308.218 L235.937,306.783" fill="#000000"/>
          <path d="M269.191,306.807 L278.502,309.904 L278.27,308.288 L284.508,312.672 L276.887,312.446 L278.041,311.29 L268.73,308.193 L269.191,306.807" fill="#000000"/>
          <path d="M302.637,306.984 L305.111,309.458 L305.627,307.908 L309.242,314.622 L302.528,311.007 L304.078,310.491 L301.604,308.017 L302.637,306.984" fill="#000000"/>
          <path d="M335.796,308.017 L333.322,310.491 L334.872,311.007 L328.158,314.622 L331.773,307.908 L332.289,309.458 L334.763,306.984 L335.796,308.017" fill="#000000"/>
          <path d="M368.67,308.193 L359.359,311.29 L360.513,312.446 L352.892,312.672 L359.13,308.288 L358.898,309.904 L368.209,306.807 L368.67,308.193" fill="#000000"/>
          <path d="M401.734,308.218 L393.788,309.722 L394.778,311.022 L387.194,310.227 L393.962,306.716 L393.517,308.287 L401.463,306.783 L401.734,308.218" fill="#000000"/>
          <path d="M236.163,273.706 L240.91,276.408 L240.998,274.777 L246.261,280.294 L238.83,278.586 L240.187,277.677 L235.44,274.976 L236.163,273.706" fill="#000000"/>
          <path d="M269.477,273.824 L276.119,280.466 L276.636,278.917 L280.251,285.631 L273.537,282.016 L275.086,281.499 L268.444,274.857 L269.477,273.824" fill="#000000"/>
          <path d="M302.813,274.11 L305.91,283.421 L307.066,282.267 L307.292,289.888 L302.908,283.65 L304.524,283.882 L301.427,274.571 L302.813,274.11" fill="#000000"/>
          <path d="M335.973,274.571 L332.876,283.882 L334.492,283.65 L330.108,289.888 L330.334,282.267 L331.49,283.421 L334.587,274.11 L335.973,274.571" fill="#000000"/>
          <path d="M368.956,274.857 L362.314,281.499 L363.863,282.016 L357.149,285.631 L360.764,278.917 L361.281,280.466 L367.923,273.824 L368.956,274.857" fill="#000000"/>
          <path d="M401.96,274.976 L397.213,277.677 L398.57,278.586 L391.139,280.294 L396.402,274.777 L396.49,276.408 L401.237,273.706 L401.96,274.976" fill="#000000"/>
          <path d="M236.318,240.665 L237.185,241.533 L237.702,239.983 L241.317,246.697 L234.603,243.082 L236.153,242.565 L235.285,241.698 L236.318,240.665" fill="#000000"/>
          <path d="M269.596,240.82 L272.297,245.567 L273.206,244.21 L274.914,251.641 L269.397,246.378 L271.028,246.29 L268.326,241.543 L269.596,240.82" fill="#000000"/>
          <path d="M302.838,241.046 L304.342,248.992 L305.642,248.002 L304.847,255.586 L301.336,248.818 L302.907,249.263 L301.403,241.317 L302.838,241.046" fill="#000000"/>
          <path d="M335.997,241.317 L334.493,249.263 L336.064,248.818 L332.553,255.586 L331.758,248.002 L333.058,248.992 L334.562,241.046 L335.997,241.317" fill="#000000"/>
          <path d="M369.074,241.543 L366.372,246.29 L368.003,246.378 L362.486,251.641 L364.194,244.21 L365.103,245.567 L367.804,240.82 L369.074,241.543" fill="#000000"/>
          <path d="M402.115,241.698 L401.247,242.565 L402.797,243.082 L396.083,246.697 L399.698,239.983 L400.215,241.533 L401.082,240.665 L402.115,241.698" fill="#000000"/>
        </g>
        <path d="M221.82,415.18 L221.82,233.98" fill-opacity="0" stroke="#000000" stroke-width="0.8" stroke-linecap="square"/>
        <path d="M416.58,415.18 L416.58,233.98" fill-opacity="0" stroke="#000000" stroke-width="0.8" stroke-linecap="square"/>
        <path d="M221.82,415.18 L416.58,415.18" fill-opacity="0" stroke="#000000" stroke-width="0.8" stroke-linecap="square"/>
        <path d="M221.82,233.98 L416.58,233.98" fill-opacity="0" stroke="#000000" stroke-width="0.8" stroke-linecap="square"/>
        <path d="M322.239,219.406 L322.239,220.653 Q321.641,220.096 320.964,219.823 Q320.287,219.547 319.526,219.547 Q318.026,219.547 317.229,220.464 Q316.432,221.381 316.432,223.115 Q316.432,224.844 317.229,225.761 Q318.026,226.678 319.526,226.678 Q320.287,226.678 320.964,226.402 Q321.641,226.126 322.239,225.569 L322.239,226.807 Q321.618,227.229 320.923,227.441 Q320.229,227.651 319.457,227.651 Q317.469,227.651 316.325,226.436 Q315.183,225.219 315.183,223.115 Q315.183,221.006 316.325,219.791 Q317.469,218.574 319.457,218.574 Q320.24,218.574 320.934,218.782 Q321.63,218.99 322.239,219.406 z" fill="#000000" id="DejaVuSans-43"/>
      </g>
      <g id="axes_4">
        <path d="M431.92,414.68 L626.68,414.68 L626.68,233.48 L431.92,233.48 z" fill="#FFFFFF"/>
        <g id="Quiver_4">
          <path d="M445.885,406.462 L460.713,391.634 L459.164,391.118 L465.878,387.502 L462.262,394.216 L461.746,392.667 L446.918,407.495 L445.885,406.462" fill="#000000"/>
          <path d="M479.044,406.462 L493.873,391.634 L492.323,391.118 L499.037,387.502 L495.422,394.216 L494.905,392.667 L480.077,407.495 L479.044,406.462" fill="#000000"/>
          <path d="M512.204,406.462 L527.032,391.634 L525.483,391.118 L532.196,387.502 L528.581,394.216 L528.065,392.667 L513.237,407.495 L512.204,406.462" fill="#000000"/>
          <path d="M545.363,406.462 L560.191,391.634 L558.642,391.118 L565.356,387.502 L561.741,394.216 L561.224,392.667 L546.396,407.495 L545.363,406.462" fill="#000000"/>
          <path d="M578.523,406.462 L593.351,391.634 L591.801,391.118 L598.515,387.502 L594.9,394.216 L594.384,392.667 L579.555,407.495 L578.523,406.462" fill="#000000"/>
          <path d="M626.68,390.192 L626.68,393.53 L612.715,407.495 L611.682,406.462 L626.51,391.634 L624.961,391.117 L626.68,390.192 z" fill="#000000"/>
          <path d="M445.885,373.303 L460.713,358.475 L459.164,357.958 L465.878,354.343 L462.262,361.057 L461.746,359.507 L446.918,374.336 L445.885,373.303" fill="#000000"/>
          <path d="M479.044,373.303 L493.873,358.475 L492.323,357.958 L499.037,354.343 L495.422,361.057 L494.905,359.507 L480.077,374.336 L479.044,373.303" fill="#000000"/>
          <path d="M512.204,373.303 L527.032,358.475 L525.483,357.958 L532.196,354.343 L528.581,361.057 L528.065,359.507 L513.237,374.336 L512.204,373.303" fill="#000000"/>
          <path d="M545.363,373.303 L560.191,358.475 L558.642,357.958 L565.356,354.343 L561.741,361.057 L561.224,359.507 L546.396,374.336 L545.363,373.303" fill="#000000"/>
          <path d="M578.523,373.303 L593.351,358.475 L591.801,357.958 L598.515,354.343 L594.9,361.057 L594.384,359.507 L579.555,374.336 L578.523,373.303" fill="#000000"/>
          <path d="M626.68,357.032 L626.68,360.37 L612.715,374.336 L611.682,373.303 L626.51,358.474 L624.961,357.958 L626.68,357.032 z" fill="#000000"/>
          <path d="M445.885,340.143 L460.713,325.315 L459.164,324.799 L465.878,321.184 L462.262,327.897 L461.746,326.348 L446.918,341.176 L445.885,340.143" fill="#000000"/>
          <path d="M479.044,340.143 L493.873,325.315 L492.323,324.799 L499.037,321.184 L495.422,327.897 L494.905,326.348 L480.077,341.176 L479.044,340.143" fill="#000000"/>
          <path d="M512.204,340.143 L527.032,325.315 L525.483,324.799 L532.196,321.184 L528.581,327.897 L528.065,326.348 L513.237,341.176 L512.204,340.143" fill="#000000"/>
          <path d="M545.363,340.143 L560.191,325.315 L558.642,324.799 L565.356,321.184 L561.741,327.897 L561.224,326.348 L546.396,341.176 L545.363,340.143" fill="#000000"/>
          <path d="M578.523,340.143 L593.351,325.315 L591.801,324.799 L598.515,321.184 L594.9,327.897 L594.384,326.348 L579.555,341.176 L578.523,340.143" fill="#000000"/>
          <path d="M626.68,323.873 L626.68,327.211 L612.715,341.176 L611.682,340.143 L626.51,325.315 L624.961,324.799 L626.68,323.873 z" fill="#000000"/>
          <path d="M445.885,306.984 L460.713,292.156 L459.164,291.639 L465.878,288.024 L462.262,294.738 L461.746,293.189 L446.918,308.017 L445.885,306.984" fill="#000000"/>
          <path d="M479.044,306.984 L493.873,292.156 L492.323,291.639 L499.037,288.024 L495.422,294.738 L494.905,293.189 L480.077,308.017 L479.044,306.984" fill="#000000"/>
          <path d="M512.204,306.984 L527.032,292.156 L525.483,291.639 L532.196,288.024 L528.581,294.738 L528.065,293.189 L513.237,308.017 L512.204,306.984" fill="#000000"/>
          <path d="M545.363,306.984 L560.191,292.156 L558.642,291.639 L565.356,288.024 L561.741,294.738 L561.224,293.189 L546.396,308.017 L545.363,306.984" fill="#000000"/>
          <path d="M578.523,306.984 L593.351,292.156 L591.801,291.639 L598.515,288.024 L594.9,294.738 L594.384,293.189 L579.555,308.017 L578.523,306.984" fill="#000000"/>
          <path d="M626.68,290.714 L626.68,294.052 L612.715,308.017 L611.682,306.984 L626.51,292.156 L624.961,291.639 L626.68,290.714 z" fill="#000000"/>
          <path d="M445.885,273.824 L460.713,258.996 L459.164,258.48 L465.878,254.865 L462.262,261.579 L461.746,260.029 L446.918,274.857 L445.885,273.824" fill="#000000"/>
          <path d="M479.044,273.824 L493.873,258.996 L492.323,258.48 L499.037,254.865 L495.422,261.579 L494.905,260.029 L480.077,274.857 L479.044,273.824" fill="#000000"/>
          <path d="M512.204,273.824 L527.032,258.996 L525.483,258.48 L532.196,254.865 L528.581,261.579 L528.065,260.029 L513.237,274.857 L512.204,273.824" fill="#000000"/>
          <path d="M545.363,273.824 L560.191,258.996 L558.642,258.48 L565.356,254.865 L561.741,261.579 L561.224,260.029 L546.396,274.857 L545.363,273.824" fill="#000000"/>
          <path d="M578.523,273.824 L593.351,258.996 L591.801,258.48 L598.515,254.865 L594.9,261.579 L594.384,260.029 L579.555,274.857 L578.523,273.824" fill="#000000"/>
          <path d="M626.68,257.554 L626.68,260.892 L612.715,274.857 L611.682,273.824 L626.51,258.996 L624.961,258.48 L626.68,257.554 z" fill="#000000"/>
          <path d="M455.136,233.48 L446.918,241.698 L445.885,240.665 L453.07,233.48 L455.136,233.48 z" fill="#000000"/>
          <path d="M488.295,233.48 L480.077,241.698 L479.044,240.665 L486.229,233.48 L488.295,233.48 z" fill="#000000"/>
          <path d="M521.455,233.48 L513.237,241.698 L512.204,240.665 L519.389,233.48 L521.455,233.48 z" fill="#000000"/>
          <path d="M554.614,233.48 L546.396,241.698 L545.363,240.665 L552.548,233.48 L554.614,233.48 z" fill="#000000"/>
          <path d="M587.773,233.48 L579.555,241.698 L578.523,240.665 L585.708,233.48 L587.773,233.48 z" fill="#000000"/>
          <path d="M620.933,233.48 L612.715,241.698 L611.682,240.665 L618.867,233.48 L620.933,233.48 z" fill="#000000"/>
        </g>
        <path d="M432.42,415.18 L432.42,233.98" fill-opacity="0" stroke="#000000" stroke-width="0.8" stroke-linecap="square"/>
        <path d="M627.18,415.18 L627.18,233.98" fill-opacity="0" stroke="#000000" stroke-width="0.8" stroke-linecap="square"/>
        <path d="M432.42,415.18 L627.18,415.18" fill-opacity="0" stroke="#000000" stroke-width="0.8" stroke-linecap="square"/>
        <path d="M432.42,233.98 L627.18,233.98" fill-opacity="0" stroke="#000000" stroke-width="0.8" stroke-linecap="square"/>
        <path d="M527.041,219.704 L527.041,226.507 L528.471,226.507 Q530.282,226.507 531.122,225.688 Q531.962,224.866 531.962,223.096 Q531.962,221.339 531.122,220.522 Q530.282,219.704 528.471,219.704 z M525.857,218.731 L528.289,218.731 Q530.832,218.731 532.021,219.789 Q533.211,220.846 533.211,223.096 Q533.211,225.359 532.015,226.421 Q530.821,227.48 528.289,227.48 L525.857,227.48 z" fill="#000000" id="DejaVuSans-44"/>
      </g>
    </g>
    <g id="skalarfelt_pcolor">
      <path d="M0,327 L216,327 L216,111 L0,111 z" fill="#FFFFFF"/>
      <g id="axes_1">
        <path d="M13.32,313.68 L202.68,313.68 L202.68,124.32 L13.32,124.32 z" fill="#FFFFFF"/>
        <g id="QuadMesh_1">
          <path d="M13.931,313.069 L23.338,313.069 L23.338,303.662 L13.931,303.662 L13.931,313.069" fill="#440154"/>
          <path d="M23.338,313.069 L32.745,313.069 L32.745,303.662 L23.338,303.662 L23.338,313.069" fill="#460A5D"/>
          <path d="M32.745,313.069 L42.152,313.069 L42.152,303.662 L32.745,303.662 L32.745,313.069" fill="#481467"/>
          <path d="M42.152,313.069 L51.559,313.069 L51.559,303.662 L42.152,303.662 L42.152,313.069" fill="#481D6F"/>
          <path d="M51.559,313.069 L60.965,313.069 L60.965,303.662 L51.559,303.662 L51.559,313.069" fill="#482576"/>
          <path d="M60.965,313.069 L70.372,313.069 L70.372,303.662 L60.965,303.662 L60.965,313.069" fill="#472E7C"/>
          <path d="M70.372,313.069 L79.779,313.069 L79.779,303.662 L70.372,303.662 L70.372,313.069" fill="#453781"/>
          <path d="M79.779,313.069 L89.186,313.069 L89.186,303.662 L79.779,303.662 L79.779,313.069" fill="#423F85"/>
          <path d="M89.186,313.069 L98.593,313.069 L98.593,303.662 L89.186,303.662 L89.186,313.069" fill="#404688"/>
          <path d="M98.593,313.069 L108,313.069 L108,303.662 L98.593,303.662 L98.593,313.069" fill="#3D4E8A"/>
          <path d="M108,313.069 L117.407,313.069 L117.407,303.662 L108,303.662 L108,313.069" fill="#39558C"/>
          <path d="M117.407,313.069 L126.814,313.069 L126.814,303.662 L117.407,303.662 L117.407,313.069" fill="#365D8D"/>
          <path d="M126.814,313.069 L136.221,313.069 L136.221,303.662 L126.814,303.662 L126.814,313.069" fill="#33638D"/>
          <path d="M136.221,313.069 L145.628,313.069 L145.628,303.662 L136.221,303.662 L136.221,313.069" fill="#306A8E"/>
          <path d="M145.628,313.069 L155.035,313.069 L155.035,303.662 L145.628,303.662 L145.628,313.069" fill="#2D718E"/>
          <path d="M155.035,313.069 L164.441,313.069 L164.441,303.662 L155.035,303.662 L155.035,313.069" fill="#2A778E"/>
          <path d="M164.441,313.069 L173.848,313.069 L173.848,303.662 L164.441,303.662 L164.441,313.069" fill="#287D8E"/>
          <path d="M173.848,313.069 L183.255,313.069 L183.255,303.662 L173.848,303.662 L173.848,313.069" fill="#25838E"/>
          <path d="M183.255,313.069 L192.662,313.069 L192.662,303.662 L183.255,303.662 L183.255,313.069" fill="#238A8D"/>
          <path d="M192.662,313.069 L202.069,313.069 L202.069,303.662 L192.662,303.662 L192.662,313.069" fill="#21918C"/>
          <path d="M13.931,303.662 L23.338,303.662 L23.338,294.255 L13.931,294.255 L13.931,303.662" fill="#460A5D"/>
          <path d="M23.338,303.662 L32.745,303.662 L32.745,294.255 L23.338,294.255 L23.338,303.662" fill="#481467"/>
          <path d="M32.745,303.662 L42.152,303.662 L42.152,294.255 L32.745,294.255 L32.745,303.662" fill="#481D6F"/>
          <path d="M42.152,303.662 L51.559,303.662 L51.559,294.255 L42.152,294.255 L42.152,303.662" fill="#482576"/>
          <path d="M51.559,303.662 L60.965,303.662 L60.965,294.255 L51.559,294.255 L51.559,303.662" fill="#472E7C"/>
          <path d="M60.965,303.662 L70.372,303.662 L70.372,294.255 L60.965,294.255 L60.965,303.662" fill="#453781"/>
          <path d="M70.372,303.662 L79.779,303.662 L79.779,294.255 L70.372,294.255 L70.372,303.662" fill="#423F85"/>
          <path d="M79.779,303.662 L89.186,303.662 L89.186,294.255 L79.779,294.255 L79.779,303.662" fill="#404688"/>
          <path d="M89.186,303.662 L98.593,303.662 L98.593,294.255 L89.186,294.255 L89.186,303.662" fill="#3D4E8A"/>
          <path d="M98.593,303.662 L108,303.662 L108,294.255 L98.593,294.255 L98.593,303.662" fill="#39558C"/>
          <path d="M108,303.662 L117.407,303.662 L117.407,294.255 L108,294.255 L108,303.662" fill="#365D8D"/>
          <path d="M117.407,303.662 L126.814,303.662 L126.814,294.255 L117.407,294.255 L117.407,303.662" fill="#33638D"/>
          <path d="M126.814,303.662 L136.221,303.662 L136.221,294.255 L126.814,294.255 L126.814,303.662" fill="#306A8E"/>
          <path d="M136.221,303.662 L145.628,303.662 L145.628,294.255 L136.221,294.255 L136.221,303.662" fill="#2D718E"/>
          <path d="M145.628,303.662 L155.035,303.662 L155.035,294.255 L145.628,294.255 L145.628,303.662" fill="#2A778E"/>
          <path d="M155.035,303.662 L164.441,303.662 L164.441,294.255 L155.035,294.255 L155.035,303.662" fill="#287D8E"/>
          <path d="M164.441,303.662 L173.848,303.662 L173.848,294.255 L164.441,294.255 L164.441,303.662" fill="#25838E"/>
          <path d="M173.848,303.662 L183.255,303.662 L183.255,294.255 L173.848,294.255 L173.848,303.662" fill="#238A8D"/>
          <path d="M183.255,303.662 L192.662,303.662 L192.662,294.255 L183.255,294.255 L183.255,303.662" fill="#21908D"/>
          <path d="M192.662,303.662 L202.069,303.662 L202.069,294.255 L192.662,294.255 L192.662,303.662" fill="#1F968B"/>
          <path d="M13.931,294.255 L23.338,294.255 L23.338,284.848 L13.931,284.848 L13.931,294.255" fill="#481467"/>
          <path d="M23.338,294.255 L32.745,294.255 L32.745,284.848 L23.338,284.848 L23.338,294.255" fill="#481D6F"/>
          <path d="M32.745,294.255 L42.152,294.255 L42.152,284.848 L32.745,284.848 L32.745,294.255" fill="#482576"/>
          <path d="M42.152,294.255 L51.559,294.255 L51.559,284.848 L42.152,284.848 L42.152,294.255" fill="#472E7C"/>
          <path d="M51.559,294.255 L60.965,294.255 L60.965,284.848 L51.559,284.848 L51.559,294.255" fill="#453781"/>
          <path d="M60.965,294.255 L70.372,294.255 L70.372,284.848 L60.965,284.848 L60.965,294.255" fill="#423F85"/>
          <path d="M70.372,294.255 L79.779,294.255 L79.779,284.848 L70.372,284.848 L70.372,294.255" fill="#404688"/>
          <path d="M79.779,294.255 L89.186,294.255 L89.186,284.848 L79.779,284.848 L79.779,294.255" fill="#3D4E8A"/>
          <path d="M89.186,294.255 L98.593,294.255 L98.593,284.848 L89.186,284.848 L89.186,294.255" fill="#39558C"/>
          <path d="M98.593,294.255 L108,294.255 L108,284.848 L98.593,284.848 L98.593,294.255" fill="#365D8D"/>
          <path d="M108,294.255 L117.407,294.255 L117.407,284.848 L108,284.848 L108,294.255" fill="#33638D"/>
          <path d="M117.407,294.255 L126.814,294.255 L126.814,284.848 L117.407,284.848 L117.407,294.255" fill="#306A8E"/>
          <path d="M126.814,294.255 L136.221,294.255 L136.221,284.848 L126.814,284.848 L126.814,294.255" fill="#2D718E"/>
          <path d="M136.221,294.255 L145.628,294.255 L145.628,284.848 L136.221,284.848 L136.221,294.255" fill="#2A778E"/>
          <path d="M145.628,294.255 L155.035,294.255 L155.035,284.848 L145.628,284.848 L145.628,294.255" fill="#287D8E"/>
          <path d="M155.035,294.255 L164.441,294.255 L164.441,284.848 L155.035,284.848 L155.035,294.255" fill="#25838E"/>
          <path d="M164.441,294.255 L173.848,294.255 L173.848,284.848 L164.441,284.848 L164.441,294.255" fill="#238A8D"/>
          <path d="M173.848,294.255 L183.255,294.255 L183.255,284.848 L173.848,284.848 L173.848,294.255" fill="#21918C"/>
          <path d="M183.255,294.255 L192.662,294.255 L192.662,284.848 L183.255,284.848 L183.255,294.255" fill="#1F968B"/>
          <path d="M192.662,294.255 L202.069,294.255 L202.069,284.848 L192.662,284.848 L192.662,294.255" fill="#1E9D89"/>
          <path d="M13.931,284.848 L23.338,284.848 L23.338,275.441 L13.931,275.441 L13.931,284.848" fill="#481D6F"/>
          <path d="M23.338,284.848 L32.745,284.848 L32.745,275.441 L23.338,275.441 L23.338,284.848" fill="#482576"/>
          <path d="M32.745,284.848 L42.152,284.848 L42.152,275.441 L32.745,275.441 L32.745,284.848" fill="#472E7C"/>
          <path d="M42.152,284.848 L51.559,284.848 L51.559,275.441 L42.152,275.441 L42.152,284.848" fill="#453781"/>
          <path d="M51.559,284.848 L60.965,284.848 L60.965,275.441 L51.559,275.441 L51.559,284.848" fill="#423F85"/>
          <path d="M60.965,284.848 L70.372,284.848 L70.372,275.441 L60.965,275.441 L60.965,284.848" fill="#404688"/>
          <path d="M70.372,284.848 L79.779,284.848 L79.779,275.441 L70.372,275.441 L70.372,284.848" fill="#3D4E8A"/>
          <path d="M79.779,284.848 L89.186,284.848 L89.186,275.441 L79.779,275.441 L79.779,284.848" fill="#39558C"/>
          <path d="M89.186,284.848 L98.593,284.848 L98.593,275.441 L89.186,275.441 L89.186,284.848" fill="#365D8D"/>
          <path d="M98.593,284.848 L108,284.848 L108,275.441 L98.593,275.441 L98.593,284.848" fill="#33638D"/>
          <path d="M108,284.848 L117.407,284.848 L117.407,275.441 L108,275.441 L108,284.848" fill="#306A8E"/>
          <path d="M117.407,284.848 L126.814,284.848 L126.814,275.441 L117.407,275.441 L117.407,284.848" fill="#2D718E"/>
          <path d="M126.814,284.848 L136.221,284.848 L136.221,275.441 L126.814,275.441 L126.814,284.848" fill="#2A778E"/>
          <path d="M136.221,284.848 L145.628,284.848 L145.628,275.441 L136.221,275.441 L136.221,284.848" fill="#287D8E"/>
          <path d="M145.628,284.848 L155.035,284.848 L155.035,275.441 L145.628,275.441 L145.628,284.848" fill="#25838E"/>
          <path d="M155.035,284.848 L164.441,284.848 L164.441,275.441 L155.035,275.441 L155.035,284.848" fill="#238A8D"/>
          <path d="M164.441,284.848 L173.848,284.848 L173.848,275.441 L164.441,275.441 L164.441,284.848" fill="#21918C"/>
          <path d="M173.848,284.848 L183.255,284.848 L183.255,275.441 L173.848,275.441 L173.848,284.848" fill="#1F968B"/>
          <path d="M183.255,284.848 L192.662,284.848 L192.662,275.441 L183.255,275.441 L183.255,284.848" fill="#1E9D89"/>
          <path d="M192.662,284.848 L202.069,284.848 L202.069,275.441 L192.662,275.441 L192.662,284.848" fill="#20A386"/>
          <path d="M13.931,275.441 L23.338,275.441 L23.338,266.035 L13.931,266.035 L13.931,275.441" fill="#482576"/>
          <path d="M23.338,275.441 L32.745,275.441 L32.745,266.035 L23.338,266.035 L23.338,275.441" fill="#472E7C"/>
          <path d="M32.745,275.441 L42.152,275.441 L42.152,266.035 L32.745,266.035 L32.745,275.441" fill="#453781"/>
          <path d="M42.152,275.441 L51.559,275.441 L51.559,266.035 L42.152,266.035 L42.152,275.441" fill="#423F85"/>
          <path d="M51.559,275.441 L60.965,275.441 L60.965,266.035 L51.559,266.035 L51.559,275.441" fill="#404688"/>
          <path d="M60.965,275.441 L70.372,275.441 L70.372,266.035 L60.965,266.035 L60.965,275.441" fill="#3D4E8A"/>
          <path d="M70.372,275.441 L79.779,275.441 L79.779,266.035 L70.372,266.035 L70.372,275.441" fill="#39558C"/>
          <path d="M79.779,275.441 L89.186,275.441 L89.186,266.035 L79.779,266.035 L79.779,275.441" fill="#365D8D"/>
          <path d="M89.186,275.441 L98.593,275.441 L98.593,266.035 L89.186,266.035 L89.186,275.441" fill="#33638D"/>
          <path d="M98.593,275.441 L108,275.441 L108,266.035 L98.593,266.035 L98.593,275.441" fill="#306A8E"/>
          <path d="M108,275.441 L117.407,275.441 L117.407,266.035 L108,266.035 L108,275.441" fill="#2D718E"/>
          <path d="M117.407,275.441 L126.814,275.441 L126.814,266.035 L117.407,266.035 L117.407,275.441" fill="#2A778E"/>
          <path d="M126.814,275.441 L136.221,275.441 L136.221,266.035 L126.814,266.035 L126.814,275.441" fill="#287D8E"/>
          <path d="M136.221,275.441 L145.628,275.441 L145.628,266.035 L136.221,266.035 L136.221,275.441" fill="#25838E"/>
          <path d="M145.628,275.441 L155.035,275.441 L155.035,266.035 L145.628,266.035 L145.628,275.441" fill="#238A8D"/>
          <path d="M155.035,275.441 L164.441,275.441 L164.441,266.035 L155.035,266.035 L155.035,275.441" fill="#21908D"/>
          <path d="M164.441,275.441 L173.848,275.441 L173.848,266.035 L164.441,266.035 L164.441,275.441" fill="#1F968B"/>
          <path d="M173.848,275.441 L183.255,275.441 L183.255,266.035 L173.848,266.035 L173.848,275.441" fill="#1E9D89"/>
          <path d="M183.255,275.441 L192.662,275.441 L192.662,266.035 L183.255,266.035 L183.255,275.441" fill="#20A386"/>
          <path d="M192.662,275.441 L202.069,275.441 L202.069,266.035 L192.662,266.035 L192.662,275.441" fill="#23A983"/>
          <path d="M13.931,266.035 L23.338,266.035 L23.338,256.628 L13.931,256.628 L13.931,266.035" fill="#472E7C"/>
          <path d="M23.338,266.035 L32.745,266.035 L32.745,256.628 L23.338,256.628 L23.338,266.035" fill="#453781"/>
          <path d="M32.745,266.035 L42.152,266.035 L42.152,256.628 L32.745,256.628 L32.745,266.035" fill="#423F85"/>
          <path d="M42.152,266.035 L51.559,266.035 L51.559,256.628 L42.152,256.628 L42.152,266.035" fill="#404688"/>
          <path d="M51.559,266.035 L60.965,266.035 L60.965,256.628 L51.559,256.628 L51.559,266.035" fill="#3D4E8A"/>
          <path d="M60.965,266.035 L70.372,266.035 L70.372,256.628 L60.965,256.628 L60.965,266.035" fill="#39558C"/>
          <path d="M70.372,266.035 L79.779,266.035 L79.779,256.628 L70.372,256.628 L70.372,266.035" fill="#365D8D"/>
          <path d="M79.779,266.035 L89.186,266.035 L89.186,256.628 L79.779,256.628 L79.779,266.035" fill="#33638D"/>
          <path d="M89.186,266.035 L98.593,266.035 L98.593,256.628 L89.186,256.628 L89.186,266.035" fill="#306A8E"/>
          <path d="M98.593,266.035 L108,266.035 L108,256.628 L98.593,256.628 L98.593,266.035" fill="#2D718E"/>
          <path d="M108,266.035 L117.407,266.035 L117.407,256.628 L108,256.628 L108,266.035" fill="#2A778E"/>
          <path d="M117.407,266.035 L126.814,266.035 L126.814,256.628 L117.407,256.628 L117.407,266.035" fill="#287D8E"/>
          <path d="M126.814,266.035 L136.221,266.035 L136.221,256.628 L126.814,256.628 L126.814,266.035" fill="#25838E"/>
          <path d="M136.221,266.035 L145.628,266.035 L145.628,256.628 L136.221,256.628 L136.221,266.035" fill="#238A8D"/>
          <path d="M145.628,266.035 L155.035,266.035 L155.035,256.628 L145.628,256.628 L145.628,266.035" fill="#21918C"/>
          <path d="M155.035,266.035 L164.441,266.035 L164.441,256.628 L155.035,256.628 L155.035,266.035" fill="#1F968B"/>
          <path d="M164.441,266.035 L173.848,266.035 L173.848,256.628 L164.441,256.628 L164.441,266.035" fill="#1E9D89"/>
          <path d="M173.848,266.035 L183.255,266.035 L183.255,256.628 L173.848,256.628 L173.848,266.035" fill="#20A386"/>
          <path d="M183.255,266.035 L192.662,266.035 L192.662,256.628 L183.255,256.628 L183.255,266.035" fill="#23A983"/>
          <path d="M192.662,266.035 L202.069,266.035 L202.069,256.628 L192.662,256.628 L192.662,266.035" fill="#29AF7F"/>
          <path d="M13.931,256.628 L23.338,256.628 L23.338,247.221 L13.931,247.221 L13.931,256.628" fill="#453781"/>
          <path d="M23.338,256.628 L32.745,256.628 L32.745,247.221 L23.338,247.221 L23.338,256.628" fill="#423F85"/>
          <path d="M32.745,256.628 L42.152,256.628 L42.152,247.221 L32.745,247.221 L32.745,256.628" fill="#404688"/>
          <path d="M42.152,256.628 L51.559,256.628 L51.559,247.221 L42.152,247.221 L42.152,256.628" fill="#3D4E8A"/>
          <path d="M51.559,256.628 L60.965,256.628 L60.965,247.221 L51.559,247.221 L51.559,256.628" fill="#39558C"/>
          <path d="M60.965,256.628 L70.372,256.628 L70.372,247.221 L60.965,247.221 L60.965,256.628" fill="#365D8D"/>
          <path d="M70.372,256.628 L79.779,256.628 L79.779,247.221 L70.372,247.221 L70.372,256.628" fill="#33638D"/>
          <path d="M79.779,256.628 L89.186,256.628 L89.186,247.221 L79.779,247.221 L79.779,256.628" fill="#306A8E"/>
          <path d="M89.186,256.628 L98.593,256.628 L98.593,247.221 L89.186,247.221 L89.186,256.628" fill="#2D718E"/>
          <path d="M98.593,256.628 L108,256.628 L108,247.221 L98.593,247.221 L98.593,256.628" fill="#2A778E"/>
          <path d="M108,256.628 L117.407,256.628 L117.407,247.221 L108,247.221 L108,256.628" fill="#287D8E"/>
          <path d="M117.407,256.628 L126.814,256.628 L126.814,247.221 L117.407,247.221 L117.407,256.628" fill="#25838E"/>
          <path d="M126.814,256.628 L136.221,256.628 L136.221,247.221 L126.814,247.221 L126.814,256.628" fill="#238A8D"/>
          <path d="M136.221,256.628 L145.628,256.628 L145.628,247.221 L136.221,247.221 L136.221,256.628" fill="#21918C"/>
          <path d="M145.628,256.628 L155.035,256.628 L155.035,247.221 L145.628,247.221 L145.628,256.628" fill="#1F968B"/>
          <path d="M155.035,256.628 L164.441,256.628 L164.441,247.221 L155.035,247.221 L155.035,256.628" fill="#1E9D89"/>
          <path d="M164.441,256.628 L173.848,256.628 L173.848,247.221 L164.441,247.221 L164.441,256.628" fill="#20A386"/>
          <path d="M173.848,256.628 L183.255,256.628 L183.255,247.221 L173.848,247.221 L173.848,256.628" fill="#23A983"/>
          <path d="M183.255,256.628 L192.662,256.628 L192.662,247.221 L183.255,247.221 L183.255,256.628" fill="#29AF7F"/>
          <path d="M192.662,256.628 L202.069,256.628 L202.069,247.221 L192.662,247.221 L192.662,256.628" fill="#32B67A"/>
          <path d="M13.931,247.221 L23.338,247.221 L23.338,237.814 L13.931,237.814 L13.931,247.221" fill="#423F85"/>
          <path d="M23.338,247.221 L32.745,247.221 L32.745,237.814 L23.338,237.814 L23.338,247.221" fill="#404688"/>
          <path d="M32.745,247.221 L42.152,247.221 L42.152,237.814 L32.745,237.814 L32.745,247.221" fill="#3D4E8A"/>
          <path d="M42.152,247.221 L51.559,247.221 L51.559,237.814 L42.152,237.814 L42.152,247.221" fill="#39558C"/>
          <path d="M51.559,247.221 L60.965,247.221 L60.965,237.814 L51.559,237.814 L51.559,247.221" fill="#365D8D"/>
          <path d="M60.965,247.221 L70.372,247.221 L70.372,237.814 L60.965,237.814 L60.965,247.221" fill="#33638D"/>
          <path d="M70.372,247.221 L79.779,247.221 L79.779,237.814 L70.372,237.814 L70.372,247.221" fill="#306A8E"/>
          <path d="M79.779,247.221 L89.186,247.221 L89.186,237.814 L79.779,237.814 L79.779,247.221" fill="#2D718E"/>
          <path d="M89.186,247.221 L98.593,247.221 L98.593,237.814 L89.186,237.814 L89.186,247.221" fill="#2A778E"/>
          <path d="M98.593,247.221 L108,247.221 L108,237.814 L98.593,237.814 L98.593,247.221" fill="#287D8E"/>
          <path d="M108,247.221 L117.407,247.221 L117.407,237.814 L108,237.814 L108,247.221" fill="#25838E"/>
          <path d="M117.407,247.221 L126.814,247.221 L126.814,237.814 L117.407,237.814 L117.407,247.221" fill="#238A8D"/>
          <path d="M126.814,247.221 L136.221,247.221 L136.221,237.814 L126.814,237.814 L126.814,247.221" fill="#21918C"/>
          <path d="M136.221,247.221 L145.628,247.221 L145.628,237.814 L136.221,237.814 L136.221,247.221" fill="#1F968B"/>
          <path d="M145.628,247.221 L155.035,247.221 L155.035,237.814 L145.628,237.814 L145.628,247.221" fill="#1E9D89"/>
          <path d="M155.035,247.221 L164.441,247.221 L164.441,237.814 L155.035,237.814 L155.035,247.221" fill="#20A386"/>
          <path d="M164.441,247.221 L173.848,247.221 L173.848,237.814 L164.441,237.814 L164.441,247.221" fill="#23A983"/>
          <path d="M173.848,247.221 L183.255,247.221 L183.255,237.814 L173.848,237.814 L173.848,247.221" fill="#29AF7F"/>
          <path d="M183.255,247.221 L192.662,247.221 L192.662,237.814 L183.255,237.814 L183.255,247.221" fill="#32B67A"/>
          <path d="M192.662,247.221 L202.069,247.221 L202.069,237.814 L192.662,237.814 L192.662,247.221" fill="#3DBC74"/>
          <path d="M13.931,237.814 L23.338,237.814 L23.338,228.407 L13.931,228.407 L13.931,237.814" fill="#404688"/>
          <path d="M23.338,237.814 L32.745,237.814 L32.745,228.407 L23.338,228.407 L23.338,237.814" fill="#3D4E8A"/>
          <path d="M32.745,237.814 L42.152,237.814 L42.152,228.407 L32.745,228.407 L32.745,237.814" fill="#39558C"/>
          <path d="M42.152,237.814 L51.559,237.814 L51.559,228.407 L42.152,228.407 L42.152,237.814" fill="#365D8D"/>
          <path d="M51.559,237.814 L60.965,237.814 L60.965,228.407 L51.559,228.407 L51.559,237.814" fill="#33638D"/>
          <path d="M60.965,237.814 L70.372,237.814 L70.372,228.407 L60.965,228.407 L60.965,237.814" fill="#306A8E"/>
          <path d="M70.372,237.814 L79.779,237.814 L79.779,228.407 L70.372,228.407 L70.372,237.814" fill="#2D718E"/>
          <path d="M79.779,237.814 L89.186,237.814 L89.186,228.407 L79.779,228.407 L79.779,237.814" fill="#2A778E"/>
          <path d="M89.186,237.814 L98.593,237.814 L98.593,228.407 L89.186,228.407 L89.186,237.814" fill="#287D8E"/>
          <path d="M98.593,237.814 L108,237.814 L108,228.407 L98.593,228.407 L98.593,237.814" fill="#25838E"/>
          <path d="M108,237.814 L117.407,237.814 L117.407,228.407 L108,228.407 L108,237.814" fill="#238A8D"/>
          <path d="M117.407,237.814 L126.814,237.814 L126.814,228.407 L117.407,228.407 L117.407,237.814" fill="#21918C"/>
          <path d="M126.814,237.814 L136.221,237.814 L136.221,228.407 L126.814,228.407 L126.814,237.814" fill="#1F968B"/>
          <path d="M136.221,237.814 L145.628,237.814 L145.628,228.407 L136.221,228.407 L136.221,237.814" fill="#1E9D89"/>
          <path d="M145.628,237.814 L155.035,237.814 L155.035,228.407 L145.628,228.407 L145.628,237.814" fill="#20A386"/>
          <path d="M155.035,237.814 L164.441,237.814 L164.441,228.407 L155.035,228.407 L155.035,237.814" fill="#23A983"/>
          <path d="M164.441,237.814 L173.848,237.814 L173.848,228.407 L164.441,228.407 L164.441,237.814" fill="#29AF7F"/>
          <path d="M173.848,237.814 L183.255,237.814 L183.255,228.407 L173.848,228.407 L173.848,237.814" fill="#32B67A"/>
          <path d="M183.255,237.814 L192.662,237.814 L192.662,228.407 L183.255,228.407 L183.255,237.814" fill="#3DBC74"/>
          <path d="M192.662,237.814 L202.069,237.814 L202.069,228.407 L192.662,228.407 L192.662,237.814" fill="#48C16E"/>
          <path d="M13.931,228.407 L23.338,228.407 L23.338,219 L13.931,219 L13.931,228.407" fill="#3D4E8A"/>
          <path d="M23.338,228.407 L32.745,228.407 L32.745,219 L23.338,219 L23.338,228.407" fill="#39558C"/>
          <path d="M32.745,228.407 L42.152,228.407 L42.152,219 L32.745,219 L32.745,228.407" fill="#365D8D"/>
          <path d="M42.152,228.407 L51.559,228.407 L51.559,219 L42.152,219 L42.152,228.407" fill="#33638D"/>
          <path d="M51.559,228.407 L60.965,228.407 L60.965,219 L51.559,219 L51.559,228.407" fill="#306A8E"/>
          <path d="M60.965,228.407 L70.372,228.407 L70.372,219 L60.965,219 L60.965,228.407" fill="#2D718E"/>
          <path d="M70.372,228.407 L79.779,228.407 L79.779,219 L70.372,219 L70.372,228.407" fill="#2A778E"/>
          <path d="M79.779,228.407 L89.186,228.407 L89.186,219 L79.779,219 L79.779,228.407" fill="#287D8E"/>
          <path d="M89.186,228.407 L98.593,228.407 L98.593,219 L89.186,219 L89.186,228.407" fill="#25838E"/>
          <path d="M98.593,228.407 L108,228.407 L108,219 L98.593,219 L98.593,228.407" fill="#238A8D"/>
          <path d="M108,228.407 L117.407,228.407 L117.407,219 L108,219 L108,228.407" fill="#21908D"/>
          <path d="M117.407,228.407 L126.814,228.407 L126.814,219 L117.407,219 L117.407,228.407" fill="#1F968B"/>
          <path d="M126.814,228.407 L136.221,228.407 L136.221,219 L126.814,219 L126.814,228.407" fill="#1E9D89"/>
          <path d="M136.221,228.407 L145.628,228.407 L145.628,219 L136.221,219 L136.221,228.407" fill="#20A386"/>
          <path d="M145.628,228.407 L155.035,228.407 L155.035,219 L145.628,219 L145.628,228.407" fill="#23A983"/>
          <path d="M155.035,228.407 L164.441,228.407 L164.441,219 L155.035,219 L155.035,228.407" fill="#29AF7F"/>
          <path d="M164.441,228.407 L173.848,228.407 L173.848,219 L164.441,219 L164.441,228.407" fill="#32B67A"/>
          <path d="M173.848,228.407 L183.255,228.407 L183.255,219 L173.848,219 L173.848,228.407" fill="#3DBC74"/>
          <path d="M183.255,228.407 L192.662,228.407 L192.662,219 L183.255,219 L183.255,228.407" fill="#48C16E"/>
          <path d="M192.662,228.407 L202.069,228.407 L202.069,219 L192.662,219 L192.662,228.407" fill="#56C667"/>
          <path d="M13.931,219 L23.338,219 L23.338,209.593 L13.931,209.593 L13.931,219" fill="#39558C"/>
          <path d="M23.338,219 L32.745,219 L32.745,209.593 L23.338,209.593 L23.338,219" fill="#365D8D"/>
          <path d="M32.745,219 L42.152,219 L42.152,209.593 L32.745,209.593 L32.745,219" fill="#33638D"/>
          <path d="M42.152,219 L51.559,219 L51.559,209.593 L42.152,209.593 L42.152,219" fill="#306A8E"/>
          <path d="M51.559,219 L60.965,219 L60.965,209.593 L51.559,209.593 L51.559,219" fill="#2D718E"/>
          <path d="M60.965,219 L70.372,219 L70.372,209.593 L60.965,209.593 L60.965,219" fill="#2A778E"/>
          <path d="M70.372,219 L79.779,219 L79.779,209.593 L70.372,209.593 L70.372,219" fill="#287D8E"/>
          <path d="M79.779,219 L89.186,219 L89.186,209.593 L79.779,209.593 L79.779,219" fill="#25838E"/>
          <path d="M89.186,219 L98.593,219 L98.593,209.593 L89.186,209.593 L89.186,219" fill="#238A8D"/>
          <path d="M98.593,219 L108,219 L108,209.593 L98.593,209.593 L98.593,219" fill="#21908D"/>
          <path d="M108,219 L117.407,219 L117.407,209.593 L108,209.593 L108,219" fill="#1F968B"/>
          <path d="M117.407,219 L126.814,219 L126.814,209.593 L117.407,209.593 L117.407,219" fill="#1E9D89"/>
          <path d="M126.814,219 L136.221,219 L136.221,209.593 L126.814,209.593 L126.814,219" fill="#20A386"/>
          <path d="M136.221,219 L145.628,219 L145.628,209.593 L136.221,209.593 L136.221,219" fill="#23A983"/>
          <path d="M145.628,219 L155.035,219 L155.035,209.593 L145.628,209.593 L145.628,219" fill="#29AF7F"/>
          <path d="M155.035,219 L164.441,219 L164.441,209.593 L155.035,209.593 L155.035,219" fill="#32B67A"/>
          <path d="M164.441,219 L173.848,219 L173.848,209.593 L164.441,209.593 L164.441,219" fill="#3DBC74"/>
          <path d="M173.848,219 L183.255,219 L183.255,209.593 L173.848,209.593 L173.848,219" fill="#48C16E"/>
          <path d="M183.255,219 L192.662,219 L192.662,209.593 L183.255,209.593 L183.255,219" fill="#56C667"/>
          <path d="M192.662,219 L202.069,219 L202.069,209.593 L192.662,209.593 L192.662,219" fill="#65CB5E"/>
          <path d="M13.931,209.593 L23.338,209.593 L23.338,200.186 L13.931,200.186 L13.931,209.593" fill="#365D8D"/>
          <path d="M23.338,209.593 L32.745,209.593 L32.745,200.186 L23.338,200.186 L23.338,209.593" fill="#33638D"/>
          <path d="M32.745,209.593 L42.152,209.593 L42.152,200.186 L32.745,200.186 L32.745,209.593" fill="#306A8E"/>
          <path d="M42.152,209.593 L51.559,209.593 L51.559,200.186 L42.152,200.186 L42.152,209.593" fill="#2D718E"/>
          <path d="M51.559,209.593 L60.965,209.593 L60.965,200.186 L51.559,200.186 L51.559,209.593" fill="#2A778E"/>
          <path d="M60.965,209.593 L70.372,209.593 L70.372,200.186 L60.965,200.186 L60.965,209.593" fill="#287D8E"/>
          <path d="M70.372,209.593 L79.779,209.593 L79.779,200.186 L70.372,200.186 L70.372,209.593" fill="#25838E"/>
          <path d="M79.779,209.593 L89.186,209.593 L89.186,200.186 L79.779,200.186 L79.779,209.593" fill="#238A8D"/>
          <path d="M89.186,209.593 L98.593,209.593 L98.593,200.186 L89.186,200.186 L89.186,209.593" fill="#21918C"/>
          <path d="M98.593,209.593 L108,209.593 L108,200.186 L98.593,200.186 L98.593,209.593" fill="#1F968B"/>
          <path d="M108,209.593 L117.407,209.593 L117.407,200.186 L108,200.186 L108,209.593" fill="#1E9D89"/>
          <path d="M117.407,209.593 L126.814,209.593 L126.814,200.186 L117.407,200.186 L117.407,209.593" fill="#20A386"/>
          <path d="M126.814,209.593 L136.221,209.593 L136.221,200.186 L126.814,200.186 L126.814,209.593" fill="#23A983"/>
          <path d="M136.221,209.593 L145.628,209.593 L145.628,200.186 L136.221,200.186 L136.221,209.593" fill="#29AF7F"/>
          <path d="M145.628,209.593 L155.035,209.593 L155.035,200.186 L145.628,200.186 L145.628,209.593" fill="#32B67A"/>
          <path d="M155.035,209.593 L164.441,209.593 L164.441,200.186 L155.035,200.186 L155.035,209.593" fill="#3DBC74"/>
          <path d="M164.441,209.593 L173.848,209.593 L173.848,200.186 L164.441,200.186 L164.441,209.593" fill="#48C16E"/>
          <path d="M173.848,209.593 L183.255,209.593 L183.255,200.186 L173.848,200.186 L173.848,209.593" fill="#56C667"/>
          <path d="M183.255,209.593 L192.662,209.593 L192.662,200.186 L183.255,200.186 L183.255,209.593" fill="#65CB5E"/>
          <path d="M192.662,209.593 L202.069,209.593 L202.069,200.186 L192.662,200.186 L192.662,209.593" fill="#75D054"/>
          <path d="M13.931,200.186 L23.338,200.186 L23.338,190.779 L13.931,190.779 L13.931,200.186" fill="#33638D"/>
          <path d="M23.338,200.186 L32.745,200.186 L32.745,190.779 L23.338,190.779 L23.338,200.186" fill="#306A8E"/>
          <path d="M32.745,200.186 L42.152,200.186 L42.152,190.779 L32.745,190.779 L32.745,200.186" fill="#2D718E"/>
          <path d="M42.152,200.186 L51.559,200.186 L51.559,190.779 L42.152,190.779 L42.152,200.186" fill="#2A778E"/>
          <path d="M51.559,200.186 L60.965,200.186 L60.965,190.779 L51.559,190.779 L51.559,200.186" fill="#287D8E"/>
          <path d="M60.965,200.186 L70.372,200.186 L70.372,190.779 L60.965,190.779 L60.965,200.186" fill="#25838E"/>
          <path d="M70.372,200.186 L79.779,200.186 L79.779,190.779 L70.372,190.779 L70.372,200.186" fill="#238A8D"/>
          <path d="M79.779,200.186 L89.186,200.186 L89.186,190.779 L79.779,190.779 L79.779,200.186" fill="#21918C"/>
          <path d="M89.186,200.186 L98.593,200.186 L98.593,190.779 L89.186,190.779 L89.186,200.186" fill="#1F968B"/>
          <path d="M98.593,200.186 L108,200.186 L108,190.779 L98.593,190.779 L98.593,200.186" fill="#1E9D89"/>
          <path d="M108,200.186 L117.407,200.186 L117.407,190.779 L108,190.779 L108,200.186" fill="#20A386"/>
          <path d="M117.407,200.186 L126.814,200.186 L126.814,190.779 L117.407,190.779 L117.407,200.186" fill="#23A983"/>
          <path d="M126.814,200.186 L136.221,200.186 L136.221,190.779 L126.814,190.779 L126.814,200.186" fill="#29AF7F"/>
          <path d="M136.221,200.186 L145.628,200.186 L145.628,190.779 L136.221,190.779 L136.221,200.186" fill="#32B67A"/>
          <path d="M145.628,200.186 L155.035,200.186 L155.035,190.779 L145.628,190.779 L145.628,200.186" fill="#3DBC74"/>
          <path d="M155.035,200.186 L164.441,200.186 L164.441,190.779 L155.035,190.779 L155.035,200.186" fill="#48C16E"/>
          <path d="M164.441,200.186 L173.848,200.186 L173.848,190.779 L164.441,190.779 L164.441,200.186" fill="#56C667"/>
          <path d="M173.848,200.186 L183.255,200.186 L183.255,190.779 L173.848,190.779 L173.848,200.186" fill="#65CB5E"/>
          <path d="M183.255,200.186 L192.662,200.186 L192.662,190.779 L183.255,190.779 L183.255,200.186" fill="#75D054"/>
          <path d="M192.662,200.186 L202.069,200.186 L202.069,190.779 L192.662,190.779 L192.662,200.186" fill="#84D44B"/>
          <path d="M13.931,190.779 L23.338,190.779 L23.338,181.372 L13.931,181.372 L13.931,190.779" fill="#306A8E"/>
          <path d="M23.338,190.779 L32.745,190.779 L32.745,181.372 L23.338,181.372 L23.338,190.779" fill="#2D718E"/>
          <path d="M32.745,190.779 L42.152,190.779 L42.152,181.372 L32.745,181.372 L32.745,190.779" fill="#2A778E"/>
          <path d="M42.152,190.779 L51.559,190.779 L51.559,181.372 L42.152,181.372 L42.152,190.779" fill="#287D8E"/>
          <path d="M51.559,190.779 L60.965,190.779 L60.965,181.372 L51.559,181.372 L51.559,190.779" fill="#25838E"/>
          <path d="M60.965,190.779 L70.372,190.779 L70.372,181.372 L60.965,181.372 L60.965,190.779" fill="#238A8D"/>
          <path d="M70.372,190.779 L79.779,190.779 L79.779,181.372 L70.372,181.372 L70.372,190.779" fill="#21918C"/>
          <path d="M79.779,190.779 L89.186,190.779 L89.186,181.372 L79.779,181.372 L79.779,190.779" fill="#1F968B"/>
          <path d="M89.186,190.779 L98.593,190.779 L98.593,181.372 L89.186,181.372 L89.186,190.779" fill="#1E9D89"/>
          <path d="M98.593,190.779 L108,190.779 L108,181.372 L98.593,181.372 L98.593,190.779" fill="#20A386"/>
          <path d="M108,190.779 L117.407,190.779 L117.407,181.372 L108,181.372 L108,190.779" fill="#23A983"/>
          <path d="M117.407,190.779 L126.814,190.779 L126.814,181.372 L117.407,181.372 L117.407,190.779" fill="#29AF7F"/>
          <path d="M126.814,190.779 L136.221,190.779 L136.221,181.372 L126.814,181.372 L126.814,190.779" fill="#32B67A"/>
          <path d="M136.221,190.779 L145.628,190.779 L145.628,181.372 L136.221,181.372 L136.221,190.779" fill="#3DBC74"/>
          <path d="M145.628,190.779 L155.035,190.779 L155.035,181.372 L145.628,181.372 L145.628,190.779" fill="#48C16E"/>
          <path d="M155.035,190.779 L164.441,190.779 L164.441,181.372 L155.035,181.372 L155.035,190.779" fill="#56C667"/>
          <path d="M164.441,190.779 L173.848,190.779 L173.848,181.372 L164.441,181.372 L164.441,190.779" fill="#65CB5E"/>
          <path d="M173.848,190.779 L183.255,190.779 L183.255,181.372 L173.848,181.372 L173.848,190.779" fill="#75D054"/>
          <path d="M183.255,190.779 L192.662,190.779 L192.662,181.372 L183.255,181.372 L183.255,190.779" fill="#84D44B"/>
          <path d="M192.662,190.779 L202.069,190.779 L202.069,181.372 L192.662,181.372 L192.662,190.779" fill="#95D840"/>
          <path d="M13.931,181.372 L23.338,181.372 L23.338,171.965 L13.931,171.965 L13.931,181.372" fill="#2D718E"/>
          <path d="M23.338,181.372 L32.745,181.372 L32.745,171.965 L23.338,171.965 L23.338,181.372" fill="#2A778E"/>
          <path d="M32.745,181.372 L42.152,181.372 L42.152,171.965 L32.745,171.965 L32.745,181.372" fill="#287D8E"/>
          <path d="M42.152,181.372 L51.559,181.372 L51.559,171.965 L42.152,171.965 L42.152,181.372" fill="#25838E"/>
          <path d="M51.559,181.372 L60.965,181.372 L60.965,171.965 L51.559,171.965 L51.559,181.372" fill="#238A8D"/>
          <path d="M60.965,181.372 L70.372,181.372 L70.372,171.965 L60.965,171.965 L60.965,181.372" fill="#21918C"/>
          <path d="M70.372,181.372 L79.779,181.372 L79.779,171.965 L70.372,171.965 L70.372,181.372" fill="#1F968B"/>
          <path d="M79.779,181.372 L89.186,181.372 L89.186,171.965 L79.779,171.965 L79.779,181.372" fill="#1E9D89"/>
          <path d="M89.186,181.372 L98.593,181.372 L98.593,171.965 L89.186,171.965 L89.186,181.372" fill="#20A386"/>
          <path d="M98.593,181.372 L108,181.372 L108,171.965 L98.593,171.965 L98.593,181.372" fill="#23A983"/>
          <path d="M108,181.372 L117.407,181.372 L117.407,171.965 L108,171.965 L108,181.372" fill="#29AF7F"/>
          <path d="M117.407,181.372 L126.814,181.372 L126.814,171.965 L117.407,171.965 L117.407,181.372" fill="#32B67A"/>
          <path d="M126.814,181.372 L136.221,181.372 L136.221,171.965 L126.814,171.965 L126.814,181.372" fill="#3DBC74"/>
          <path d="M136.221,181.372 L145.628,181.372 L145.628,171.965 L136.221,171.965 L136.221,181.372" fill="#48C16E"/>
          <path d="M145.628,181.372 L155.035,181.372 L155.035,171.965 L145.628,171.965 L145.628,181.372" fill="#56C667"/>
          <path d="M155.035,181.372 L164.441,181.372 L164.441,171.965 L155.035,171.965 L155.035,181.372" fill="#65CB5E"/>
          <path d="M164.441,181.372 L173.848,181.372 L173.848,171.965 L164.441,171.965 L164.441,181.372" fill="#75D054"/>
          <path d="M173.848,181.372 L183.255,181.372 L183.255,171.965 L173.848,171.965 L173.848,181.372" fill="#84D44B"/>
          <path d="M183.255,181.372 L192.662,181.372 L192.662,171.965 L183.255,171.965 L183.255,181.372" fill="#95D840"/>
          <path d="M192.662,181.372 L202.069,181.372 L202.069,171.965 L192.662,171.965 L192.662,181.372" fill="#A8DB34"/>
          <path d="M13.931,171.965 L23.338,171.965 L23.338,162.559 L13.931,162.559 L13.931,171.965" fill="#2A778E"/>
          <path d="M23.338,171.965 L32.745,171.965 L32.745,162.559 L23.338,162.559 L23.338,171.965" fill="#287D8E"/>
          <path d="M32.745,171.965 L42.152,171.965 L42.152,162.559 L32.745,162.559 L32.745,171.965" fill="#25838E"/>
          <path d="M42.152,171.965 L51.559,171.965 L51.559,162.559 L42.152,162.559 L42.152,171.965" fill="#238A8D"/>
          <path d="M51.559,171.965 L60.965,171.965 L60.965,162.559 L51.559,162.559 L51.559,171.965" fill="#21908D"/>
          <path d="M60.965,171.965 L70.372,171.965 L70.372,162.559 L60.965,162.559 L60.965,171.965" fill="#1F968B"/>
          <path d="M70.372,171.965 L79.779,171.965 L79.779,162.559 L70.372,162.559 L70.372,171.965" fill="#1E9D89"/>
          <path d="M79.779,171.965 L89.186,171.965 L89.186,162.559 L79.779,162.559 L79.779,171.965" fill="#20A386"/>
          <path d="M89.186,171.965 L98.593,171.965 L98.593,162.559 L89.186,162.559 L89.186,171.965" fill="#23A983"/>
          <path d="M98.593,171.965 L108,171.965 L108,162.559 L98.593,162.559 L98.593,171.965" fill="#29AF7F"/>
          <path d="M108,171.965 L117.407,171.965 L117.407,162.559 L108,162.559 L108,171.965" fill="#32B67A"/>
          <path d="M117.407,171.965 L126.814,171.965 L126.814,162.559 L117.407,162.559 L117.407,171.965" fill="#3DBC74"/>
          <path d="M126.814,171.965 L136.221,171.965 L136.221,162.559 L126.814,162.559 L126.814,171.965" fill="#48C16E"/>
          <path d="M136.221,171.965 L145.628,171.965 L145.628,162.559 L136.221,162.559 L136.221,171.965" fill="#56C667"/>
          <path d="M145.628,171.965 L155.035,171.965 L155.035,162.559 L145.628,162.559 L145.628,171.965" fill="#65CB5E"/>
          <path d="M155.035,171.965 L164.441,171.965 L164.441,162.559 L155.035,162.559 L155.035,171.965" fill="#75D054"/>
          <path d="M164.441,171.965 L173.848,171.965 L173.848,162.559 L164.441,162.559 L164.441,171.965" fill="#84D44B"/>
          <path d="M173.848,171.965 L183.255,171.965 L183.255,162.559 L173.848,162.559 L173.848,171.965" fill="#95D840"/>
          <path d="M183.255,171.965 L192.662,171.965 L192.662,162.559 L183.255,162.559 L183.255,171.965" fill="#A8DB34"/>
          <path d="M192.662,171.965 L202.069,171.965 L202.069,162.559 L192.662,162.559 L192.662,171.965" fill="#BADE28"/>
          <path d="M13.931,162.559 L23.338,162.559 L23.338,153.152 L13.931,153.152 L13.931,162.559" fill="#287D8E"/>
          <path d="M23.338,162.559 L32.745,162.559 L32.745,153.152 L23.338,153.152 L23.338,162.559" fill="#25838E"/>
          <path d="M32.745,162.559 L42.152,162.559 L42.152,153.152 L32.745,153.152 L32.745,162.559" fill="#238A8D"/>
          <path d="M42.152,162.559 L51.559,162.559 L51.559,153.152 L42.152,153.152 L42.152,162.559" fill="#21918C"/>
          <path d="M51.559,162.559 L60.965,162.559 L60.965,153.152 L51.559,153.152 L51.559,162.559" fill="#1F968B"/>
          <path d="M60.965,162.559 L70.372,162.559 L70.372,153.152 L60.965,153.152 L60.965,162.559" fill="#1E9D89"/>
          <path d="M70.372,162.559 L79.779,162.559 L79.779,153.152 L70.372,153.152 L70.372,162.559" fill="#20A386"/>
          <path d="M79.779,162.559 L89.186,162.559 L89.186,153.152 L79.779,153.152 L79.779,162.559" fill="#23A983"/>
          <path d="M89.186,162.559 L98.593,162.559 L98.593,153.152 L89.186,153.152 L89.186,162.559" fill="#29AF7F"/>
          <path d="M98.593,162.559 L108,162.559 L108,153.152 L98.593,153.152 L98.593,162.559" fill="#32B67A"/>
          <path d="M108,162.559 L117.407,162.559 L117.407,153.152 L108,153.152 L108,162.559" fill="#3DBC74"/>
          <path d="M117.407,162.559 L126.814,162.559 L126.814,153.152 L117.407,153.152 L117.407,162.559" fill="#48C16E"/>
          <path d="M126.814,162.559 L136.221,162.559 L136.221,153.152 L126.814,153.152 L126.814,162.559" fill="#56C667"/>
          <path d="M136.221,162.559 L145.628,162.559 L145.628,153.152 L136.221,153.152 L136.221,162.559" fill="#65CB5E"/>
          <path d="M145.628,162.559 L155.035,162.559 L155.035,153.152 L145.628,153.152 L145.628,162.559" fill="#75D054"/>
          <path d="M155.035,162.559 L164.441,162.559 L164.441,153.152 L155.035,153.152 L155.035,162.559" fill="#84D44B"/>
          <path d="M164.441,162.559 L173.848,162.559 L173.848,153.152 L164.441,153.152 L164.441,162.559" fill="#95D840"/>
          <path d="M173.848,162.559 L183.255,162.559 L183.255,153.152 L173.848,153.152 L173.848,162.559" fill="#A8DB34"/>
          <path d="M183.255,162.559 L192.662,162.559 L192.662,153.152 L183.255,153.152 L183.255,162.559" fill="#BADE28"/>
          <path d="M192.662,162.559 L202.069,162.559 L202.069,153.152 L192.662,153.152 L192.662,162.559" fill="#CAE11F"/>
          <path d="M13.931,153.152 L23.338,153.152 L23.338,143.745 L13.931,143.745 L13.931,153.152" fill="#25838E"/>
          <path d="M23.338,153.152 L32.745,153.152 L32.745,143.745 L23.338,143.745 L23.338,153.152" fill="#238A8D"/>
          <path d="M32.745,153.152 L42.152,153.152 L42.152,143.745 L32.745,143.745 L32.745,153.152" fill="#21918C"/>
          <path d="M42.152,153.152 L51.559,153.152 L51.559,143.745 L42.152,143.745 L42.152,153.152" fill="#1F968B"/>
          <path d="M51.559,153.152 L60.965,153.152 L60.965,143.745 L51.559,143.745 L51.559,153.152" fill="#1E9D89"/>
          <path d="M60.965,153.152 L70.372,153.152 L70.372,143.745 L60.965,143.745 L60.965,153.152" fill="#20A386"/>
          <path d="M70.372,153.152 L79.779,153.152 L79.779,143.745 L70.372,143.745 L70.372,153.152" fill="#23A983"/>
          <path d="M79.779,153.152 L89.186,153.152 L89.186,143.745 L79.779,143.745 L79.779,153.152" fill="#29AF7F"/>
          <path d="M89.186,153.152 L98.593,153.152 L98.593,143.745 L89.186,143.745 L89.186,153.152" fill="#32B67A"/>
          <path d="M98.593,153.152 L108,153.152 L108,143.745 L98.593,143.745 L98.593,153.152" fill="#3DBC74"/>
          <path d="M108,153.152 L117.407,153.152 L117.407,143.745 L108,143.745 L108,153.152" fill="#48C16E"/>
          <path d="M117.407,153.152 L126.814,153.152 L126.814,143.745 L117.407,143.745 L117.407,153.152" fill="#56C667"/>
          <path d="M126.814,153.152 L136.221,153.152 L136.221,143.745 L126.814,143.745 L126.814,153.152" fill="#65CB5E"/>
          <path d="M136.221,153.152 L145.628,153.152 L145.628,143.745 L136.221,143.745 L136.221,153.152" fill="#75D054"/>
          <path d="M145.628,153.152 L155.035,153.152 L155.035,143.745 L145.628,143.745 L145.628,153.152" fill="#84D44B"/>
          <path d="M155.035,153.152 L164.441,153.152 L164.441,143.745 L155.035,143.745 L155.035,153.152" fill="#95D840"/>
          <path d="M164.441,153.152 L173.848,153.152 L173.848,143.745 L164.441,143.745 L164.441,153.152" fill="#A8DB34"/>
          <path d="M173.848,153.152 L183.255,153.152 L183.255,143.745 L173.848,143.745 L173.848,153.152" fill="#BADE28"/>
          <path d="M183.255,153.152 L192.662,153.152 L192.662,143.745 L183.255,143.745 L183.255,153.152" fill="#CAE11F"/>
          <path d="M192.662,153.152 L202.069,153.152 L202.069,143.745 L192.662,143.745 L192.662,153.152" fill="#DDE318"/>
          <path d="M13.931,143.745 L23.338,143.745 L23.338,134.338 L13.931,134.338 L13.931,143.745" fill="#238A8D"/>
          <path d="M23.338,143.745 L32.745,143.745 L32.745,134.338 L23.338,134.338 L23.338,143.745" fill="#21908D"/>
          <path d="M32.745,143.745 L42.152,143.745 L42.152,134.338 L32.745,134.338 L32.745,143.745" fill="#1F968B"/>
          <path d="M42.152,143.745 L51.559,143.745 L51.559,134.338 L42.152,134.338 L42.152,143.745" fill="#1E9D89"/>
          <path d="M51.559,143.745 L60.965,143.745 L60.965,134.338 L51.559,134.338 L51.559,143.745" fill="#20A386"/>
          <path d="M60.965,143.745 L70.372,143.745 L70.372,134.338 L60.965,134.338 L60.965,143.745" fill="#23A983"/>
          <path d="M70.372,143.745 L79.779,143.745 L79.779,134.338 L70.372,134.338 L70.372,143.745" fill="#29AF7F"/>
          <path d="M79.779,143.745 L89.186,143.745 L89.186,134.338 L79.779,134.338 L79.779,143.745" fill="#32B67A"/>
          <path d="M89.186,143.745 L98.593,143.745 L98.593,134.338 L89.186,134.338 L89.186,143.745" fill="#3DBC74"/>
          <path d="M98.593,143.745 L108,143.745 L108,134.338 L98.593,134.338 L98.593,143.745" fill="#48C16E"/>
          <path d="M108,143.745 L117.407,143.745 L117.407,134.338 L108,134.338 L108,143.745" fill="#56C667"/>
          <path d="M117.407,143.745 L126.814,143.745 L126.814,134.338 L117.407,134.338 L117.407,143.745" fill="#65CB5E"/>
          <path d="M126.814,143.745 L136.221,143.745 L136.221,134.338 L126.814,134.338 L126.814,143.745" fill="#75D054"/>
          <path d="M136.221,143.745 L145.628,143.745 L145.628,134.338 L136.221,134.338 L136.221,143.745" fill="#84D44B"/>
          <path d="M145.628,143.745 L155.035,143.745 L155.035,134.338 L145.628,134.338 L145.628,143.745" fill="#95D840"/>
          <path d="M155.035,143.745 L164.441,143.745 L164.441,134.338 L155.035,134.338 L155.035,143.745" fill="#A8DB34"/>
          <path d="M164.441,143.745 L173.848,143.745 L173.848,134.338 L164.441,134.338 L164.441,143.745" fill="#BADE28"/>
          <path d="M173.848,143.745 L183.255,143.745 L183.255,134.338 L173.848,134.338 L173.848,143.745" fill="#CAE11F"/>
          <path d="M183.255,143.745 L192.662,143.745 L192.662,134.338 L183.255,134.338 L183.255,143.745" fill="#DDE318"/>
          <path d="M192.662,143.745 L202.069,143.745 L202.069,134.338 L192.662,134.338 L192.662,143.745" fill="#EFE51C"/>
          <path d="M13.931,134.338 L23.338,134.338 L23.338,124.931 L13.931,124.931 L13.931,134.338" fill="#21918C"/>
          <path d="M23.338,134.338 L32.745,134.338 L32.745,124.931 L23.338,124.931 L23.338,134.338" fill="#1F968B"/>
          <path d="M32.745,134.338 L42.152,134.338 L42.152,124.931 L32.745,124.931 L32.745,134.338" fill="#1E9D89"/>
          <path d="M42.152,134.338 L51.559,134.338 L51.559,124.931 L42.152,124.931 L42.152,134.338" fill="#20A386"/>
          <path d="M51.559,134.338 L60.965,134.338 L60.965,124.931 L51.559,124.931 L51.559,134.338" fill="#23A983"/>
          <path d="M60.965,134.338 L70.372,134.338 L70.372,124.931 L60.965,124.931 L60.965,134.338" fill="#29AF7F"/>
          <path d="M70.372,134.338 L79.779,134.338 L79.779,124.931 L70.372,124.931 L70.372,134.338" fill="#32B67A"/>
          <path d="M79.779,134.338 L89.186,134.338 L89.186,124.931 L79.779,124.931 L79.779,134.338" fill="#3DBC74"/>
          <path d="M89.186,134.338 L98.593,134.338 L98.593,124.931 L89.186,124.931 L89.186,134.338" fill="#48C16E"/>
          <path d="M98.593,134.338 L108,134.338 L108,124.931 L98.593,124.931 L98.593,134.338" fill="#56C667"/>
          <path d="M108,134.338 L117.407,134.338 L117.407,124.931 L108,124.931 L108,134.338" fill="#65CB5E"/>
          <path d="M117.407,134.338 L126.814,134.338 L126.814,124.931 L117.407,124.931 L117.407,134.338" fill="#75D054"/>
          <path d="M126.814,134.338 L136.221,134.338 L136.221,124.931 L126.814,124.931 L126.814,134.338" fill="#84D44B"/>
          <path d="M136.221,134.338 L145.628,134.338 L145.628,124.931 L136.221,124.931 L136.221,134.338" fill="#95D840"/>
          <path d="M145.628,134.338 L155.035,134.338 L155.035,124.931 L145.628,124.931 L145.628,134.338" fill="#A8DB34"/>
          <path d="M155.035,134.338 L164.441,134.338 L164.441,124.931 L155.035,124.931 L155.035,134.338" fill="#BADE28"/>
          <path d="M164.441,134.338 L173.848,134.338 L173.848,124.931 L164.441,124.931 L164.441,134.338" fill="#CAE11F"/>
          <path d="M173.848,134.338 L183.255,134.338 L183.255,124.931 L173.848,124.931 L173.848,134.338" fill="#DDE318"/>
          <path d="M183.255,134.338 L192.662,134.338 L192.662,124.931 L183.255,124.931 L183.255,134.338" fill="#EFE51C"/>
          <path d="M192.662,134.338 L202.069,134.338 L202.069,124.931 L192.662,124.931 L192.662,134.338" fill="#FDE725"/>
        </g>
        <path d="M14.431,266.535 L23.838,275.941 L33.245,285.348 L42.652,294.755 L52.059,304.162 L61.465,313.569" fill-opacity="0" stroke="#440154" stroke-width="1.5" stroke-linejoin="round"/>
        <path d="M14.431,219.5 L23.838,228.907 L33.245,238.314 L42.652,247.721 L42.652,247.721 L52.058,257.128 L52.058,257.128 L61.465,266.535 L70.872,275.941 L70.872,275.941 L80.279,285.348 L80.279,285.348 L89.686,294.755 L99.093,304.162 L108.5,313.569" fill-opacity="0" stroke="#443983" stroke-width="1.5" stroke-linejoin="round"/>
        <path d="M14.431,172.465 L23.838,181.872 L23.838,181.872 L33.245,191.279 L42.652,200.686 L42.652,200.686 L52.058,210.093 L52.058,210.093 L61.465,219.5 L70.872,228.907 L70.872,228.907 L80.279,238.314 L80.279,238.314 L89.686,247.721 L89.686,247.721 L99.093,257.128 L99.093,257.128 L108.5,266.535 L117.907,275.941 L117.907,275.941 L127.314,285.348 L127.314,285.348 L136.721,294.755 L146.128,304.162 L146.128,304.162 L155.535,313.569" fill-opacity="0" stroke="#31688E" stroke-width="1.5" stroke-linejoin="round"/>
        <path d="M14.431,125.431 L23.838,134.838 L23.838,134.838 L33.245,144.245 L42.652,153.652 L42.652,153.652 L52.058,163.059 L52.058,163.059 L61.465,172.465 L70.872,181.872 L70.872,181.872 L80.279,191.279 L80.279,191.279 L89.686,200.686 L89.686,200.686 L99.093,210.093 L99.093,210.093 L108.5,219.5 L117.907,228.907 L117.907,228.907 L127.314,238.314 L127.314,238.314 L136.721,247.721 L136.721,247.721 L146.128,257.128 L146.128,257.128 L155.535,266.535 L164.941,275.941 L164.941,275.941 L174.348,285.348 L174.348,285.348 L183.755,294.755 L193.162,304.162 L193.162,304.162 L202.569,313.569" fill-opacity="0" stroke="#21918C" stroke-width="1.5" stroke-linejoin="round"/>
        <path d="M61.465,125.431 L70.872,134.838 L70.872,134.838 L80.279,144.245 L80.279,144.245 L89.686,153.652 L89.686,153.652 L99.093,163.059 L99.093,163.059 L108.5,172.465 L117.907,181.872 L117.907,181.872 L127.314,191.279 L127.314,191.279 L136.721,200.686 L136.721,200.686 L146.128,210.093 L146.128,210.093 L155.535,219.5 L164.941,228.907 L164.941,228.907 L174.348,238.314 L174.348,238.314 L183.755,247.721 L183.755,247.721 L193.162,257.128 L193.162,257.128 L202.569,266.535" fill-opacity="0" stroke="#35B779" stroke-width="1.5" stroke-linejoin="round"/>
        <path d="M108.5,125.431 L117.907,134.838 L117.907,134.838 L127.314,144.245 L127.314,144.245 L136.721,153.652 L136.721,153.652 L146.128,163.059 L146.128,163.059 L155.535,172.465 L164.941,181.872 L164.941,181.872 L174.348,191.279 L174.348,191.279 L183.755,200.686 L183.755,200.686 L193.162,210.093 L193.162,210.093 L202.569,219.5" fill-opacity="0" stroke="#90D743" stroke-width="1.5" stroke-linejoin="round"/>
        <path d="M155.535,125.431 L164.941,134.838 L164.941,134.838 L174.348,144.245 L174.348,144.245 L183.755,153.652 L183.755,153.652 L193.162,163.059 L193.162,163.059 L202.569,172.465" fill-opacity="0" stroke="#FDE725" stroke-width="1.5" stroke-linejoin="round"/>
        <path d="M13.82,314.18 L13.82,124.82" fill-opacity="0" stroke="#000000" stroke-width="0.8" stroke-linecap="square"/>
        <path d="M203.18,314.18 L203.18,124.82" fill-opacity="0" stroke="#000000" stroke-width="0.8" stroke-linecap="square"/>
        <path d="M13.82,314.18 L203.18,314.18" fill-opacity="0" stroke="#000000" stroke-width="0.8" stroke-linecap="square"/>
        <path d="M13.82,124.82 L203.18,124.82" fill-opacity="0" stroke="#000000" stroke-width="0.8" stroke-linecap="square"/>
      </g>
    </g>
  </g>
</svg>
