<?xml version="1.0" encoding="UTF-8"?>
<!DOCTYPE svg PUBLIC "-//W3C//DTD SVG 1.1//EN" "http://www.w3.org/Graphics/SVG/1.1/DTD/svg11.dtd">
<svg version="1.1" xmlns="http://www.w3.org/2000/svg" xmlns:xlink="http://www.w3.org/1999/xlink" x="0" y="0" width="283.465" height="283.465" viewBox="0, 0, 283.465, 283.465">
  <g id="Background">
    <rect x="0" y="0" width="283.465" height="283.465" fill="#FFFFFF"/>
  </g>
  <g id="Layer_1">
    <g>
      <path d="M28.846,26.02 L43.02,26.02 L43.02,252.791 L28.846,252.791 L28.846,26.02 z" fill="#DDDDDD"/>
      <path d="M28.846,26.02 L43.02,26.02 L43.02,252.791 L28.846,252.791 L28.846,26.02 z" fill-opacity="0" stroke="#000000" stroke-width="1.5"/>
    </g>
    <g>
      <path d="M241.445,26.02 L255.618,26.02 L255.618,252.791 L241.445,252.791 L241.445,26.02 z" fill="#DDDDDD"/>
      <path d="M241.445,26.02 L255.618,26.02 L255.618,252.791 L241.445,252.791 L241.445,26.02 z" fill-opacity="0" stroke="#000000" stroke-width="1.5"/>
    </g>
    <g id="Layer_1">
      <g>
        <path d="M16.537,6.497 C17.123,5.564 17.625,5.528 18.067,5.505 C18.211,5.493 18.223,5.289 18.223,5.277 C18.223,5.182 18.163,5.134 18.067,5.134 C17.756,5.134 17.41,5.17 17.087,5.17 C16.692,5.17 16.286,5.134 15.903,5.134 C15.832,5.134 15.676,5.134 15.676,5.361 C15.676,5.493 15.784,5.505 15.868,5.505 C16.19,5.528 16.418,5.648 16.418,5.899 C16.418,6.078 16.238,6.341 16.238,6.353 L12.568,12.187 L11.755,5.863 C11.755,5.66 12.03,5.505 12.58,5.505 C12.747,5.505 12.879,5.505 12.879,5.265 C12.879,5.158 12.783,5.134 12.711,5.134 C12.233,5.134 11.719,5.17 11.229,5.17 C11.014,5.17 10.787,5.158 10.571,5.158 C10.356,5.158 10.129,5.134 9.926,5.134 C9.842,5.134 9.699,5.134 9.699,5.361 C9.699,5.505 9.806,5.505 9.998,5.505 C10.667,5.505 10.679,5.612 10.715,5.911 L11.659,13.287 C11.695,13.526 11.743,13.562 11.898,13.562 C12.09,13.562 12.138,13.502 12.233,13.347 z" fill="#000000"/>
        <path d="M22.616,16.168 C22.616,16.133 22.616,16.109 22.413,15.905 C20.919,14.399 20.536,12.14 20.536,10.31 C20.536,8.23 20.99,6.15 22.461,4.656 C22.616,4.512 22.616,4.488 22.616,4.452 C22.616,4.369 22.569,4.333 22.497,4.333 C22.377,4.333 21.301,5.146 20.596,6.664 C19.986,7.979 19.843,9.306 19.843,10.31 C19.843,11.243 19.974,12.69 20.632,14.04 C21.349,15.511 22.377,16.288 22.497,16.288 C22.569,16.288 22.616,16.252 22.616,16.168 z" fill="#000000"/>
        <path d="M28.808,9.474 C28.808,8.517 28.748,7.561 28.33,6.676 C27.78,5.528 26.799,5.337 26.297,5.337 C25.58,5.337 24.707,5.648 24.217,6.76 C23.835,7.585 23.775,8.517 23.775,9.474 C23.775,10.37 23.823,11.446 24.313,12.355 C24.827,13.323 25.7,13.562 26.285,13.562 C26.931,13.562 27.84,13.311 28.366,12.175 C28.748,11.351 28.808,10.418 28.808,9.474 z M26.285,13.299 C25.819,13.299 25.114,13 24.899,11.853 C24.767,11.135 24.767,10.036 24.767,9.33 C24.767,8.565 24.767,7.776 24.863,7.13 C25.09,5.708 25.987,5.6 26.285,5.6 C26.68,5.6 27.469,5.815 27.696,6.999 C27.816,7.668 27.816,8.577 27.816,9.33 C27.816,10.227 27.816,11.04 27.684,11.805 C27.505,12.941 26.823,13.299 26.285,13.299 z" fill="#000000"/>
        <path d="M32.741,10.31 C32.741,9.378 32.61,7.931 31.952,6.58 C31.235,5.11 30.207,4.333 30.087,4.333 C30.015,4.333 29.968,4.381 29.968,4.452 C29.968,4.488 29.968,4.512 30.195,4.727 C31.366,5.911 32.048,7.812 32.048,10.31 C32.048,12.355 31.605,14.459 30.123,15.965 C29.968,16.109 29.968,16.133 29.968,16.168 C29.968,16.24 30.015,16.288 30.087,16.288 C30.207,16.288 31.283,15.475 31.988,13.957 C32.598,12.642 32.741,11.315 32.741,10.31 z" fill="#000000"/>
        <path d="M45.472,9.39 C45.652,9.39 45.879,9.39 45.879,9.151 C45.879,8.912 45.652,8.912 45.484,8.912 L38.323,8.912 C38.156,8.912 37.929,8.912 37.929,9.151 C37.929,9.39 38.156,9.39 38.335,9.39 z M45.484,11.709 C45.652,11.709 45.879,11.709 45.879,11.47 C45.879,11.231 45.652,11.231 45.472,11.231 L38.335,11.231 C38.156,11.231 37.929,11.231 37.929,11.47 C37.929,11.709 38.156,11.709 38.323,11.709 z" fill="#000000"/>
        <path d="M57.384,6.497 C57.97,5.564 58.472,5.528 58.914,5.505 C59.058,5.493 59.07,5.289 59.07,5.277 C59.07,5.182 59.01,5.134 58.914,5.134 C58.603,5.134 58.257,5.17 57.934,5.17 C57.539,5.17 57.133,5.134 56.75,5.134 C56.679,5.134 56.523,5.134 56.523,5.361 C56.523,5.493 56.631,5.505 56.714,5.505 C57.037,5.528 57.264,5.648 57.264,5.899 C57.264,6.078 57.085,6.341 57.085,6.353 L53.415,12.187 L52.602,5.863 C52.602,5.66 52.877,5.505 53.427,5.505 C53.594,5.505 53.726,5.505 53.726,5.265 C53.726,5.158 53.63,5.134 53.558,5.134 C53.08,5.134 52.566,5.17 52.076,5.17 C51.861,5.17 51.633,5.158 51.418,5.158 C51.203,5.158 50.976,5.134 50.773,5.134 C50.689,5.134 50.546,5.134 50.546,5.361 C50.546,5.505 50.653,5.505 50.844,5.505 C51.514,5.505 51.526,5.612 51.562,5.911 L52.506,13.287 C52.542,13.526 52.59,13.562 52.745,13.562 C52.937,13.562 52.984,13.502 53.08,13.347 z" fill="#000000"/>
        <path d="M61.167,12.424 C61.167,11.503 61.059,10.842 60.674,10.256 C60.414,9.871 59.895,9.537 59.226,9.537 C57.284,9.537 57.284,11.821 57.284,12.424 C57.284,13.026 57.284,15.261 59.226,15.261 C61.167,15.261 61.167,13.026 61.167,12.424 z M59.226,15.026 C58.841,15.026 58.33,14.8 58.163,14.114 C58.046,13.62 58.046,12.934 58.046,12.315 C58.046,11.704 58.046,11.068 58.171,10.608 C58.347,9.947 58.883,9.771 59.226,9.771 C59.678,9.771 60.113,10.047 60.264,10.532 C60.398,10.984 60.406,11.587 60.406,12.315 C60.406,12.934 60.406,13.553 60.297,14.081 C60.13,14.842 59.561,15.026 59.226,15.026 z" fill="#000000"/>
      </g>
    </g>
    <g id="Layer_1">
      <g>
        <path d="M231.906,6.497 C232.492,5.564 232.994,5.528 233.436,5.505 C233.579,5.493 233.591,5.289 233.591,5.277 C233.591,5.182 233.532,5.134 233.436,5.134 C233.125,5.134 232.778,5.17 232.456,5.17 C232.061,5.17 231.655,5.134 231.272,5.134 C231.2,5.134 231.045,5.134 231.045,5.361 C231.045,5.493 231.153,5.505 231.236,5.505 C231.559,5.528 231.786,5.648 231.786,5.899 C231.786,6.078 231.607,6.341 231.607,6.353 L227.937,12.187 L227.124,5.863 C227.124,5.66 227.399,5.505 227.949,5.505 C228.116,5.505 228.247,5.505 228.247,5.265 C228.247,5.158 228.152,5.134 228.08,5.134 C227.602,5.134 227.088,5.17 226.598,5.17 C226.382,5.17 226.155,5.158 225.94,5.158 C225.725,5.158 225.498,5.134 225.295,5.134 C225.211,5.134 225.067,5.134 225.067,5.361 C225.067,5.505 225.175,5.505 225.366,5.505 C226.036,5.505 226.048,5.612 226.084,5.911 L227.028,13.287 C227.064,13.526 227.112,13.562 227.267,13.562 C227.458,13.562 227.506,13.502 227.602,13.347 z" fill="#000000"/>
        <path d="M237.985,16.168 C237.985,16.133 237.985,16.109 237.782,15.905 C236.287,14.399 235.905,12.14 235.905,10.31 C235.905,8.23 236.359,6.15 237.83,4.656 C237.985,4.512 237.985,4.488 237.985,4.452 C237.985,4.369 237.937,4.333 237.866,4.333 C237.746,4.333 236.67,5.146 235.965,6.664 C235.355,7.979 235.212,9.306 235.212,10.31 C235.212,11.243 235.343,12.69 236.001,14.04 C236.718,15.511 237.746,16.288 237.866,16.288 C237.937,16.288 237.985,16.252 237.985,16.168 z" fill="#000000"/>
        <path d="M244.847,5.134 C244.847,5.122 244.847,5.002 244.691,5.002 C244.512,5.002 243.376,5.11 243.173,5.134 C243.077,5.146 243.006,5.206 243.006,5.361 C243.006,5.505 243.113,5.505 243.293,5.505 C243.866,5.505 243.89,5.588 243.89,5.708 L243.855,5.947 L243.137,8.78 C242.922,8.338 242.575,8.015 242.037,8.015 C240.639,8.015 239.156,9.772 239.156,11.518 C239.156,12.642 239.814,13.431 240.746,13.431 C240.985,13.431 241.583,13.383 242.3,12.534 C242.396,13.036 242.814,13.431 243.388,13.431 C243.807,13.431 244.082,13.156 244.273,12.773 C244.476,12.343 244.632,11.614 244.632,11.59 C244.632,11.47 244.524,11.47 244.488,11.47 C244.369,11.47 244.357,11.518 244.321,11.685 C244.118,12.462 243.902,13.168 243.412,13.168 C243.089,13.168 243.054,12.857 243.054,12.618 C243.054,12.331 243.077,12.247 243.125,12.044 z M242.36,11.877 C242.3,12.092 242.3,12.116 242.121,12.319 C241.595,12.976 241.105,13.168 240.77,13.168 C240.172,13.168 240.005,12.51 240.005,12.044 C240.005,11.446 240.388,9.976 240.662,9.426 C241.033,8.72 241.571,8.278 242.049,8.278 C242.826,8.278 242.994,9.258 242.994,9.33 C242.994,9.402 242.97,9.474 242.958,9.533 z" fill="#000000"/>
        <path d="M248.355,10.31 C248.355,9.378 248.223,7.931 247.566,6.58 C246.849,5.11 245.82,4.333 245.701,4.333 C245.629,4.333 245.581,4.381 245.581,4.452 C245.581,4.488 245.581,4.512 245.809,4.727 C246.98,5.911 247.662,7.812 247.662,10.31 C247.662,12.355 247.219,14.459 245.737,15.965 C245.581,16.109 245.581,16.133 245.581,16.168 C245.581,16.24 245.629,16.288 245.701,16.288 C245.82,16.288 246.896,15.475 247.602,13.957 C248.212,12.642 248.355,11.315 248.355,10.31 z" fill="#000000"/>
        <path d="M261.086,9.39 C261.265,9.39 261.492,9.39 261.492,9.151 C261.492,8.912 261.265,8.912 261.098,8.912 L253.937,8.912 C253.769,8.912 253.542,8.912 253.542,9.151 C253.542,9.39 253.769,9.39 253.949,9.39 z M261.098,11.709 C261.265,11.709 261.492,11.709 261.492,11.47 C261.492,11.231 261.265,11.231 261.086,11.231 L253.949,11.231 C253.769,11.231 253.542,11.231 253.542,11.47 C253.542,11.709 253.769,11.709 253.937,11.709 z" fill="#000000"/>
        <path d="M270.996,9.474 C270.996,8.517 270.936,7.561 270.517,6.676 C269.967,5.528 268.987,5.337 268.485,5.337 C267.768,5.337 266.895,5.648 266.405,6.76 C266.022,7.585 265.962,8.517 265.962,9.474 C265.962,10.37 266.01,11.446 266.5,12.355 C267.015,13.323 267.887,13.562 268.473,13.562 C269.119,13.562 270.027,13.311 270.553,12.175 C270.936,11.351 270.996,10.418 270.996,9.474 z M268.473,13.299 C268.007,13.299 267.301,13 267.086,11.853 C266.955,11.135 266.955,10.036 266.955,9.33 C266.955,8.565 266.955,7.776 267.05,7.13 C267.278,5.708 268.174,5.6 268.473,5.6 C268.868,5.6 269.657,5.815 269.884,6.999 C270.003,7.668 270.003,8.577 270.003,9.33 C270.003,10.227 270.003,11.04 269.872,11.805 C269.692,12.941 269.011,13.299 268.473,13.299 z" fill="#000000"/>
      </g>
    </g>
    <g>
      <path d="M10.199,262.042 L269.865,262.042" fill-opacity="0" stroke="#000000" stroke-width="1"/>
      <path d="M269.865,265.042 L277.865,262.042 L269.865,259.042 z" fill="#000000" fill-opacity="1" stroke="#000000" stroke-width="1" stroke-opacity="1"/>
    </g>
    <text transform="matrix(1, 0, 0, 1, 273.356, 252.516)">
      <tspan x="-3.006" y="-1" font-family="Georgia-Italic" font-size="12" fill="#000000">x</tspan>
    </text>
    <path d="M241.445,266.708 L241.445,257.375" fill-opacity="0" stroke="#000000" stroke-width="0.75"/>
    <path d="M43.02,266.708 L43.02,257.375" fill-opacity="0" stroke="#000000" stroke-width="0.75"/>
    <path d="M243.79,268.34 C243.79,268.328 243.79,268.208 243.635,268.208 C243.455,268.208 242.32,268.316 242.116,268.34 C242.021,268.352 241.949,268.412 241.949,268.567 C241.949,268.71 242.057,268.71 242.236,268.71 C242.81,268.71 242.834,268.794 242.834,268.914 L242.798,269.153 L242.081,271.986 C241.865,271.544 241.519,271.221 240.981,271.221 C239.582,271.221 238.1,272.978 238.1,274.724 C238.1,275.848 238.757,276.637 239.69,276.637 C239.929,276.637 240.526,276.589 241.244,275.74 C241.339,276.242 241.758,276.637 242.332,276.637 C242.75,276.637 243.025,276.362 243.216,275.979 C243.42,275.549 243.575,274.82 243.575,274.796 C243.575,274.676 243.467,274.676 243.432,274.676 C243.312,274.676 243.3,274.724 243.264,274.891 C243.061,275.668 242.846,276.374 242.356,276.374 C242.033,276.374 241.997,276.063 241.997,275.824 C241.997,275.537 242.021,275.453 242.069,275.25 z M241.304,275.083 C241.244,275.298 241.244,275.322 241.064,275.525 C240.538,276.182 240.048,276.374 239.714,276.374 C239.116,276.374 238.948,275.716 238.948,275.25 C238.948,274.652 239.331,273.182 239.606,272.632 C239.977,271.926 240.514,271.484 240.993,271.484 C241.77,271.484 241.937,272.464 241.937,272.536 C241.937,272.608 241.913,272.68 241.901,272.739 z" fill="#000000"/>
    <path d="M45.036,272.446 C45.036,271.49 44.976,270.534 44.558,269.649 C44.008,268.501 43.028,268.31 42.526,268.31 C41.808,268.31 40.936,268.621 40.445,269.733 C40.063,270.558 40.003,271.49 40.003,272.446 C40.003,273.343 40.051,274.419 40.541,275.328 C41.055,276.296 41.928,276.535 42.514,276.535 C43.159,276.535 44.068,276.284 44.594,275.148 C44.976,274.323 45.036,273.391 45.036,272.446 z M42.514,276.272 C42.047,276.272 41.342,275.973 41.127,274.826 C40.995,274.108 40.995,273.008 40.995,272.303 C40.995,271.538 40.995,270.749 41.091,270.103 C41.318,268.681 42.215,268.573 42.514,268.573 C42.908,268.573 43.697,268.788 43.924,269.972 C44.044,270.641 44.044,271.55 44.044,272.303 C44.044,273.2 44.044,274.013 43.912,274.778 C43.733,275.913 43.052,276.272 42.514,276.272 z" fill="#000000"/>
  </g>
</svg>
