<?xml version="1.0" encoding="UTF-8"?>
<!DOCTYPE svg PUBLIC "-//W3C//DTD SVG 1.1//EN" "http://www.w3.org/Graphics/SVG/1.1/DTD/svg11.dtd">
<svg version="1.1" xmlns="http://www.w3.org/2000/svg" xmlns:xlink="http://www.w3.org/1999/xlink" x="0" y="0" width="340.158" height="226.772" viewBox="0, 0, 340.158, 226.772">
  <g id="Background">
    <rect x="0" y="0" width="340.158" height="226.772" fill="#FFFFFF"/>
  </g>
  <g id="Layer_1">
    <g>
      <g>
        <path d="M62.722,205.584 L62.722,35.503 L289.496,35.503 L289.496,117.709 L232.803,117.709 L232.803,63.85 L119.415,63.85 L119.415,177.237 L232.803,177.237 L232.803,123.378 L289.496,123.378 L289.496,205.584 L62.722,205.584" fill="#E6E6FF"/>
        <path d="M62.722,205.584 L62.722,35.503 L289.496,35.503 L289.496,117.709 L232.803,117.709 L232.803,63.85 L119.415,63.85 L119.415,177.237 L232.803,177.237 L232.803,123.378 L289.496,123.378 L289.496,205.584 L62.722,205.584" fill-opacity="0" stroke="#000000" stroke-width="1.196"/>
      </g>
      <path d="M64.09,21.33 L288.127,21.33" fill-opacity="0" stroke="#000000" stroke-width="0.797" stroke-dasharray="2.989,1.993"/>
      <g>
        <path d="M70.161,24.055 L63.742,21.33 L70.161,18.605 z" fill="#000000"/>
        <path d="M70.161,24.055 L63.742,21.33 L70.161,18.605 z" fill-opacity="0" stroke="#000000" stroke-width="0.797"/>
      </g>
      <g>
        <path d="M282.056,18.605 L288.476,21.33 L282.056,24.055 z" fill="#000000"/>
        <path d="M282.056,18.605 L288.476,21.33 L282.056,24.055 z" fill-opacity="0" stroke="#000000" stroke-width="0.797"/>
      </g>
      <path d="M174.658,11.813 C174.156,11.485 174.112,11.114 174.112,10.929 C174.112,10.263 174.821,9.805 175.596,9.805 C176.392,9.805 177.091,10.373 177.091,11.158 C177.091,11.78 176.665,12.303 176.011,12.685 z M176.251,12.849 C177.036,12.445 177.571,11.878 177.571,11.158 C177.571,10.154 176.6,9.533 175.607,9.533 C174.516,9.533 173.632,10.34 173.632,11.354 C173.632,11.551 173.654,12.042 174.112,12.554 C174.232,12.685 174.636,12.958 174.909,13.143 C174.276,13.46 173.338,14.071 173.338,15.151 C173.338,16.307 174.451,17.038 175.596,17.038 C176.829,17.038 177.865,16.133 177.865,14.965 C177.865,14.573 177.745,14.082 177.331,13.623 C177.123,13.394 176.949,13.285 176.251,12.849 z M175.16,13.307 L176.501,14.158 C176.807,14.365 177.32,14.693 177.32,15.358 C177.32,16.165 176.501,16.733 175.607,16.733 C174.669,16.733 173.883,16.056 173.883,15.151 C173.883,14.518 174.232,13.82 175.16,13.307 z" fill="#000000"/>
      <path d="M303.669,204.215 L303.669,36.872" fill-opacity="0" stroke="#000000" stroke-width="0.797" stroke-dasharray="2.989,1.993"/>
      <g>
        <path d="M306.394,198.144 L303.669,204.564 L300.945,198.144 z" fill="#000000"/>
        <path d="M306.394,198.144 L303.669,204.564 L300.945,198.144 z" fill-opacity="0" stroke="#000000" stroke-width="0.797"/>
      </g>
      <g>
        <path d="M300.945,42.943 L303.669,36.523 L306.394,42.943 z" fill="#000000"/>
        <path d="M300.945,42.943 L303.669,36.523 L306.394,42.943 z" fill-opacity="0" stroke="#000000" stroke-width="0.797"/>
      </g>
      <path d="M308.641,119.982 L308.641,119.72 C308.641,116.96 309.993,116.567 310.55,116.567 C310.812,116.567 311.27,116.633 311.51,117.004 C311.346,117.004 310.91,117.004 310.91,117.495 C310.91,117.833 311.172,117.996 311.411,117.996 C311.586,117.996 311.913,117.898 311.913,117.473 C311.913,116.818 311.433,116.295 310.528,116.295 C309.132,116.295 307.659,117.702 307.659,120.113 C307.659,123.025 308.924,123.8 309.939,123.8 C311.15,123.8 312.186,122.775 312.186,121.335 C312.186,119.949 311.215,118.902 310.004,118.902 C309.262,118.902 308.859,119.458 308.641,119.982 z M309.939,123.495 C309.252,123.495 308.924,122.84 308.859,122.676 C308.662,122.164 308.662,121.291 308.662,121.095 C308.662,120.244 309.012,119.153 309.993,119.153 C310.168,119.153 310.67,119.153 311.008,119.829 C311.204,120.233 311.204,120.789 311.204,121.324 C311.204,121.847 311.204,122.393 311.019,122.785 C310.692,123.44 310.19,123.495 309.939,123.495 z" fill="#000000"/>
      <path d="M133.589,175.868 L133.589,65.219" fill-opacity="0" stroke="#000000" stroke-width="0.797" stroke-dasharray="2.989,1.993"/>
      <g>
        <path d="M136.314,169.797 L133.589,176.217 L130.864,169.797 z" fill="#000000"/>
        <path d="M136.314,169.797 L133.589,176.217 L130.864,169.797 z" fill-opacity="0" stroke="#000000" stroke-width="0.797"/>
      </g>
      <g>
        <path d="M130.864,71.29 L133.589,64.87 L136.314,71.29 z" fill="#000000"/>
        <path d="M130.864,71.29 L133.589,64.87 L136.314,71.29 z" fill-opacity="0" stroke="#000000" stroke-width="0.797"/>
      </g>
      <path d="M140.33,121.76 L140.33,122.709 C140.33,123.102 140.308,123.222 139.501,123.222 L139.272,123.222 L139.272,123.56 C139.719,123.527 140.286,123.527 140.744,123.527 C141.203,123.527 141.781,123.527 142.228,123.56 L142.228,123.222 L141.999,123.222 C141.192,123.222 141.17,123.102 141.17,122.709 L141.17,121.76 L142.261,121.76 L142.261,121.422 L141.17,121.422 L141.17,116.458 C141.17,116.24 141.17,116.175 140.995,116.175 C140.897,116.175 140.864,116.175 140.777,116.305 L137.428,121.422 L137.428,121.76 z M140.395,121.422 L137.734,121.422 L140.395,117.353 z" fill="#000000"/>
      <path d="M120.784,78.023 L231.434,78.023" fill-opacity="0" stroke="#000000" stroke-width="0.797" stroke-dasharray="2.989,1.993"/>
      <g>
        <path d="M126.855,80.748 L120.435,78.023 L126.855,75.298 z" fill="#000000"/>
        <path d="M126.855,80.748 L120.435,78.023 L126.855,75.298 z" fill-opacity="0" stroke="#000000" stroke-width="0.797"/>
      </g>
      <g>
        <path d="M225.363,75.298 L231.782,78.023 L225.363,80.748 z" fill="#000000"/>
        <path d="M225.363,75.298 L231.782,78.023 L225.363,80.748 z" fill-opacity="0" stroke="#000000" stroke-width="0.797"/>
      </g>
      <path d="M176.087,86.79 L176.087,87.739 C176.087,88.132 176.065,88.252 175.258,88.252 L175.029,88.252 L175.029,88.59 C175.476,88.557 176.043,88.557 176.501,88.557 C176.96,88.557 177.538,88.557 177.985,88.59 L177.985,88.252 L177.756,88.252 C176.949,88.252 176.927,88.132 176.927,87.739 L176.927,86.79 L178.018,86.79 L178.018,86.452 L176.927,86.452 L176.927,81.488 C176.927,81.27 176.927,81.205 176.752,81.205 C176.654,81.205 176.621,81.205 176.534,81.335 L173.185,86.452 L173.185,86.79 z M176.152,86.452 L173.491,86.452 L176.152,82.383 z" fill="#000000"/>
      <path d="M176.109,62.481 L176.109,36.872" fill-opacity="0" stroke="#000000" stroke-width="0.797" stroke-dasharray="2.989,1.993"/>
      <g>
        <path d="M178.834,56.41 L176.109,62.83 L173.384,56.41 z" fill="#000000"/>
        <path d="M178.834,56.41 L176.109,62.83 L173.384,56.41 z" fill-opacity="0" stroke="#000000" stroke-width="0.797"/>
      </g>
      <g>
        <path d="M173.384,42.943 L176.109,36.523 L178.834,42.943 z" fill="#000000"/>
        <path d="M173.384,42.943 L176.109,36.523 L178.834,42.943 z" fill-opacity="0" stroke="#000000" stroke-width="0.797"/>
      </g>
      <path d="M182.849,45.712 C182.849,45.45 182.849,45.429 182.598,45.429 C181.922,46.127 180.962,46.127 180.613,46.127 L180.613,46.465 C180.831,46.465 181.474,46.465 182.042,46.181 L182.042,51.832 C182.042,52.225 182.009,52.356 181.027,52.356 L180.678,52.356 L180.678,52.694 C181.06,52.661 182.009,52.661 182.445,52.661 C182.882,52.661 183.831,52.661 184.213,52.694 L184.213,52.356 L183.863,52.356 C182.882,52.356 182.849,52.236 182.849,51.832 z" fill="#000000"/>
      <path d="M176.109,204.215 L176.109,178.606" fill-opacity="0" stroke="#000000" stroke-width="0.797" stroke-dasharray="2.989,1.993"/>
      <g>
        <path d="M178.834,198.144 L176.109,204.564 L173.384,198.144 z" fill="#000000"/>
        <path d="M178.834,198.144 L176.109,204.564 L173.384,198.144 z" fill-opacity="0" stroke="#000000" stroke-width="0.797"/>
      </g>
      <g>
        <path d="M173.384,184.677 L176.109,178.257 L178.834,184.677 z" fill="#000000"/>
        <path d="M173.384,184.677 L176.109,178.257 L178.834,184.677 z" fill-opacity="0" stroke="#000000" stroke-width="0.797"/>
      </g>
      <path d="M182.849,187.444 C182.849,187.182 182.849,187.161 182.598,187.161 C181.922,187.859 180.962,187.859 180.613,187.859 L180.613,188.197 C180.831,188.197 181.474,188.197 182.042,187.913 L182.042,193.564 C182.042,193.957 182.009,194.088 181.027,194.088 L180.678,194.088 L180.678,194.426 C181.06,194.393 182.009,194.393 182.445,194.393 C182.882,194.393 183.831,194.393 184.213,194.426 L184.213,194.088 L183.863,194.088 C182.882,194.088 182.849,193.968 182.849,193.564 z" fill="#000000"/>
      <path d="M234.171,163.064 L288.127,163.064" fill-opacity="0" stroke="#000000" stroke-width="0.797" stroke-dasharray="2.989,1.993"/>
      <g>
        <path d="M240.242,165.789 L233.823,163.064 L240.242,160.339 z" fill="#000000"/>
        <path d="M240.242,165.789 L233.823,163.064 L240.242,160.339 z" fill-opacity="0" stroke="#000000" stroke-width="0.797"/>
      </g>
      <g>
        <path d="M282.056,160.339 L288.476,163.064 L282.056,165.789 z" fill="#000000"/>
        <path d="M282.056,160.339 L288.476,163.064 L282.056,165.789 z" fill-opacity="0" stroke="#000000" stroke-width="0.797"/>
      </g>
      <path d="M259.305,172.789 L260.461,171.665 C262.163,170.16 262.818,169.571 262.818,168.48 C262.818,167.236 261.836,166.364 260.505,166.364 C259.272,166.364 258.465,167.367 258.465,168.338 C258.465,168.949 259.01,168.949 259.043,168.949 C259.229,168.949 259.611,168.818 259.611,168.371 C259.611,168.087 259.414,167.804 259.032,167.804 C258.945,167.804 258.923,167.804 258.891,167.814 C259.141,167.105 259.73,166.702 260.363,166.702 C261.356,166.702 261.825,167.585 261.825,168.48 C261.825,169.353 261.28,170.214 260.68,170.891 L258.585,173.225 C258.465,173.345 258.465,173.367 258.465,173.629 L262.512,173.629 L262.818,171.731 L262.545,171.731 C262.491,172.058 262.414,172.538 262.305,172.702 C262.229,172.789 261.509,172.789 261.269,172.789 z" fill="#000000"/>
      <path d="M64.09,78.023 L118.046,78.023" fill-opacity="0" stroke="#000000" stroke-width="0.797" stroke-dasharray="2.989,1.993"/>
      <g>
        <path d="M70.161,80.748 L63.742,78.023 L70.161,75.298 z" fill="#000000"/>
        <path d="M70.161,80.748 L63.742,78.023 L70.161,75.298 z" fill-opacity="0" stroke="#000000" stroke-width="0.797"/>
      </g>
      <g>
        <path d="M111.976,75.298 L118.395,78.023 L111.976,80.748 z" fill="#000000"/>
        <path d="M111.976,75.298 L118.395,78.023 L111.976,80.748 z" fill-opacity="0" stroke="#000000" stroke-width="0.797"/>
      </g>
      <path d="M89.226,72.651 L90.382,71.527 C92.084,70.022 92.739,69.433 92.739,68.342 C92.739,67.098 91.757,66.226 90.426,66.226 C89.193,66.226 88.386,67.229 88.386,68.2 C88.386,68.811 88.932,68.811 88.964,68.811 C89.15,68.811 89.532,68.68 89.532,68.233 C89.532,67.949 89.335,67.666 88.953,67.666 C88.866,67.666 88.844,67.666 88.812,67.676 C89.062,66.967 89.652,66.564 90.284,66.564 C91.277,66.564 91.746,67.447 91.746,68.342 C91.746,69.215 91.201,70.076 90.601,70.753 L88.506,73.087 C88.386,73.207 88.386,73.229 88.386,73.491 L92.433,73.491 L92.739,71.593 L92.466,71.593 C92.412,71.92 92.335,72.4 92.226,72.564 C92.15,72.651 91.43,72.651 91.19,72.651 z" fill="#000000"/>
      <path d="M261.149,120.544 L317.843,148.89" fill-opacity="0" stroke="#000000" stroke-width="1.196"/>
      <path d="M326.592,148.415 C326.592,147.542 326.537,146.67 326.155,145.862 C325.654,144.815 324.759,144.641 324.301,144.641 C323.646,144.641 322.85,144.924 322.403,145.939 C322.054,146.691 321.999,147.542 321.999,148.415 C321.999,149.233 322.043,150.215 322.49,151.044 C322.959,151.928 323.755,152.146 324.29,152.146 C324.879,152.146 325.708,151.917 326.188,150.881 C326.537,150.128 326.592,149.277 326.592,148.415 z M324.29,151.906 C323.865,151.906 323.221,151.633 323.025,150.586 C322.905,149.931 322.905,148.928 322.905,148.284 C322.905,147.586 322.905,146.866 322.992,146.277 C323.199,144.979 324.017,144.881 324.29,144.881 C324.65,144.881 325.37,145.077 325.577,146.157 C325.686,146.768 325.686,147.597 325.686,148.284 C325.686,149.102 325.686,149.844 325.566,150.542 C325.403,151.579 324.781,151.906 324.29,151.906 z" fill="#000000"/>
      <path d="M329.122,151.328 C329.122,151.011 328.86,150.75 328.544,150.75 C328.228,150.75 327.966,151.011 327.966,151.328 C327.966,151.644 328.228,151.906 328.544,151.906 C328.86,151.906 329.122,151.644 329.122,151.328 z" fill="#000000"/>
      <path d="M333.266,144.924 C333.266,144.662 333.266,144.641 333.015,144.641 C332.339,145.339 331.379,145.339 331.03,145.339 L331.03,145.677 C331.248,145.677 331.891,145.677 332.459,145.393 L332.459,151.044 C332.459,151.437 332.426,151.568 331.444,151.568 L331.095,151.568 L331.095,151.906 C331.477,151.873 332.426,151.873 332.862,151.873 C333.299,151.873 334.248,151.873 334.63,151.906 L334.63,151.568 L334.28,151.568 C333.299,151.568 333.266,151.448 333.266,151.044 z" fill="#000000"/>
      <path d="M261.149,99.283 L261.149,116.34" fill-opacity="0" stroke="#000000" stroke-width="0.797"/>
      <g>
        <path d="M263.874,110.269 L261.149,116.688 L258.424,110.269 z" fill="#000000"/>
        <path d="M263.874,110.269 L261.149,116.688 L258.424,110.269 z" fill-opacity="0" stroke="#000000" stroke-width="0.797"/>
      </g>
      <path d="M261.149,141.804 L261.149,124.747" fill-opacity="0" stroke="#000000" stroke-width="0.797"/>
      <g>
        <path d="M258.424,130.818 L261.149,124.399 L263.874,130.818 z" fill="#000000"/>
        <path d="M258.424,130.818 L261.149,124.399 L263.874,130.818 z" fill-opacity="0" stroke="#000000" stroke-width="0.797"/>
      </g>
      <path d="M6.028,92.197 L62.722,92.197" fill-opacity="0" stroke="#000000" stroke-width="0.797"/>
      <g>
        <path d="M26.935,89.472 L33.355,92.197 L26.935,94.922 z" fill="#000000"/>
        <path d="M26.935,89.472 L33.355,92.197 L26.935,94.922 z" fill-opacity="0" stroke="#000000" stroke-width="0.797"/>
      </g>
      <path d="M35.13,81.053 C35.228,80.66 35.261,80.551 36.122,80.551 C36.384,80.551 36.471,80.551 36.471,80.344 C36.471,80.213 36.351,80.213 36.308,80.213 C35.991,80.213 35.184,80.246 34.868,80.246 C34.541,80.246 33.744,80.213 33.417,80.213 C33.341,80.213 33.199,80.213 33.199,80.431 C33.199,80.551 33.297,80.551 33.504,80.551 C33.962,80.551 34.257,80.551 34.257,80.759 C34.257,80.813 34.257,80.835 34.235,80.933 L32.762,86.813 C32.664,87.217 32.631,87.326 31.77,87.326 C31.519,87.326 31.421,87.326 31.421,87.544 C31.421,87.664 31.551,87.664 31.584,87.664 C31.901,87.664 32.697,87.631 33.013,87.631 C33.341,87.631 34.148,87.664 34.475,87.664 C34.562,87.664 34.693,87.664 34.693,87.457 C34.693,87.326 34.606,87.326 34.366,87.326 C34.17,87.326 34.115,87.326 33.897,87.304 C33.668,87.282 33.624,87.239 33.624,87.119 C33.624,87.031 33.646,86.944 33.668,86.868 z" fill="#000000"/>
      <path d="M62.722,148.89 L6.028,148.89" fill-opacity="0" stroke="#000000" stroke-width="0.797"/>
      <g>
        <path d="M33.311,151.615 L26.891,148.89 L33.311,146.165 z" fill="#000000"/>
        <path d="M33.311,151.615 L26.891,148.89 L33.311,146.165 z" fill-opacity="0" stroke="#000000" stroke-width="0.797"/>
      </g>
      <path d="M35.13,137.746 C35.228,137.353 35.261,137.244 36.122,137.244 C36.384,137.244 36.471,137.244 36.471,137.037 C36.471,136.906 36.351,136.906 36.308,136.906 C35.991,136.906 35.184,136.939 34.868,136.939 C34.541,136.939 33.744,136.906 33.417,136.906 C33.341,136.906 33.199,136.906 33.199,137.124 C33.199,137.244 33.297,137.244 33.504,137.244 C33.962,137.244 34.257,137.244 34.257,137.452 C34.257,137.506 34.257,137.528 34.235,137.626 L32.762,143.506 C32.664,143.91 32.631,144.019 31.77,144.019 C31.519,144.019 31.421,144.019 31.421,144.237 C31.421,144.357 31.551,144.357 31.584,144.357 C31.901,144.357 32.697,144.324 33.013,144.324 C33.341,144.324 34.148,144.357 34.475,144.357 C34.562,144.357 34.693,144.357 34.693,144.15 C34.693,144.019 34.606,144.019 34.366,144.019 C34.17,144.019 34.115,144.019 33.897,143.997 C33.668,143.975 33.624,143.932 33.624,143.812 C33.624,143.724 33.646,143.637 33.668,143.561 z" fill="#000000"/>
      <path d="M119.415,146.056 C147.762,138.969 34.375,138.969 62.722,131.882" fill-opacity="0" stroke="#000000" stroke-width="0.797"/>
      <path d="M119.415,131.882 C147.762,124.795 34.375,124.795 62.722,117.709" fill-opacity="0" stroke="#000000" stroke-width="0.797"/>
      <path d="M119.415,117.709 C147.762,110.622 34.375,110.622 62.722,103.535" fill-opacity="0" stroke="#000000" stroke-width="0.797"/>
      <path d="M62.722,92.197 C119.415,95.032 130.754,99.283 119.415,103.535" fill-opacity="0" stroke="#000000" stroke-width="0.797"/>
      <path d="M158.512,236.279 C158.512,235.777 158.065,235.33 157.476,235.33 C156.854,235.33 156.429,235.799 156.429,236.279 C156.429,236.825 156.909,237.239 157.465,237.239 C158.065,237.239 158.512,236.803 158.512,236.279 z M157.476,236.999 C157.007,236.999 156.701,236.792 156.701,236.29 C156.701,235.788 156.996,235.57 157.465,235.57 C157.934,235.57 158.24,235.777 158.24,236.279 C158.24,236.781 157.945,236.999 157.476,236.999 z" fill="#000000"/>
    </g>
    <path d="M561.329,736.974 C561.329,736.472 560.882,736.025 560.293,736.025 C559.671,736.025 559.245,736.494 559.245,736.974 C559.245,737.52 559.725,737.934 560.282,737.934 C560.882,737.934 561.329,737.498 561.329,736.974 z M560.293,737.694 C559.824,737.694 559.518,737.487 559.518,736.985 C559.518,736.483 559.813,736.265 560.282,736.265 C560.751,736.265 561.056,736.472 561.056,736.974 C561.056,737.476 560.762,737.694 560.293,737.694 z" fill="#000000"/>
  </g>
</svg>
