<?xml version="1.0" encoding="UTF-8"?>
<!DOCTYPE svg PUBLIC "-//W3C//DTD SVG 1.1//EN" "http://www.w3.org/Graphics/SVG/1.1/DTD/svg11.dtd">
<svg version="1.1" xmlns="http://www.w3.org/2000/svg" xmlns:xlink="http://www.w3.org/1999/xlink" x="0" y="0" width="368.504" height="141.732" viewBox="0, 0, 368.504, 141.732">
  <g id="Background">
    <rect x="0" y="0" width="368.504" height="141.732" fill="#FFFFFF"/>
  </g>
  <g id="Layer_1">
    <g>
      <path d="M108.618,115.584 L75.098,115.584" fill-opacity="0" stroke="#000000" stroke-width="1"/>
      <path d="M75.098,112.584 L67.098,115.584 L75.098,118.584 z" fill="#000000" fill-opacity="1" stroke="#000000" stroke-width="1" stroke-opacity="1"/>
    </g>
    <g>
      <path d="M58.154,115.584 L24.634,115.584" fill-opacity="0" stroke="#000000" stroke-width="1"/>
      <path d="M24.634,112.584 L16.634,115.584 L24.634,118.584 z" fill="#000000" fill-opacity="1" stroke="#000000" stroke-width="1" stroke-opacity="1"/>
    </g>
    <g>
      <path d="M161.743,115.584 L128.223,115.584" fill-opacity="0" stroke="#000000" stroke-width="1"/>
      <path d="M128.223,112.584 L120.223,115.584 L128.223,118.584 z" fill="#000000" fill-opacity="1" stroke="#000000" stroke-width="1" stroke-opacity="1"/>
    </g>
    <g>
      <path d="M161.743,87.783 L142.397,87.783" fill-opacity="0" stroke="#000000" stroke-width="1"/>
      <path d="M142.397,84.783 L134.397,87.783 L142.397,90.783 z" fill="#000000" fill-opacity="1" stroke="#000000" stroke-width="1" stroke-opacity="1"/>
    </g>
    <g>
      <path d="M108.618,87.783 L89.271,87.783" fill-opacity="0" stroke="#000000" stroke-width="1"/>
      <path d="M89.271,84.783 L81.271,87.783 L89.271,90.783 z" fill="#000000" fill-opacity="1" stroke="#000000" stroke-width="1" stroke-opacity="1"/>
    </g>
    <g>
      <path d="M58.154,87.783 L38.808,87.783" fill-opacity="0" stroke="#000000" stroke-width="1"/>
      <path d="M38.808,84.783 L30.808,87.783 L38.808,90.783 z" fill="#000000" fill-opacity="1" stroke="#000000" stroke-width="1" stroke-opacity="1"/>
    </g>
    <g>
      <path d="M161.743,59.6 L150.9,59.6" fill-opacity="0" stroke="#000000" stroke-width="1"/>
      <path d="M150.9,56.6 L142.9,59.6 L150.9,62.6 z" fill="#000000" fill-opacity="1" stroke="#000000" stroke-width="1" stroke-opacity="1"/>
    </g>
    <g>
      <path d="M108.618,59.6 L97.775,59.6" fill-opacity="0" stroke="#000000" stroke-width="1"/>
      <path d="M97.775,56.6 L89.775,59.6 L97.775,62.6 z" fill="#000000" fill-opacity="1" stroke="#000000" stroke-width="1" stroke-opacity="1"/>
    </g>
    <g>
      <path d="M58.154,59.6 L47.312,59.6" fill-opacity="0" stroke="#000000" stroke-width="1"/>
      <path d="M47.312,56.6 L39.312,59.6 L47.312,62.6 z" fill="#000000" fill-opacity="1" stroke="#000000" stroke-width="1" stroke-opacity="1"/>
    </g>
    <g>
      <path d="M255.579,60.539 L222.06,60.539" fill-opacity="0" stroke="#000000" stroke-width="1"/>
      <path d="M222.06,57.539 L214.06,60.539 L222.06,63.539 z" fill="#000000" fill-opacity="1" stroke="#000000" stroke-width="1" stroke-opacity="1"/>
    </g>
    <g>
      <path d="M255.579,87.783 L222.06,87.783" fill-opacity="0" stroke="#000000" stroke-width="1"/>
      <path d="M222.06,84.783 L214.06,87.783 L222.06,90.783 z" fill="#000000" fill-opacity="1" stroke="#000000" stroke-width="1" stroke-opacity="1"/>
    </g>
    <g>
      <path d="M255.579,115.584 L222.06,115.584" fill-opacity="0" stroke="#000000" stroke-width="1"/>
      <path d="M222.06,112.584 L214.06,115.584 L222.06,118.584 z" fill="#000000" fill-opacity="1" stroke="#000000" stroke-width="1" stroke-opacity="1"/>
    </g>
    <g>
      <path d="M303.802,87.783 L284.455,87.783" fill-opacity="0" stroke="#000000" stroke-width="1"/>
      <path d="M284.455,84.783 L276.455,87.783 L284.455,90.783 z" fill="#000000" fill-opacity="1" stroke="#000000" stroke-width="1" stroke-opacity="1"/>
    </g>
    <g>
      <path d="M303.802,60.539 L284.455,60.539" fill-opacity="0" stroke="#000000" stroke-width="1"/>
      <path d="M284.455,57.539 L276.455,60.539 L284.455,63.539 z" fill="#000000" fill-opacity="1" stroke="#000000" stroke-width="1" stroke-opacity="1"/>
    </g>
    <g>
      <path d="M303.802,115.584 L284.455,115.584" fill-opacity="0" stroke="#000000" stroke-width="1"/>
      <path d="M284.455,112.584 L276.455,115.584 L284.455,118.584 z" fill="#000000" fill-opacity="1" stroke="#000000" stroke-width="1" stroke-opacity="1"/>
    </g>
    <g>
      <path d="M341.456,60.539 L330.613,60.539" fill-opacity="0" stroke="#000000" stroke-width="1"/>
      <path d="M330.613,57.539 L322.613,60.539 L330.613,63.539 z" fill="#000000" fill-opacity="1" stroke="#000000" stroke-width="1" stroke-opacity="1"/>
    </g>
    <g>
      <path d="M341.456,87.783 L330.613,87.783" fill-opacity="0" stroke="#000000" stroke-width="1"/>
      <path d="M330.613,84.783 L322.613,87.783 L330.613,90.783 z" fill="#000000" fill-opacity="1" stroke="#000000" stroke-width="1" stroke-opacity="1"/>
    </g>
    <g>
      <path d="M341.456,115.584 L330.613,115.584" fill-opacity="0" stroke="#000000" stroke-width="1"/>
      <path d="M330.613,112.584 L322.613,115.584 L330.613,118.584 z" fill="#000000" fill-opacity="1" stroke="#000000" stroke-width="1" stroke-opacity="1"/>
    </g>
    <path d="M9.596,44.362 L178.308,44.362 L178.308,131.956 L9.596,131.956 L9.596,44.362 z" fill-opacity="0" stroke="#000000" stroke-width="1"/>
    <path d="M192.14,44.362 L360.853,44.362 L360.853,131.956 L192.14,131.956 L192.14,44.362 z" fill-opacity="0" stroke="#000000" stroke-width="1"/>
    <text transform="matrix(1, 0, 0, 1, 86.858, 25.96)">
      <tspan x="-4.297" y="6.145" font-family="Georgia-Italic" font-size="20" fill="#000000">1</tspan>
    </text>
    <text transform="matrix(1, 0, 0, 1, 275.997, 26.105)">
      <tspan x="-5.586" y="6" font-family="Georgia-Italic" font-size="20" fill="#000000">2</tspan>
    </text>
  </g>
</svg>
