<?xml version="1.0" encoding="utf-8" standalone="no"?>
<!DOCTYPE svg PUBLIC "-//W3C//DTD SVG 1.1//EN"
  "http://www.w3.org/Graphics/SVG/1.1/DTD/svg11.dtd">
<!-- Created with matplotlib (http://matplotlib.org/) -->
<svg height="432pt" version="1.1" viewBox="0 0 432 432" width="432pt" xmlns="http://www.w3.org/2000/svg" xmlns:xlink="http://www.w3.org/1999/xlink">
 <defs>
  <style type="text/css">
*{stroke-linecap:butt;stroke-linejoin:round;}
  </style>
 </defs>
 <g id="figure_1">
  <g id="patch_1">
   <path d="M 0 432 
L 432 432 
L 432 0 
L 0 0 
z
" style="fill:#ffffff;"/>
  </g>
  <g id="axes_1">
   <g id="patch_2">
    <path d="M 13.32 208.08 
L 208.08 208.08 
L 208.08 26.88 
L 13.32 26.88 
z
" style="fill:#ffffff;"/>
   </g>
   <g id="Quiver_1">
    <path clip-path="url(#pafd472f3aa)" d="M 28.31797 200.894901 
L -4.038511 233.251382 
L -2.489204 233.767817 
L -9.202865 237.382865 
L -5.587817 230.669204 
L -5.071382 232.218511 
L 27.285099 199.86203 
L 28.31797 200.894901 
"/>
    <path clip-path="url(#pafd472f3aa)" d="M 61.578424 200.768467 
L 41.71724 232.215342 
L 43.342247 232.377842 
L 37.589721 237.382865 
L 39.63723 230.037832 
L 40.482234 231.435338 
L 60.343418 199.988463 
L 61.578424 200.768467 
"/>
    <path clip-path="url(#pafd472f3aa)" d="M 94.834991 200.528925 
L 88.398729 231.10117 
L 89.978556 230.687406 
L 86.329907 237.382865 
L 85.690453 229.784648 
L 86.969361 230.800251 
L 93.405623 200.228005 
L 94.834991 200.528925 
"/>
    <path clip-path="url(#pafd472f3aa)" d="M 127.994377 200.228005 
L 134.430639 230.800251 
L 135.709547 229.784648 
L 135.070093 237.382865 
L 131.421444 230.687406 
L 133.001271 231.10117 
L 126.565009 200.528925 
L 127.994377 200.228005 
"/>
    <path clip-path="url(#pafd472f3aa)" d="M 161.056582 199.988463 
L 180.917766 231.435338 
L 181.76277 230.037832 
L 183.810279 237.382865 
L 178.057753 232.377842 
L 179.68276 232.215342 
L 159.821576 200.768467 
L 161.056582 199.988463 
"/>
    <path clip-path="url(#pafd472f3aa)" d="M 194.114901 199.86203 
L 226.471382 232.218511 
L 226.987817 230.669204 
L 230.602865 237.382865 
L 223.889204 233.767817 
L 225.438511 233.251382 
L 193.08203 200.894901 
L 194.114901 199.86203 
"/>
    <path clip-path="url(#pafd472f3aa)" d="M 28.191537 167.836582 
L -3.255338 187.697766 
L -1.857832 188.54277 
L -9.202865 190.590279 
L -4.197842 184.837753 
L -4.035342 186.46276 
L 27.411533 166.601576 
L 28.191537 167.836582 
"/>
    <path clip-path="url(#pafd472f3aa)" d="M 61.477356 167.735515 
L 42.754075 186.458796 
L 44.303382 186.975231 
L 37.589721 190.590279 
L 41.204769 183.876618 
L 41.721204 185.425925 
L 60.444485 166.702644 
L 61.477356 167.735515 
"/>
    <path clip-path="url(#pafd472f3aa)" d="M 94.813178 167.450036 
L 89.10139 184.585398 
L 90.718089 184.354441 
L 86.329907 190.590279 
L 86.560864 182.9687 
L 87.715649 184.123485 
L 93.427436 166.988122 
L 94.813178 167.450036 
"/>
    <path clip-path="url(#pafd472f3aa)" d="M 127.972564 166.988122 
L 133.684351 184.123485 
L 134.839136 182.9687 
L 135.070093 190.590279 
L 130.681911 184.354441 
L 132.29861 184.585398 
L 126.586822 167.450036 
L 127.972564 166.988122 
"/>
    <path clip-path="url(#pafd472f3aa)" d="M 160.955515 166.702644 
L 179.678796 185.425925 
L 180.195231 183.876618 
L 183.810279 190.590279 
L 177.096618 186.975231 
L 178.645925 186.458796 
L 159.922644 167.735515 
L 160.955515 166.702644 
"/>
    <path clip-path="url(#pafd472f3aa)" d="M 193.988467 166.601576 
L 225.435342 186.46276 
L 225.597842 184.837753 
L 230.602865 190.590279 
L 223.257832 188.54277 
L 224.655338 187.697766 
L 193.208463 167.836582 
L 193.988467 166.601576 
"/>
    <path clip-path="url(#pafd472f3aa)" d="M 27.951995 134.774377 
L -2.620251 141.210639 
L -1.604648 142.489547 
L -9.202865 141.850093 
L -2.507406 138.201444 
L -2.92117 139.781271 
L 27.651075 133.345009 
L 27.951995 134.774377 
"/>
    <path clip-path="url(#pafd472f3aa)" d="M 61.191878 134.752564 
L 44.056515 140.464351 
L 45.2113 141.619136 
L 37.589721 141.850093 
L 43.825559 137.461911 
L 43.594602 139.07861 
L 60.729964 133.366822 
L 61.191878 134.752564 
"/>
    <path clip-path="url(#pafd472f3aa)" d="M 94.636742 134.576128 
L 91.494261 137.71861 
L 93.043568 138.235045 
L 86.329907 141.850093 
L 89.944955 135.136432 
L 90.46139 136.685739 
L 93.603872 133.543258 
L 94.636742 134.576128 
"/>
    <path clip-path="url(#pafd472f3aa)" d="M 127.796128 133.543258 
L 130.93861 136.685739 
L 131.455045 135.136432 
L 135.070093 141.850093 
L 128.356432 138.235045 
L 129.905739 137.71861 
L 126.763258 134.576128 
L 127.796128 133.543258 
"/>
    <path clip-path="url(#pafd472f3aa)" d="M 160.670036 133.366822 
L 177.805398 139.07861 
L 177.574441 137.461911 
L 183.810279 141.850093 
L 176.1887 141.619136 
L 177.343485 140.464351 
L 160.208122 134.752564 
L 160.670036 133.366822 
"/>
    <path clip-path="url(#pafd472f3aa)" d="M 193.748925 133.345009 
L 224.32117 139.781271 
L 223.907406 138.201444 
L 230.602865 141.850093 
L 223.004648 142.489547 
L 224.020251 141.210639 
L 193.448005 134.774377 
L 193.748925 133.345009 
"/>
    <path clip-path="url(#pafd472f3aa)" d="M 27.651075 101.614991 
L -2.92117 95.178729 
L -2.507406 96.758556 
L -9.202865 93.109907 
L -1.604648 92.470453 
L -2.620251 93.749361 
L 27.951995 100.185623 
L 27.651075 101.614991 
"/>
    <path clip-path="url(#pafd472f3aa)" d="M 60.729964 101.593178 
L 43.594602 95.88139 
L 43.825559 97.498089 
L 37.589721 93.109907 
L 45.2113 93.340864 
L 44.056515 94.495649 
L 61.191878 100.207436 
L 60.729964 101.593178 
"/>
    <path clip-path="url(#pafd472f3aa)" d="M 93.603872 101.416742 
L 90.46139 98.274261 
L 89.944955 99.823568 
L 86.329907 93.109907 
L 93.043568 96.724955 
L 91.494261 97.24139 
L 94.636742 100.383872 
L 93.603872 101.416742 
"/>
    <path clip-path="url(#pafd472f3aa)" d="M 126.763258 100.383872 
L 129.905739 97.24139 
L 128.356432 96.724955 
L 135.070093 93.109907 
L 131.455045 99.823568 
L 130.93861 98.274261 
L 127.796128 101.416742 
L 126.763258 100.383872 
"/>
    <path clip-path="url(#pafd472f3aa)" d="M 160.208122 100.207436 
L 177.343485 94.495649 
L 176.1887 93.340864 
L 183.810279 93.109907 
L 177.574441 97.498089 
L 177.805398 95.88139 
L 160.670036 101.593178 
L 160.208122 100.207436 
"/>
    <path clip-path="url(#pafd472f3aa)" d="M 193.448005 100.185623 
L 224.020251 93.749361 
L 223.004648 92.470453 
L 230.602865 93.109907 
L 223.907406 96.758556 
L 224.32117 95.178729 
L 193.748925 101.614991 
L 193.448005 100.185623 
"/>
    <path clip-path="url(#pafd472f3aa)" d="M 27.411533 68.358424 
L -4.035342 48.49724 
L -4.197842 50.122247 
L -9.202865 44.369721 
L -1.857832 46.41723 
L -3.255338 47.262234 
L 28.191537 67.123418 
L 27.411533 68.358424 
"/>
    <path clip-path="url(#pafd472f3aa)" d="M 60.444485 68.257356 
L 41.721204 49.534075 
L 41.204769 51.083382 
L 37.589721 44.369721 
L 44.303382 47.984769 
L 42.754075 48.501204 
L 61.477356 67.224485 
L 60.444485 68.257356 
"/>
    <path clip-path="url(#pafd472f3aa)" d="M 93.427436 67.971878 
L 87.715649 50.836515 
L 86.560864 51.9913 
L 86.329907 44.369721 
L 90.718089 50.605559 
L 89.10139 50.374602 
L 94.813178 67.509964 
L 93.427436 67.971878 
"/>
    <path clip-path="url(#pafd472f3aa)" d="M 126.586822 67.509964 
L 132.29861 50.374602 
L 130.681911 50.605559 
L 135.070093 44.369721 
L 134.839136 51.9913 
L 133.684351 50.836515 
L 127.972564 67.971878 
L 126.586822 67.509964 
"/>
    <path clip-path="url(#pafd472f3aa)" d="M 159.922644 67.224485 
L 178.645925 48.501204 
L 177.096618 47.984769 
L 183.810279 44.369721 
L 180.195231 51.083382 
L 179.678796 49.534075 
L 160.955515 68.257356 
L 159.922644 67.224485 
"/>
    <path clip-path="url(#pafd472f3aa)" d="M 193.208463 67.123418 
L 224.655338 47.262234 
L 223.257832 46.41723 
L 230.602865 44.369721 
L 225.597842 50.122247 
L 225.435342 48.49724 
L 193.988467 68.358424 
L 193.208463 67.123418 
"/>
    <path clip-path="url(#pafd472f3aa)" d="M 27.285099 35.09797 
L -5.071382 2.741489 
L -5.587817 4.290796 
L -9.202865 -2.422865 
L -2.489204 1.192183 
L -4.038511 1.708618 
L 28.31797 34.065099 
L 27.285099 35.09797 
"/>
    <path clip-path="url(#pafd472f3aa)" d="M 60.343418 34.971537 
L 40.482234 3.524662 
L 39.63723 4.922168 
L 37.589721 -2.422865 
L 43.342247 2.582158 
L 41.71724 2.744658 
L 61.578424 34.191533 
L 60.343418 34.971537 
"/>
    <path clip-path="url(#pafd472f3aa)" d="M 93.405623 34.731995 
L 86.969361 4.159749 
L 85.690453 5.175352 
L 86.329907 -2.422865 
L 89.978556 4.272594 
L 88.398729 3.85883 
L 94.834991 34.431075 
L 93.405623 34.731995 
"/>
    <path clip-path="url(#pafd472f3aa)" d="M 126.565009 34.431075 
L 133.001271 3.85883 
L 131.421444 4.272594 
L 135.070093 -2.422865 
L 135.709547 5.175352 
L 134.430639 4.159749 
L 127.994377 34.731995 
L 126.565009 34.431075 
"/>
    <path clip-path="url(#pafd472f3aa)" d="M 159.821576 34.191533 
L 179.68276 2.744658 
L 178.057753 2.582158 
L 183.810279 -2.422865 
L 181.76277 4.922168 
L 180.917766 3.524662 
L 161.056582 34.971537 
L 159.821576 34.191533 
"/>
    <path clip-path="url(#pafd472f3aa)" d="M 193.08203 34.065099 
L 225.438511 1.708618 
L 223.889204 1.192183 
L 230.602865 -2.422865 
L 226.987817 4.290796 
L 226.471382 2.741489 
L 194.114901 35.09797 
L 193.08203 34.065099 
"/>
   </g>
   <g id="matplotlib.axis_1"/>
   <g id="matplotlib.axis_2"/>
   <g id="patch_3">
    <path d="M 13.32 208.08 
L 13.32 26.88 
" style="fill:none;stroke:#000000;stroke-linecap:square;stroke-linejoin:miter;stroke-width:0.8;"/>
   </g>
   <g id="patch_4">
    <path d="M 208.08 208.08 
L 208.08 26.88 
" style="fill:none;stroke:#000000;stroke-linecap:square;stroke-linejoin:miter;stroke-width:0.8;"/>
   </g>
   <g id="patch_5">
    <path d="M 13.32 208.08 
L 208.08 208.08 
" style="fill:none;stroke:#000000;stroke-linecap:square;stroke-linejoin:miter;stroke-width:0.8;"/>
   </g>
   <g id="patch_6">
    <path d="M 13.32 26.88 
L 208.08 26.88 
" style="fill:none;stroke:#000000;stroke-linecap:square;stroke-linejoin:miter;stroke-width:0.8;"/>
   </g>
   <g id="text_1">
    <!-- A -->
    <defs>
     <path d="M 34.1875 63.1875 
L 20.796875 26.90625 
L 47.609375 26.90625 
z
M 28.609375 72.90625 
L 39.796875 72.90625 
L 67.578125 0 
L 57.328125 0 
L 50.6875 18.703125 
L 17.828125 18.703125 
L 11.1875 0 
L 0.78125 0 
z
" id="DejaVuSans-41"/>
    </defs>
    <g transform="translate(106.595625 20.88)scale(0.12 -0.12)">
     <use xlink:href="#DejaVuSans-41"/>
    </g>
   </g>
  </g>
  <g id="axes_2">
   <g id="patch_7">
    <path d="M 223.92 208.08 
L 418.68 208.08 
L 418.68 26.88 
L 223.92 26.88 
z
" style="fill:#ffffff;"/>
   </g>
   <g id="Quiver_2">
    <path clip-path="url(#pabd46411ef)" d="M 238.91797 199.86203 
L 241.805358 202.749418 
L 242.321794 201.200111 
L 245.936842 207.913772 
L 239.223181 204.298724 
L 240.772487 203.782289 
L 237.885099 200.894901 
L 238.91797 199.86203 
"/>
    <path clip-path="url(#pabd46411ef)" d="M 271.981274 199.78121 
L 277.312453 203.533337 
L 277.555904 201.918472 
L 282.2674 207.913772 
L 275.033784 205.502006 
L 276.471746 204.727848 
L 271.140568 200.975721 
L 271.981274 199.78121 
"/>
    <path clip-path="url(#pabd46411ef)" d="M 305.03193 199.717934 
L 315.059336 204.44863 
L 315.022051 202.815943 
L 320.692496 207.913772 
L 313.15231 206.779133 
L 314.436089 205.769693 
L 304.408684 201.038997 
L 305.03193 199.717934 
"/>
    <path clip-path="url(#pabd46411ef)" d="M 338.09991 199.682106 
L 355.660389 205.235457 
L 355.404465 203.622522 
L 361.7074 207.913772 
L 354.083161 207.800674 
L 355.219954 206.628174 
L 337.659476 201.074824 
L 338.09991 199.682106 
"/>
    <path clip-path="url(#pabd46411ef)" d="M 371.190535 199.663992 
L 400.307037 205.836193 
L 399.895475 204.255791 
L 406.58584 207.913772 
L 398.986739 208.542631 
L 400.004124 207.26514 
L 370.887623 201.092939 
L 371.190535 199.663992 
"/>
    <path clip-path="url(#pabd46411ef)" d="M 404.306501 199.65615 
L 448.18593 206.219135 
L 447.679686 204.666469 
L 454.578732 207.913772 
L 447.031472 209.000361 
L 447.969859 207.663766 
L 404.090429 201.10078 
L 404.306501 199.65615 
"/>
    <path clip-path="url(#pabd46411ef)" d="M 238.99879 166.798726 
L 242.750917 172.129905 
L 243.525075 170.691942 
L 245.936842 177.925558 
L 239.941542 173.214062 
L 241.556406 172.970611 
L 237.804279 167.639432 
L 238.99879 166.798726 
"/>
    <path clip-path="url(#pabd46411ef)" d="M 272.077356 166.702644 
L 278.135916 172.761203 
L 278.652352 171.211897 
L 282.2674 177.925558 
L 275.553739 174.31051 
L 277.103045 173.794074 
L 271.044485 167.735515 
L 272.077356 166.702644 
"/>
    <path clip-path="url(#pabd46411ef)" d="M 305.126965 166.612416 
L 315.639187 173.658969 
L 315.845841 172.038985 
L 320.692496 177.925558 
L 313.405891 175.678963 
L 314.825871 174.872295 
L 304.313649 167.825742 
L 305.126965 166.612416 
"/>
    <path clip-path="url(#pabd46411ef)" d="M 338.179031 166.55289 
L 356.011036 174.565326 
L 355.943523 172.93361 
L 361.7074 177.925558 
L 354.147495 176.930745 
L 355.41236 175.897705 
L 337.580355 167.885268 
L 338.179031 166.55289 
"/>
    <path clip-path="url(#pabd46411ef)" d="M 371.24971 166.519761 
L 400.502608 175.330564 
L 400.224551 173.721298 
L 406.58584 177.925558 
L 398.960767 177.917207 
L 400.081346 176.729201 
L 370.828449 167.918397 
L 371.24971 166.519761 
"/>
    <path clip-path="url(#pabd46411ef)" d="M 404.350284 166.504683 
L 448.300984 175.844793 
L 447.890225 174.264181 
L 454.578732 177.925558 
L 446.979312 178.550559 
L 447.997346 177.273585 
L 404.046646 167.933475 
L 404.350284 166.504683 
"/>
    <path clip-path="url(#pabd46411ef)" d="M 239.062066 133.74807 
L 243.792763 143.775475 
L 244.802202 142.491696 
L 245.936842 150.031882 
L 240.839013 144.361437 
L 242.471699 144.398722 
L 237.741003 134.371316 
L 239.062066 133.74807 
"/>
    <path clip-path="url(#pabd46411ef)" d="M 272.167584 133.653035 
L 279.214137 144.165257 
L 280.020805 142.745277 
L 282.2674 150.031882 
L 276.380826 145.185227 
L 278.000811 144.978573 
L 270.954258 134.466351 
L 272.167584 133.653035 
"/>
    <path clip-path="url(#pabd46411ef)" d="M 305.236742 133.543258 
L 316.561013 144.867528 
L 317.077448 143.318222 
L 320.692496 150.031882 
L 313.978836 146.416834 
L 315.528142 145.900399 
L 304.203872 134.576128 
L 305.236742 133.543258 
"/>
    <path clip-path="url(#pabd46411ef)" d="M 338.286351 133.45303 
L 356.654091 145.765294 
L 356.860744 144.145309 
L 361.7074 150.031882 
L 354.420794 147.785288 
L 355.840774 146.97862 
L 337.473035 134.666356 
L 338.286351 133.45303 
"/>
    <path clip-path="url(#pabd46411ef)" d="M 371.338417 133.393504 
L 400.889477 146.671651 
L 400.821964 145.039935 
L 406.58584 150.031882 
L 399.025936 149.037069 
L 400.290801 148.004029 
L 370.739741 134.725882 
L 371.338417 133.393504 
"/>
    <path clip-path="url(#pabd46411ef)" d="M 404.419183 133.363493 
L 448.533649 147.349219 
L 448.278885 145.7361 
L 454.578732 150.031882 
L 446.954576 149.913301 
L 448.092213 148.741619 
L 403.977747 134.755893 
L 404.419183 133.363493 
"/>
    <path clip-path="url(#pabd46411ef)" d="M 239.097894 100.68009 
L 244.651244 118.240568 
L 245.823744 117.103775 
L 245.936842 124.728014 
L 241.645591 118.425079 
L 243.258526 118.681003 
L 237.705176 101.120524 
L 239.097894 100.68009 
"/>
    <path clip-path="url(#pabd46411ef)" d="M 272.22711 100.600969 
L 280.239546 118.432974 
L 281.272586 117.168109 
L 282.2674 124.728014 
L 277.275452 118.964137 
L 278.907168 119.03165 
L 270.894732 101.199645 
L 272.22711 100.600969 
"/>
    <path clip-path="url(#pabd46411ef)" d="M 305.32697 100.493649 
L 317.639234 118.861388 
L 318.445901 117.441408 
L 320.692496 124.728014 
L 314.805923 119.881358 
L 316.425908 119.674705 
L 304.113644 101.306965 
L 305.32697 100.493649 
"/>
    <path clip-path="url(#pabd46411ef)" d="M 338.396128 100.383872 
L 357.575916 119.563659 
L 358.092352 118.014353 
L 361.7074 124.728014 
L 354.993739 121.112966 
L 356.543045 120.59653 
L 337.363258 101.416742 
L 338.396128 100.383872 
"/>
    <path clip-path="url(#pabd46411ef)" d="M 371.445738 100.293644 
L 401.532531 120.461425 
L 401.739185 118.84144 
L 406.58584 124.728014 
L 399.299235 122.481419 
L 400.719215 121.674751 
L 370.632421 101.50697 
L 371.445738 100.293644 
"/>
    <path clip-path="url(#pabd46411ef)" d="M 404.510726 100.240076 
L 448.948918 121.257436 
L 448.913209 119.624715 
L 454.578732 124.728014 
L 447.039645 123.586098 
L 448.324397 122.577898 
L 403.886204 101.560537 
L 404.510726 100.240076 
"/>
    <path clip-path="url(#pabd46411ef)" d="M 239.116008 67.589465 
L 245.28821 96.705966 
L 246.5657 95.68858 
L 245.936842 103.287682 
L 242.27886 96.597317 
L 243.859263 97.008878 
L 237.687061 67.892377 
L 239.116008 67.589465 
"/>
    <path clip-path="url(#pabd46411ef)" d="M 272.260239 67.53029 
L 281.071043 96.783188 
L 282.259048 95.662609 
L 282.2674 103.287682 
L 278.063139 96.926392 
L 279.672406 97.204449 
L 270.861603 67.951551 
L 272.260239 67.53029 
"/>
    <path clip-path="url(#pabd46411ef)" d="M 305.386496 67.441583 
L 318.664643 96.992643 
L 319.697683 95.727778 
L 320.692496 103.287682 
L 315.700549 97.523806 
L 317.332265 97.591319 
L 304.054118 68.040259 
L 305.386496 67.441583 
"/>
    <path clip-path="url(#pabd46411ef)" d="M 338.486356 67.334262 
L 358.654137 97.421056 
L 359.460805 96.001076 
L 361.7074 103.287682 
L 355.820826 98.441027 
L 357.440811 98.234373 
L 337.27303 68.147579 
L 338.486356 67.334262 
"/>
    <path clip-path="url(#pabd46411ef)" d="M 371.555515 67.224485 
L 402.454357 98.123328 
L 402.970792 96.574022 
L 406.58584 103.287682 
L 399.87218 99.672634 
L 401.421486 99.156199 
L 370.522644 68.257356 
L 371.555515 67.224485 
"/>
    <path clip-path="url(#pabd46411ef)" d="M 404.619521 67.14416 
L 449.628943 98.901419 
L 449.874294 97.286843 
L 454.578732 103.287682 
L 447.347959 100.867406 
L 448.786832 100.09494 
L 403.777409 68.337681 
L 404.619521 67.14416 
"/>
    <path clip-path="url(#pabd46411ef)" d="M 239.12385 34.473499 
L 245.686836 78.352928 
L 247.023431 77.414542 
L 245.936842 84.961802 
L 242.689539 78.062756 
L 244.242205 78.569 
L 237.67922 34.689571 
L 239.12385 34.473499 
"/>
    <path clip-path="url(#pabd46411ef)" d="M 272.275317 34.429716 
L 281.615427 78.380416 
L 282.892401 77.362382 
L 282.2674 84.961802 
L 278.606023 78.273294 
L 280.186634 78.684053 
L 270.846525 34.733354 
L 272.275317 34.429716 
"/>
    <path clip-path="url(#pabd46411ef)" d="M 305.416507 34.360817 
L 319.402233 78.475283 
L 320.573915 77.337646 
L 320.692496 84.961802 
L 316.396714 78.661955 
L 318.009833 78.916719 
L 304.024107 34.802253 
L 305.416507 34.360817 
"/>
    <path clip-path="url(#pabd46411ef)" d="M 338.539924 34.269274 
L 359.557284 78.707466 
L 360.565484 77.422714 
L 361.7074 84.961802 
L 356.604101 79.296279 
L 358.236823 79.331988 
L 337.219463 34.893796 
L 338.539924 34.269274 
"/>
    <path clip-path="url(#pabd46411ef)" d="M 371.63584 34.160479 
L 403.393099 79.169901 
L 404.165564 77.731029 
L 406.58584 84.961802 
L 400.585001 80.257364 
L 402.199578 80.012013 
L 370.442319 35.002591 
L 371.63584 34.160479 
"/>
    <path clip-path="url(#pabd46411ef)" d="M 404.714901 34.065099 
L 450.447249 79.797447 
L 450.963684 78.248141 
L 454.578732 84.961802 
L 447.865071 81.346754 
L 449.414378 80.830318 
L 403.68203 35.09797 
L 404.714901 34.065099 
"/>
   </g>
   <g id="matplotlib.axis_3"/>
   <g id="matplotlib.axis_4"/>
   <g id="patch_8">
    <path d="M 223.92 208.08 
L 223.92 26.88 
" style="fill:none;stroke:#000000;stroke-linecap:square;stroke-linejoin:miter;stroke-width:0.8;"/>
   </g>
   <g id="patch_9">
    <path d="M 418.68 208.08 
L 418.68 26.88 
" style="fill:none;stroke:#000000;stroke-linecap:square;stroke-linejoin:miter;stroke-width:0.8;"/>
   </g>
   <g id="patch_10">
    <path d="M 223.92 208.08 
L 418.68 208.08 
" style="fill:none;stroke:#000000;stroke-linecap:square;stroke-linejoin:miter;stroke-width:0.8;"/>
   </g>
   <g id="patch_11">
    <path d="M 223.92 26.88 
L 418.68 26.88 
" style="fill:none;stroke:#000000;stroke-linecap:square;stroke-linejoin:miter;stroke-width:0.8;"/>
   </g>
   <g id="text_2">
    <!-- B -->
    <defs>
     <path d="M 19.671875 34.8125 
L 19.671875 8.109375 
L 35.5 8.109375 
Q 43.453125 8.109375 47.28125 11.40625 
Q 51.125 14.703125 51.125 21.484375 
Q 51.125 28.328125 47.28125 31.5625 
Q 43.453125 34.8125 35.5 34.8125 
z
M 19.671875 64.796875 
L 19.671875 42.828125 
L 34.28125 42.828125 
Q 41.5 42.828125 45.03125 45.53125 
Q 48.578125 48.25 48.578125 53.8125 
Q 48.578125 59.328125 45.03125 62.0625 
Q 41.5 64.796875 34.28125 64.796875 
z
M 9.8125 72.90625 
L 35.015625 72.90625 
Q 46.296875 72.90625 52.390625 68.21875 
Q 58.5 63.53125 58.5 54.890625 
Q 58.5 48.1875 55.375 44.234375 
Q 52.25 40.28125 46.1875 39.3125 
Q 53.46875 37.75 57.5 32.78125 
Q 61.53125 27.828125 61.53125 20.40625 
Q 61.53125 10.640625 54.890625 5.3125 
Q 48.25 0 35.984375 0 
L 9.8125 0 
z
" id="DejaVuSans-42"/>
    </defs>
    <g transform="translate(317.183437 20.88)scale(0.12 -0.12)">
     <use xlink:href="#DejaVuSans-42"/>
    </g>
   </g>
  </g>
  <g id="axes_3">
   <g id="patch_12">
    <path d="M 13.32 418.68 
L 208.08 418.68 
L 208.08 237.48 
L 13.32 237.48 
z
" style="fill:#ffffff;"/>
   </g>
   <g id="Quiver_3">
    <path clip-path="url(#p8df5643c07)" d="M 27.285099 410.46203 
L 28.15256 409.594569 
L 26.603254 409.078133 
L 33.316915 405.463085 
L 29.701867 412.176746 
L 29.185431 410.62744 
L 28.31797 411.494901 
L 27.285099 410.46203 
"/>
    <path clip-path="url(#p8df5643c07)" d="M 60.326173 410.617208 
L 63.027907 405.870123 
L 61.397155 405.782356 
L 66.913969 400.518653 
L 65.20564 407.949899 
L 64.297402 406.592637 
L 61.595668 411.339722 
L 60.326173 410.617208 
"/>
    <path clip-path="url(#p8df5643c07)" d="M 93.402702 410.842617 
L 94.906952 402.896561 
L 93.335894 403.342469 
L 96.847189 396.573967 
L 97.641522 404.157558 
L 96.342161 403.168257 
L 94.837912 411.114313 
L 93.402702 410.842617 
"/>
    <path clip-path="url(#p8df5643c07)" d="M 126.562088 411.114313 
L 125.057839 403.168257 
L 123.758478 404.157558 
L 124.552811 396.573967 
L 128.064106 403.342469 
L 126.493048 402.896561 
L 127.997298 410.842617 
L 126.562088 411.114313 
"/>
    <path clip-path="url(#p8df5643c07)" d="M 159.804332 411.339722 
L 157.102598 406.592637 
L 156.19436 407.949899 
L 154.486031 400.518653 
L 160.002845 405.782356 
L 158.372093 405.870123 
L 161.073827 410.617208 
L 159.804332 411.339722 
"/>
    <path clip-path="url(#p8df5643c07)" d="M 193.08203 411.494901 
L 192.214569 410.62744 
L 191.698133 412.176746 
L 188.083085 405.463085 
L 194.796746 409.078133 
L 193.24744 409.594569 
L 194.114901 410.46203 
L 193.08203 411.494901 
"/>
    <path clip-path="url(#p8df5643c07)" d="M 27.440278 377.184332 
L 32.187363 374.482598 
L 30.830101 373.57436 
L 38.261347 371.866031 
L 32.997644 377.382845 
L 32.909877 375.752093 
L 28.162792 378.453827 
L 27.440278 377.184332 
"/>
    <path clip-path="url(#p8df5643c07)" d="M 60.444485 377.302644 
L 67.086408 370.660721 
L 65.537102 370.144286 
L 72.250762 366.529238 
L 68.635714 373.242898 
L 68.119279 371.693592 
L 61.477356 378.335515 
L 60.444485 377.302644 
"/>
    <path clip-path="url(#p8df5643c07)" d="M 93.427289 377.588565 
L 96.524142 368.278176 
L 94.907591 368.510166 
L 99.291787 362.271525 
L 99.065701 369.89325 
L 97.910178 368.739204 
L 94.813325 378.049593 
L 93.427289 377.588565 
"/>
    <path clip-path="url(#p8df5643c07)" d="M 126.586675 378.049593 
L 123.489822 368.739204 
L 122.334299 369.89325 
L 122.108213 362.271525 
L 126.492409 368.510166 
L 124.875858 368.278176 
L 127.972711 377.588565 
L 126.586675 378.049593 
"/>
    <path clip-path="url(#p8df5643c07)" d="M 159.922644 378.335515 
L 153.280721 371.693592 
L 152.764286 373.242898 
L 149.149238 366.529238 
L 155.862898 370.144286 
L 154.313592 370.660721 
L 160.955515 377.302644 
L 159.922644 378.335515 
"/>
    <path clip-path="url(#p8df5643c07)" d="M 193.237208 378.453827 
L 188.490123 375.752093 
L 188.402356 377.382845 
L 183.138653 371.866031 
L 190.569899 373.57436 
L 189.212637 374.482598 
L 193.959722 377.184332 
L 193.237208 378.453827 
"/>
    <path clip-path="url(#p8df5643c07)" d="M 27.665687 343.942088 
L 35.611743 342.437839 
L 34.622442 341.138478 
L 42.206033 341.932811 
L 35.437531 345.444106 
L 35.883439 343.873048 
L 27.937383 345.377298 
L 27.665687 343.942088 
"/>
    <path clip-path="url(#p8df5643c07)" d="M 60.730407 343.966675 
L 70.040796 340.869822 
L 68.88675 339.714299 
L 76.508475 339.488213 
L 70.269834 343.872409 
L 70.501824 342.255858 
L 61.191435 345.352711 
L 60.730407 343.966675 
"/>
    <path clip-path="url(#p8df5643c07)" d="M 93.603872 344.143258 
L 96.077741 341.669388 
L 94.528435 341.152953 
L 101.242095 337.537905 
L 97.627047 344.251565 
L 97.110612 342.702259 
L 94.636742 345.176128 
L 93.603872 344.143258 
"/>
    <path clip-path="url(#p8df5643c07)" d="M 126.763258 345.176128 
L 124.289388 342.702259 
L 123.772953 344.251565 
L 120.157905 337.537905 
L 126.871565 341.152953 
L 125.322259 341.669388 
L 127.796128 344.143258 
L 126.763258 345.176128 
"/>
    <path clip-path="url(#p8df5643c07)" d="M 160.208565 345.352711 
L 150.898176 342.255858 
L 151.130166 343.872409 
L 144.891525 339.488213 
L 152.51325 339.714299 
L 151.359204 340.869822 
L 160.669593 343.966675 
L 160.208565 345.352711 
"/>
    <path clip-path="url(#p8df5643c07)" d="M 193.462617 345.377298 
L 185.516561 343.873048 
L 185.962469 345.444106 
L 179.193967 341.932811 
L 186.777558 341.138478 
L 185.788257 342.437839 
L 193.734313 343.942088 
L 193.462617 345.377298 
"/>
    <path clip-path="url(#p8df5643c07)" d="M 27.937383 310.782702 
L 35.883439 312.286952 
L 35.437531 310.715894 
L 42.206033 314.227189 
L 34.622442 315.021522 
L 35.611743 313.722161 
L 27.665687 312.217912 
L 27.937383 310.782702 
"/>
    <path clip-path="url(#p8df5643c07)" d="M 61.191435 310.807289 
L 70.501824 313.904142 
L 70.269834 312.287591 
L 76.508475 316.671787 
L 68.88675 316.445701 
L 70.040796 315.290178 
L 60.730407 312.193325 
L 61.191435 310.807289 
"/>
    <path clip-path="url(#p8df5643c07)" d="M 94.636742 310.983872 
L 97.110612 313.457741 
L 97.627047 311.908435 
L 101.242095 318.622095 
L 94.528435 315.007047 
L 96.077741 314.490612 
L 93.603872 312.016742 
L 94.636742 310.983872 
"/>
    <path clip-path="url(#p8df5643c07)" d="M 127.796128 312.016742 
L 125.322259 314.490612 
L 126.871565 315.007047 
L 120.157905 318.622095 
L 123.772953 311.908435 
L 124.289388 313.457741 
L 126.763258 310.983872 
L 127.796128 312.016742 
"/>
    <path clip-path="url(#p8df5643c07)" d="M 160.669593 312.193325 
L 151.359204 315.290178 
L 152.51325 316.445701 
L 144.891525 316.671787 
L 151.130166 312.287591 
L 150.898176 313.904142 
L 160.208565 310.807289 
L 160.669593 312.193325 
"/>
    <path clip-path="url(#p8df5643c07)" d="M 193.734313 312.217912 
L 185.788257 313.722161 
L 186.777558 315.021522 
L 179.193967 314.227189 
L 185.962469 310.715894 
L 185.516561 312.286952 
L 193.462617 310.782702 
L 193.734313 312.217912 
"/>
    <path clip-path="url(#p8df5643c07)" d="M 28.162792 277.706173 
L 32.909877 280.407907 
L 32.997644 278.777155 
L 38.261347 284.293969 
L 30.830101 282.58564 
L 32.187363 281.677402 
L 27.440278 278.975668 
L 28.162792 277.706173 
"/>
    <path clip-path="url(#p8df5643c07)" d="M 61.477356 277.824485 
L 68.119279 284.466408 
L 68.635714 282.917102 
L 72.250762 289.630762 
L 65.537102 286.015714 
L 67.086408 285.499279 
L 60.444485 278.857356 
L 61.477356 277.824485 
"/>
    <path clip-path="url(#p8df5643c07)" d="M 94.813325 278.110407 
L 97.910178 287.420796 
L 99.065701 286.26675 
L 99.291787 293.888475 
L 94.907591 287.649834 
L 96.524142 287.881824 
L 93.427289 278.571435 
L 94.813325 278.110407 
"/>
    <path clip-path="url(#p8df5643c07)" d="M 127.972711 278.571435 
L 124.875858 287.881824 
L 126.492409 287.649834 
L 122.108213 293.888475 
L 122.334299 286.26675 
L 123.489822 287.420796 
L 126.586675 278.110407 
L 127.972711 278.571435 
"/>
    <path clip-path="url(#p8df5643c07)" d="M 160.955515 278.857356 
L 154.313592 285.499279 
L 155.862898 286.015714 
L 149.149238 289.630762 
L 152.764286 282.917102 
L 153.280721 284.466408 
L 159.922644 277.824485 
L 160.955515 278.857356 
"/>
    <path clip-path="url(#p8df5643c07)" d="M 193.959722 278.975668 
L 189.212637 281.677402 
L 190.569899 282.58564 
L 183.138653 284.293969 
L 188.402356 278.777155 
L 188.490123 280.407907 
L 193.237208 277.706173 
L 193.959722 278.975668 
"/>
    <path clip-path="url(#p8df5643c07)" d="M 28.31797 244.665099 
L 29.185431 245.53256 
L 29.701867 243.983254 
L 33.316915 250.696915 
L 26.603254 247.081867 
L 28.15256 246.565431 
L 27.285099 245.69797 
L 28.31797 244.665099 
"/>
    <path clip-path="url(#p8df5643c07)" d="M 61.595668 244.820278 
L 64.297402 249.567363 
L 65.20564 248.210101 
L 66.913969 255.641347 
L 61.397155 250.377644 
L 63.027907 250.289877 
L 60.326173 245.542792 
L 61.595668 244.820278 
"/>
    <path clip-path="url(#p8df5643c07)" d="M 94.837912 245.045687 
L 96.342161 252.991743 
L 97.641522 252.002442 
L 96.847189 259.586033 
L 93.335894 252.817531 
L 94.906952 253.263439 
L 93.402702 245.317383 
L 94.837912 245.045687 
"/>
    <path clip-path="url(#p8df5643c07)" d="M 127.997298 245.317383 
L 126.493048 253.263439 
L 128.064106 252.817531 
L 124.552811 259.586033 
L 123.758478 252.002442 
L 125.057839 252.991743 
L 126.562088 245.045687 
L 127.997298 245.317383 
"/>
    <path clip-path="url(#p8df5643c07)" d="M 161.073827 245.542792 
L 158.372093 250.289877 
L 160.002845 250.377644 
L 154.486031 255.641347 
L 156.19436 248.210101 
L 157.102598 249.567363 
L 159.804332 244.820278 
L 161.073827 245.542792 
"/>
    <path clip-path="url(#p8df5643c07)" d="M 194.114901 245.69797 
L 193.24744 246.565431 
L 194.796746 247.081867 
L 188.083085 250.696915 
L 191.698133 243.983254 
L 192.214569 245.53256 
L 193.08203 244.665099 
L 194.114901 245.69797 
"/>
   </g>
   <g id="matplotlib.axis_5"/>
   <g id="matplotlib.axis_6"/>
   <g id="patch_13">
    <path d="M 13.32 418.68 
L 13.32 237.48 
" style="fill:none;stroke:#000000;stroke-linecap:square;stroke-linejoin:miter;stroke-width:0.8;"/>
   </g>
   <g id="patch_14">
    <path d="M 208.08 418.68 
L 208.08 237.48 
" style="fill:none;stroke:#000000;stroke-linecap:square;stroke-linejoin:miter;stroke-width:0.8;"/>
   </g>
   <g id="patch_15">
    <path d="M 13.32 418.68 
L 208.08 418.68 
" style="fill:none;stroke:#000000;stroke-linecap:square;stroke-linejoin:miter;stroke-width:0.8;"/>
   </g>
   <g id="patch_16">
    <path d="M 13.32 237.48 
L 208.08 237.48 
" style="fill:none;stroke:#000000;stroke-linecap:square;stroke-linejoin:miter;stroke-width:0.8;"/>
   </g>
   <g id="text_3">
    <!-- C -->
    <defs>
     <path d="M 64.40625 67.28125 
L 64.40625 56.890625 
Q 59.421875 61.53125 53.78125 63.8125 
Q 48.140625 66.109375 41.796875 66.109375 
Q 29.296875 66.109375 22.65625 58.46875 
Q 16.015625 50.828125 16.015625 36.375 
Q 16.015625 21.96875 22.65625 14.328125 
Q 29.296875 6.6875 41.796875 6.6875 
Q 48.140625 6.6875 53.78125 8.984375 
Q 59.421875 11.28125 64.40625 15.921875 
L 64.40625 5.609375 
Q 59.234375 2.09375 53.4375 0.328125 
Q 47.65625 -1.421875 41.21875 -1.421875 
Q 24.65625 -1.421875 15.125 8.703125 
Q 5.609375 18.84375 5.609375 36.375 
Q 5.609375 53.953125 15.125 64.078125 
Q 24.65625 74.21875 41.21875 74.21875 
Q 47.75 74.21875 53.53125 72.484375 
Q 59.328125 70.75 64.40625 67.28125 
z
" id="DejaVuSans-43"/>
    </defs>
    <g transform="translate(106.510312 231.48)scale(0.12 -0.12)">
     <use xlink:href="#DejaVuSans-43"/>
    </g>
   </g>
  </g>
  <g id="axes_4">
   <g id="patch_17">
    <path d="M 223.92 418.68 
L 418.68 418.68 
L 418.68 237.48 
L 223.92 237.48 
z
" style="fill:#ffffff;"/>
   </g>
   <g id="Quiver_4">
    <path clip-path="url(#pce159c05f7)" d="M 237.885099 410.46203 
L 252.71318 395.633949 
L 251.163874 395.117513 
L 257.877535 391.502465 
L 254.262487 398.216126 
L 253.746051 396.66682 
L 238.91797 411.494901 
L 237.885099 410.46203 
"/>
    <path clip-path="url(#pce159c05f7)" d="M 271.044485 410.46203 
L 285.872567 395.633949 
L 284.32326 395.117513 
L 291.036921 391.502465 
L 287.421873 398.216126 
L 286.905437 396.66682 
L 272.077356 411.494901 
L 271.044485 410.46203 
"/>
    <path clip-path="url(#pce159c05f7)" d="M 304.203872 410.46203 
L 319.031953 395.633949 
L 317.482646 395.117513 
L 324.196307 391.502465 
L 320.581259 398.216126 
L 320.064823 396.66682 
L 305.236742 411.494901 
L 304.203872 410.46203 
"/>
    <path clip-path="url(#pce159c05f7)" d="M 337.363258 410.46203 
L 352.191339 395.633949 
L 350.642032 395.117513 
L 357.355693 391.502465 
L 353.740645 398.216126 
L 353.22421 396.66682 
L 338.396128 411.494901 
L 337.363258 410.46203 
"/>
    <path clip-path="url(#pce159c05f7)" d="M 370.522644 410.46203 
L 385.350725 395.633949 
L 383.801418 395.117513 
L 390.515079 391.502465 
L 386.900031 398.216126 
L 386.383596 396.66682 
L 371.555515 411.494901 
L 370.522644 410.46203 
"/>
    <path clip-path="url(#pce159c05f7)" d="M 403.68203 410.46203 
L 418.510111 395.633949 
L 416.960804 395.117513 
L 423.674465 391.502465 
L 420.059417 398.216126 
L 419.542982 396.66682 
L 404.714901 411.494901 
L 403.68203 410.46203 
"/>
    <path clip-path="url(#pce159c05f7)" d="M 237.885099 377.302644 
L 252.71318 362.474563 
L 251.163874 361.958127 
L 257.877535 358.343079 
L 254.262487 365.05674 
L 253.746051 363.507433 
L 238.91797 378.335515 
L 237.885099 377.302644 
"/>
    <path clip-path="url(#pce159c05f7)" d="M 271.044485 377.302644 
L 285.872567 362.474563 
L 284.32326 361.958127 
L 291.036921 358.343079 
L 287.421873 365.05674 
L 286.905437 363.507433 
L 272.077356 378.335515 
L 271.044485 377.302644 
"/>
    <path clip-path="url(#pce159c05f7)" d="M 304.203872 377.302644 
L 319.031953 362.474563 
L 317.482646 361.958127 
L 324.196307 358.343079 
L 320.581259 365.05674 
L 320.064823 363.507433 
L 305.236742 378.335515 
L 304.203872 377.302644 
"/>
    <path clip-path="url(#pce159c05f7)" d="M 337.363258 377.302644 
L 352.191339 362.474563 
L 350.642032 361.958127 
L 357.355693 358.343079 
L 353.740645 365.05674 
L 353.22421 363.507433 
L 338.396128 378.335515 
L 337.363258 377.302644 
"/>
    <path clip-path="url(#pce159c05f7)" d="M 370.522644 377.302644 
L 385.350725 362.474563 
L 383.801418 361.958127 
L 390.515079 358.343079 
L 386.900031 365.05674 
L 386.383596 363.507433 
L 371.555515 378.335515 
L 370.522644 377.302644 
"/>
    <path clip-path="url(#pce159c05f7)" d="M 403.68203 377.302644 
L 418.510111 362.474563 
L 416.960804 361.958127 
L 423.674465 358.343079 
L 420.059417 365.05674 
L 419.542982 363.507433 
L 404.714901 378.335515 
L 403.68203 377.302644 
"/>
    <path clip-path="url(#pce159c05f7)" d="M 237.885099 344.143258 
L 252.71318 329.315177 
L 251.163874 328.798741 
L 257.877535 325.183693 
L 254.262487 331.897354 
L 253.746051 330.348047 
L 238.91797 345.176128 
L 237.885099 344.143258 
"/>
    <path clip-path="url(#pce159c05f7)" d="M 271.044485 344.143258 
L 285.872567 329.315177 
L 284.32326 328.798741 
L 291.036921 325.183693 
L 287.421873 331.897354 
L 286.905437 330.348047 
L 272.077356 345.176128 
L 271.044485 344.143258 
"/>
    <path clip-path="url(#pce159c05f7)" d="M 304.203872 344.143258 
L 319.031953 329.315177 
L 317.482646 328.798741 
L 324.196307 325.183693 
L 320.581259 331.897354 
L 320.064823 330.348047 
L 305.236742 345.176128 
L 304.203872 344.143258 
"/>
    <path clip-path="url(#pce159c05f7)" d="M 337.363258 344.143258 
L 352.191339 329.315177 
L 350.642032 328.798741 
L 357.355693 325.183693 
L 353.740645 331.897354 
L 353.22421 330.348047 
L 338.396128 345.176128 
L 337.363258 344.143258 
"/>
    <path clip-path="url(#pce159c05f7)" d="M 370.522644 344.143258 
L 385.350725 329.315177 
L 383.801418 328.798741 
L 390.515079 325.183693 
L 386.900031 331.897354 
L 386.383596 330.348047 
L 371.555515 345.176128 
L 370.522644 344.143258 
"/>
    <path clip-path="url(#pce159c05f7)" d="M 403.68203 344.143258 
L 418.510111 329.315177 
L 416.960804 328.798741 
L 423.674465 325.183693 
L 420.059417 331.897354 
L 419.542982 330.348047 
L 404.714901 345.176128 
L 403.68203 344.143258 
"/>
    <path clip-path="url(#pce159c05f7)" d="M 237.885099 310.983872 
L 252.71318 296.15579 
L 251.163874 295.639355 
L 257.877535 292.024307 
L 254.262487 298.737968 
L 253.746051 297.188661 
L 238.91797 312.016742 
L 237.885099 310.983872 
"/>
    <path clip-path="url(#pce159c05f7)" d="M 271.044485 310.983872 
L 285.872567 296.15579 
L 284.32326 295.639355 
L 291.036921 292.024307 
L 287.421873 298.737968 
L 286.905437 297.188661 
L 272.077356 312.016742 
L 271.044485 310.983872 
"/>
    <path clip-path="url(#pce159c05f7)" d="M 304.203872 310.983872 
L 319.031953 296.15579 
L 317.482646 295.639355 
L 324.196307 292.024307 
L 320.581259 298.737968 
L 320.064823 297.188661 
L 305.236742 312.016742 
L 304.203872 310.983872 
"/>
    <path clip-path="url(#pce159c05f7)" d="M 337.363258 310.983872 
L 352.191339 296.15579 
L 350.642032 295.639355 
L 357.355693 292.024307 
L 353.740645 298.737968 
L 353.22421 297.188661 
L 338.396128 312.016742 
L 337.363258 310.983872 
"/>
    <path clip-path="url(#pce159c05f7)" d="M 370.522644 310.983872 
L 385.350725 296.15579 
L 383.801418 295.639355 
L 390.515079 292.024307 
L 386.900031 298.737968 
L 386.383596 297.188661 
L 371.555515 312.016742 
L 370.522644 310.983872 
"/>
    <path clip-path="url(#pce159c05f7)" d="M 403.68203 310.983872 
L 418.510111 296.15579 
L 416.960804 295.639355 
L 423.674465 292.024307 
L 420.059417 298.737968 
L 419.542982 297.188661 
L 404.714901 312.016742 
L 403.68203 310.983872 
"/>
    <path clip-path="url(#pce159c05f7)" d="M 237.885099 277.824485 
L 252.71318 262.996404 
L 251.163874 262.479969 
L 257.877535 258.864921 
L 254.262487 265.578582 
L 253.746051 264.029275 
L 238.91797 278.857356 
L 237.885099 277.824485 
"/>
    <path clip-path="url(#pce159c05f7)" d="M 271.044485 277.824485 
L 285.872567 262.996404 
L 284.32326 262.479969 
L 291.036921 258.864921 
L 287.421873 265.578582 
L 286.905437 264.029275 
L 272.077356 278.857356 
L 271.044485 277.824485 
"/>
    <path clip-path="url(#pce159c05f7)" d="M 304.203872 277.824485 
L 319.031953 262.996404 
L 317.482646 262.479969 
L 324.196307 258.864921 
L 320.581259 265.578582 
L 320.064823 264.029275 
L 305.236742 278.857356 
L 304.203872 277.824485 
"/>
    <path clip-path="url(#pce159c05f7)" d="M 337.363258 277.824485 
L 352.191339 262.996404 
L 350.642032 262.479969 
L 357.355693 258.864921 
L 353.740645 265.578582 
L 353.22421 264.029275 
L 338.396128 278.857356 
L 337.363258 277.824485 
"/>
    <path clip-path="url(#pce159c05f7)" d="M 370.522644 277.824485 
L 385.350725 262.996404 
L 383.801418 262.479969 
L 390.515079 258.864921 
L 386.900031 265.578582 
L 386.383596 264.029275 
L 371.555515 278.857356 
L 370.522644 277.824485 
"/>
    <path clip-path="url(#pce159c05f7)" d="M 403.68203 277.824485 
L 418.510111 262.996404 
L 416.960804 262.479969 
L 423.674465 258.864921 
L 420.059417 265.578582 
L 419.542982 264.029275 
L 404.714901 278.857356 
L 403.68203 277.824485 
"/>
    <path clip-path="url(#pce159c05f7)" d="M 237.885099 244.665099 
L 252.71318 229.837018 
L 251.163874 229.320583 
L 257.877535 225.705535 
L 254.262487 232.419196 
L 253.746051 230.869889 
L 238.91797 245.69797 
L 237.885099 244.665099 
"/>
    <path clip-path="url(#pce159c05f7)" d="M 271.044485 244.665099 
L 285.872567 229.837018 
L 284.32326 229.320583 
L 291.036921 225.705535 
L 287.421873 232.419196 
L 286.905437 230.869889 
L 272.077356 245.69797 
L 271.044485 244.665099 
"/>
    <path clip-path="url(#pce159c05f7)" d="M 304.203872 244.665099 
L 319.031953 229.837018 
L 317.482646 229.320583 
L 324.196307 225.705535 
L 320.581259 232.419196 
L 320.064823 230.869889 
L 305.236742 245.69797 
L 304.203872 244.665099 
"/>
    <path clip-path="url(#pce159c05f7)" d="M 337.363258 244.665099 
L 352.191339 229.837018 
L 350.642032 229.320583 
L 357.355693 225.705535 
L 353.740645 232.419196 
L 353.22421 230.869889 
L 338.396128 245.69797 
L 337.363258 244.665099 
"/>
    <path clip-path="url(#pce159c05f7)" d="M 370.522644 244.665099 
L 385.350725 229.837018 
L 383.801418 229.320583 
L 390.515079 225.705535 
L 386.900031 232.419196 
L 386.383596 230.869889 
L 371.555515 245.69797 
L 370.522644 244.665099 
"/>
    <path clip-path="url(#pce159c05f7)" d="M 403.68203 244.665099 
L 418.510111 229.837018 
L 416.960804 229.320583 
L 423.674465 225.705535 
L 420.059417 232.419196 
L 419.542982 230.869889 
L 404.714901 245.69797 
L 403.68203 244.665099 
"/>
   </g>
   <g id="matplotlib.axis_7"/>
   <g id="matplotlib.axis_8"/>
   <g id="patch_18">
    <path d="M 223.92 418.68 
L 223.92 237.48 
" style="fill:none;stroke:#000000;stroke-linecap:square;stroke-linejoin:miter;stroke-width:0.8;"/>
   </g>
   <g id="patch_19">
    <path d="M 418.68 418.68 
L 418.68 237.48 
" style="fill:none;stroke:#000000;stroke-linecap:square;stroke-linejoin:miter;stroke-width:0.8;"/>
   </g>
   <g id="patch_20">
    <path d="M 223.92 418.68 
L 418.68 418.68 
" style="fill:none;stroke:#000000;stroke-linecap:square;stroke-linejoin:miter;stroke-width:0.8;"/>
   </g>
   <g id="patch_21">
    <path d="M 223.92 237.48 
L 418.68 237.48 
" style="fill:none;stroke:#000000;stroke-linecap:square;stroke-linejoin:miter;stroke-width:0.8;"/>
   </g>
   <g id="text_4">
    <!-- D -->
    <defs>
     <path d="M 19.671875 64.796875 
L 19.671875 8.109375 
L 31.59375 8.109375 
Q 46.6875 8.109375 53.6875 14.9375 
Q 60.6875 21.78125 60.6875 36.53125 
Q 60.6875 51.171875 53.6875 57.984375 
Q 46.6875 64.796875 31.59375 64.796875 
z
M 9.8125 72.90625 
L 30.078125 72.90625 
Q 51.265625 72.90625 61.171875 64.09375 
Q 71.09375 55.28125 71.09375 36.53125 
Q 71.09375 17.671875 61.125 8.828125 
Q 51.171875 0 30.078125 0 
L 9.8125 0 
z
" id="DejaVuSans-44"/>
    </defs>
    <g transform="translate(316.68 231.48)scale(0.12 -0.12)">
     <use xlink:href="#DejaVuSans-44"/>
    </g>
   </g>
  </g>
 </g>
 <defs>
  <clipPath id="pafd472f3aa">
   <rect height="181.2" width="194.76" x="13.32" y="26.88"/>
  </clipPath>
  <clipPath id="pabd46411ef">
   <rect height="181.2" width="194.76" x="223.92" y="26.88"/>
  </clipPath>
  <clipPath id="p8df5643c07">
   <rect height="181.2" width="194.76" x="13.32" y="237.48"/>
  </clipPath>
  <clipPath id="pce159c05f7">
   <rect height="181.2" width="194.76" x="223.92" y="237.48"/>
  </clipPath>
 </defs>
</svg>
