<?xml version="1.0" encoding="utf-8" standalone="no"?>
<!DOCTYPE svg PUBLIC "-//W3C//DTD SVG 1.1//EN"
  "http://www.w3.org/Graphics/SVG/1.1/DTD/svg11.dtd">
<!-- Created with matplotlib (http://matplotlib.org/) -->
<svg height="216pt" version="1.1" viewBox="0 0 216 216" width="216pt" xmlns="http://www.w3.org/2000/svg" xmlns:xlink="http://www.w3.org/1999/xlink">
 <defs>
  <style type="text/css">
*{stroke-linecap:butt;stroke-linejoin:round;}
  </style>
 </defs>
 <g id="figure_1">
  <g id="patch_1">
   <path d="M 0 216 
L 216 216 
L 216 0 
L 0 0 
z
" style="fill:#ffffff;"/>
  </g>
  <g id="axes_1">
   <g id="patch_2">
    <path d="M 13.32 202.68 
L 202.68 202.68 
L 202.68 13.32 
L 13.32 13.32 
z
" style="fill:#ffffff;"/>
   </g>
   <g id="QuadMesh_1">
    <path clip-path="url(#p6b277ac369)" d="M 13.930839 202.069161 
L 23.337755 202.069161 
L 23.337755 192.662245 
L 13.930839 192.662245 
L 13.930839 202.069161 
" style="fill:#440154;"/>
    <path clip-path="url(#p6b277ac369)" d="M 23.337755 202.069161 
L 32.744671 202.069161 
L 32.744671 192.662245 
L 23.337755 192.662245 
L 23.337755 202.069161 
" style="fill:#460a5d;"/>
    <path clip-path="url(#p6b277ac369)" d="M 32.744671 202.069161 
L 42.151587 202.069161 
L 42.151587 192.662245 
L 32.744671 192.662245 
L 32.744671 202.069161 
" style="fill:#481467;"/>
    <path clip-path="url(#p6b277ac369)" d="M 42.151587 202.069161 
L 51.558503 202.069161 
L 51.558503 192.662245 
L 42.151587 192.662245 
L 42.151587 202.069161 
" style="fill:#481d6f;"/>
    <path clip-path="url(#p6b277ac369)" d="M 51.558503 202.069161 
L 60.965419 202.069161 
L 60.965419 192.662245 
L 51.558503 192.662245 
L 51.558503 202.069161 
" style="fill:#482576;"/>
    <path clip-path="url(#p6b277ac369)" d="M 60.965419 202.069161 
L 70.372335 202.069161 
L 70.372335 192.662245 
L 60.965419 192.662245 
L 60.965419 202.069161 
" style="fill:#472e7c;"/>
    <path clip-path="url(#p6b277ac369)" d="M 70.372335 202.069161 
L 79.779252 202.069161 
L 79.779252 192.662245 
L 70.372335 192.662245 
L 70.372335 202.069161 
" style="fill:#453781;"/>
    <path clip-path="url(#p6b277ac369)" d="M 79.779252 202.069161 
L 89.186168 202.069161 
L 89.186168 192.662245 
L 79.779252 192.662245 
L 79.779252 202.069161 
" style="fill:#423f85;"/>
    <path clip-path="url(#p6b277ac369)" d="M 89.186168 202.069161 
L 98.593084 202.069161 
L 98.593084 192.662245 
L 89.186168 192.662245 
L 89.186168 202.069161 
" style="fill:#404688;"/>
    <path clip-path="url(#p6b277ac369)" d="M 98.593084 202.069161 
L 108 202.069161 
L 108 192.662245 
L 98.593084 192.662245 
L 98.593084 202.069161 
" style="fill:#3d4e8a;"/>
    <path clip-path="url(#p6b277ac369)" d="M 108 202.069161 
L 117.406916 202.069161 
L 117.406916 192.662245 
L 108 192.662245 
L 108 202.069161 
" style="fill:#39558c;"/>
    <path clip-path="url(#p6b277ac369)" d="M 117.406916 202.069161 
L 126.813832 202.069161 
L 126.813832 192.662245 
L 117.406916 192.662245 
L 117.406916 202.069161 
" style="fill:#365d8d;"/>
    <path clip-path="url(#p6b277ac369)" d="M 126.813832 202.069161 
L 136.220748 202.069161 
L 136.220748 192.662245 
L 126.813832 192.662245 
L 126.813832 202.069161 
" style="fill:#33638d;"/>
    <path clip-path="url(#p6b277ac369)" d="M 136.220748 202.069161 
L 145.627665 202.069161 
L 145.627665 192.662245 
L 136.220748 192.662245 
L 136.220748 202.069161 
" style="fill:#306a8e;"/>
    <path clip-path="url(#p6b277ac369)" d="M 145.627665 202.069161 
L 155.034581 202.069161 
L 155.034581 192.662245 
L 145.627665 192.662245 
L 145.627665 202.069161 
" style="fill:#2d718e;"/>
    <path clip-path="url(#p6b277ac369)" d="M 155.034581 202.069161 
L 164.441497 202.069161 
L 164.441497 192.662245 
L 155.034581 192.662245 
L 155.034581 202.069161 
" style="fill:#2a778e;"/>
    <path clip-path="url(#p6b277ac369)" d="M 164.441497 202.069161 
L 173.848413 202.069161 
L 173.848413 192.662245 
L 164.441497 192.662245 
L 164.441497 202.069161 
" style="fill:#287d8e;"/>
    <path clip-path="url(#p6b277ac369)" d="M 173.848413 202.069161 
L 183.255329 202.069161 
L 183.255329 192.662245 
L 173.848413 192.662245 
L 173.848413 202.069161 
" style="fill:#25838e;"/>
    <path clip-path="url(#p6b277ac369)" d="M 183.255329 202.069161 
L 192.662245 202.069161 
L 192.662245 192.662245 
L 183.255329 192.662245 
L 183.255329 202.069161 
" style="fill:#238a8d;"/>
    <path clip-path="url(#p6b277ac369)" d="M 192.662245 202.069161 
L 202.069161 202.069161 
L 202.069161 192.662245 
L 192.662245 192.662245 
L 192.662245 202.069161 
" style="fill:#21918c;"/>
    <path clip-path="url(#p6b277ac369)" d="M 13.930839 192.662245 
L 23.337755 192.662245 
L 23.337755 183.255329 
L 13.930839 183.255329 
L 13.930839 192.662245 
" style="fill:#460a5d;"/>
    <path clip-path="url(#p6b277ac369)" d="M 23.337755 192.662245 
L 32.744671 192.662245 
L 32.744671 183.255329 
L 23.337755 183.255329 
L 23.337755 192.662245 
" style="fill:#481467;"/>
    <path clip-path="url(#p6b277ac369)" d="M 32.744671 192.662245 
L 42.151587 192.662245 
L 42.151587 183.255329 
L 32.744671 183.255329 
L 32.744671 192.662245 
" style="fill:#481d6f;"/>
    <path clip-path="url(#p6b277ac369)" d="M 42.151587 192.662245 
L 51.558503 192.662245 
L 51.558503 183.255329 
L 42.151587 183.255329 
L 42.151587 192.662245 
" style="fill:#482576;"/>
    <path clip-path="url(#p6b277ac369)" d="M 51.558503 192.662245 
L 60.965419 192.662245 
L 60.965419 183.255329 
L 51.558503 183.255329 
L 51.558503 192.662245 
" style="fill:#472e7c;"/>
    <path clip-path="url(#p6b277ac369)" d="M 60.965419 192.662245 
L 70.372335 192.662245 
L 70.372335 183.255329 
L 60.965419 183.255329 
L 60.965419 192.662245 
" style="fill:#453781;"/>
    <path clip-path="url(#p6b277ac369)" d="M 70.372335 192.662245 
L 79.779252 192.662245 
L 79.779252 183.255329 
L 70.372335 183.255329 
L 70.372335 192.662245 
" style="fill:#423f85;"/>
    <path clip-path="url(#p6b277ac369)" d="M 79.779252 192.662245 
L 89.186168 192.662245 
L 89.186168 183.255329 
L 79.779252 183.255329 
L 79.779252 192.662245 
" style="fill:#404688;"/>
    <path clip-path="url(#p6b277ac369)" d="M 89.186168 192.662245 
L 98.593084 192.662245 
L 98.593084 183.255329 
L 89.186168 183.255329 
L 89.186168 192.662245 
" style="fill:#3d4e8a;"/>
    <path clip-path="url(#p6b277ac369)" d="M 98.593084 192.662245 
L 108 192.662245 
L 108 183.255329 
L 98.593084 183.255329 
L 98.593084 192.662245 
" style="fill:#39558c;"/>
    <path clip-path="url(#p6b277ac369)" d="M 108 192.662245 
L 117.406916 192.662245 
L 117.406916 183.255329 
L 108 183.255329 
L 108 192.662245 
" style="fill:#365d8d;"/>
    <path clip-path="url(#p6b277ac369)" d="M 117.406916 192.662245 
L 126.813832 192.662245 
L 126.813832 183.255329 
L 117.406916 183.255329 
L 117.406916 192.662245 
" style="fill:#33638d;"/>
    <path clip-path="url(#p6b277ac369)" d="M 126.813832 192.662245 
L 136.220748 192.662245 
L 136.220748 183.255329 
L 126.813832 183.255329 
L 126.813832 192.662245 
" style="fill:#306a8e;"/>
    <path clip-path="url(#p6b277ac369)" d="M 136.220748 192.662245 
L 145.627665 192.662245 
L 145.627665 183.255329 
L 136.220748 183.255329 
L 136.220748 192.662245 
" style="fill:#2d718e;"/>
    <path clip-path="url(#p6b277ac369)" d="M 145.627665 192.662245 
L 155.034581 192.662245 
L 155.034581 183.255329 
L 145.627665 183.255329 
L 145.627665 192.662245 
" style="fill:#2a778e;"/>
    <path clip-path="url(#p6b277ac369)" d="M 155.034581 192.662245 
L 164.441497 192.662245 
L 164.441497 183.255329 
L 155.034581 183.255329 
L 155.034581 192.662245 
" style="fill:#287d8e;"/>
    <path clip-path="url(#p6b277ac369)" d="M 164.441497 192.662245 
L 173.848413 192.662245 
L 173.848413 183.255329 
L 164.441497 183.255329 
L 164.441497 192.662245 
" style="fill:#25838e;"/>
    <path clip-path="url(#p6b277ac369)" d="M 173.848413 192.662245 
L 183.255329 192.662245 
L 183.255329 183.255329 
L 173.848413 183.255329 
L 173.848413 192.662245 
" style="fill:#238a8d;"/>
    <path clip-path="url(#p6b277ac369)" d="M 183.255329 192.662245 
L 192.662245 192.662245 
L 192.662245 183.255329 
L 183.255329 183.255329 
L 183.255329 192.662245 
" style="fill:#21908d;"/>
    <path clip-path="url(#p6b277ac369)" d="M 192.662245 192.662245 
L 202.069161 192.662245 
L 202.069161 183.255329 
L 192.662245 183.255329 
L 192.662245 192.662245 
" style="fill:#1f968b;"/>
    <path clip-path="url(#p6b277ac369)" d="M 13.930839 183.255329 
L 23.337755 183.255329 
L 23.337755 173.848413 
L 13.930839 173.848413 
L 13.930839 183.255329 
" style="fill:#481467;"/>
    <path clip-path="url(#p6b277ac369)" d="M 23.337755 183.255329 
L 32.744671 183.255329 
L 32.744671 173.848413 
L 23.337755 173.848413 
L 23.337755 183.255329 
" style="fill:#481d6f;"/>
    <path clip-path="url(#p6b277ac369)" d="M 32.744671 183.255329 
L 42.151587 183.255329 
L 42.151587 173.848413 
L 32.744671 173.848413 
L 32.744671 183.255329 
" style="fill:#482576;"/>
    <path clip-path="url(#p6b277ac369)" d="M 42.151587 183.255329 
L 51.558503 183.255329 
L 51.558503 173.848413 
L 42.151587 173.848413 
L 42.151587 183.255329 
" style="fill:#472e7c;"/>
    <path clip-path="url(#p6b277ac369)" d="M 51.558503 183.255329 
L 60.965419 183.255329 
L 60.965419 173.848413 
L 51.558503 173.848413 
L 51.558503 183.255329 
" style="fill:#453781;"/>
    <path clip-path="url(#p6b277ac369)" d="M 60.965419 183.255329 
L 70.372335 183.255329 
L 70.372335 173.848413 
L 60.965419 173.848413 
L 60.965419 183.255329 
" style="fill:#423f85;"/>
    <path clip-path="url(#p6b277ac369)" d="M 70.372335 183.255329 
L 79.779252 183.255329 
L 79.779252 173.848413 
L 70.372335 173.848413 
L 70.372335 183.255329 
" style="fill:#404688;"/>
    <path clip-path="url(#p6b277ac369)" d="M 79.779252 183.255329 
L 89.186168 183.255329 
L 89.186168 173.848413 
L 79.779252 173.848413 
L 79.779252 183.255329 
" style="fill:#3d4e8a;"/>
    <path clip-path="url(#p6b277ac369)" d="M 89.186168 183.255329 
L 98.593084 183.255329 
L 98.593084 173.848413 
L 89.186168 173.848413 
L 89.186168 183.255329 
" style="fill:#39558c;"/>
    <path clip-path="url(#p6b277ac369)" d="M 98.593084 183.255329 
L 108 183.255329 
L 108 173.848413 
L 98.593084 173.848413 
L 98.593084 183.255329 
" style="fill:#365d8d;"/>
    <path clip-path="url(#p6b277ac369)" d="M 108 183.255329 
L 117.406916 183.255329 
L 117.406916 173.848413 
L 108 173.848413 
L 108 183.255329 
" style="fill:#33638d;"/>
    <path clip-path="url(#p6b277ac369)" d="M 117.406916 183.255329 
L 126.813832 183.255329 
L 126.813832 173.848413 
L 117.406916 173.848413 
L 117.406916 183.255329 
" style="fill:#306a8e;"/>
    <path clip-path="url(#p6b277ac369)" d="M 126.813832 183.255329 
L 136.220748 183.255329 
L 136.220748 173.848413 
L 126.813832 173.848413 
L 126.813832 183.255329 
" style="fill:#2d718e;"/>
    <path clip-path="url(#p6b277ac369)" d="M 136.220748 183.255329 
L 145.627665 183.255329 
L 145.627665 173.848413 
L 136.220748 173.848413 
L 136.220748 183.255329 
" style="fill:#2a778e;"/>
    <path clip-path="url(#p6b277ac369)" d="M 145.627665 183.255329 
L 155.034581 183.255329 
L 155.034581 173.848413 
L 145.627665 173.848413 
L 145.627665 183.255329 
" style="fill:#287d8e;"/>
    <path clip-path="url(#p6b277ac369)" d="M 155.034581 183.255329 
L 164.441497 183.255329 
L 164.441497 173.848413 
L 155.034581 173.848413 
L 155.034581 183.255329 
" style="fill:#25838e;"/>
    <path clip-path="url(#p6b277ac369)" d="M 164.441497 183.255329 
L 173.848413 183.255329 
L 173.848413 173.848413 
L 164.441497 173.848413 
L 164.441497 183.255329 
" style="fill:#238a8d;"/>
    <path clip-path="url(#p6b277ac369)" d="M 173.848413 183.255329 
L 183.255329 183.255329 
L 183.255329 173.848413 
L 173.848413 173.848413 
L 173.848413 183.255329 
" style="fill:#21918c;"/>
    <path clip-path="url(#p6b277ac369)" d="M 183.255329 183.255329 
L 192.662245 183.255329 
L 192.662245 173.848413 
L 183.255329 173.848413 
L 183.255329 183.255329 
" style="fill:#1f968b;"/>
    <path clip-path="url(#p6b277ac369)" d="M 192.662245 183.255329 
L 202.069161 183.255329 
L 202.069161 173.848413 
L 192.662245 173.848413 
L 192.662245 183.255329 
" style="fill:#1e9d89;"/>
    <path clip-path="url(#p6b277ac369)" d="M 13.930839 173.848413 
L 23.337755 173.848413 
L 23.337755 164.441497 
L 13.930839 164.441497 
L 13.930839 173.848413 
" style="fill:#481d6f;"/>
    <path clip-path="url(#p6b277ac369)" d="M 23.337755 173.848413 
L 32.744671 173.848413 
L 32.744671 164.441497 
L 23.337755 164.441497 
L 23.337755 173.848413 
" style="fill:#482576;"/>
    <path clip-path="url(#p6b277ac369)" d="M 32.744671 173.848413 
L 42.151587 173.848413 
L 42.151587 164.441497 
L 32.744671 164.441497 
L 32.744671 173.848413 
" style="fill:#472e7c;"/>
    <path clip-path="url(#p6b277ac369)" d="M 42.151587 173.848413 
L 51.558503 173.848413 
L 51.558503 164.441497 
L 42.151587 164.441497 
L 42.151587 173.848413 
" style="fill:#453781;"/>
    <path clip-path="url(#p6b277ac369)" d="M 51.558503 173.848413 
L 60.965419 173.848413 
L 60.965419 164.441497 
L 51.558503 164.441497 
L 51.558503 173.848413 
" style="fill:#423f85;"/>
    <path clip-path="url(#p6b277ac369)" d="M 60.965419 173.848413 
L 70.372335 173.848413 
L 70.372335 164.441497 
L 60.965419 164.441497 
L 60.965419 173.848413 
" style="fill:#404688;"/>
    <path clip-path="url(#p6b277ac369)" d="M 70.372335 173.848413 
L 79.779252 173.848413 
L 79.779252 164.441497 
L 70.372335 164.441497 
L 70.372335 173.848413 
" style="fill:#3d4e8a;"/>
    <path clip-path="url(#p6b277ac369)" d="M 79.779252 173.848413 
L 89.186168 173.848413 
L 89.186168 164.441497 
L 79.779252 164.441497 
L 79.779252 173.848413 
" style="fill:#39558c;"/>
    <path clip-path="url(#p6b277ac369)" d="M 89.186168 173.848413 
L 98.593084 173.848413 
L 98.593084 164.441497 
L 89.186168 164.441497 
L 89.186168 173.848413 
" style="fill:#365d8d;"/>
    <path clip-path="url(#p6b277ac369)" d="M 98.593084 173.848413 
L 108 173.848413 
L 108 164.441497 
L 98.593084 164.441497 
L 98.593084 173.848413 
" style="fill:#33638d;"/>
    <path clip-path="url(#p6b277ac369)" d="M 108 173.848413 
L 117.406916 173.848413 
L 117.406916 164.441497 
L 108 164.441497 
L 108 173.848413 
" style="fill:#306a8e;"/>
    <path clip-path="url(#p6b277ac369)" d="M 117.406916 173.848413 
L 126.813832 173.848413 
L 126.813832 164.441497 
L 117.406916 164.441497 
L 117.406916 173.848413 
" style="fill:#2d718e;"/>
    <path clip-path="url(#p6b277ac369)" d="M 126.813832 173.848413 
L 136.220748 173.848413 
L 136.220748 164.441497 
L 126.813832 164.441497 
L 126.813832 173.848413 
" style="fill:#2a778e;"/>
    <path clip-path="url(#p6b277ac369)" d="M 136.220748 173.848413 
L 145.627665 173.848413 
L 145.627665 164.441497 
L 136.220748 164.441497 
L 136.220748 173.848413 
" style="fill:#287d8e;"/>
    <path clip-path="url(#p6b277ac369)" d="M 145.627665 173.848413 
L 155.034581 173.848413 
L 155.034581 164.441497 
L 145.627665 164.441497 
L 145.627665 173.848413 
" style="fill:#25838e;"/>
    <path clip-path="url(#p6b277ac369)" d="M 155.034581 173.848413 
L 164.441497 173.848413 
L 164.441497 164.441497 
L 155.034581 164.441497 
L 155.034581 173.848413 
" style="fill:#238a8d;"/>
    <path clip-path="url(#p6b277ac369)" d="M 164.441497 173.848413 
L 173.848413 173.848413 
L 173.848413 164.441497 
L 164.441497 164.441497 
L 164.441497 173.848413 
" style="fill:#21918c;"/>
    <path clip-path="url(#p6b277ac369)" d="M 173.848413 173.848413 
L 183.255329 173.848413 
L 183.255329 164.441497 
L 173.848413 164.441497 
L 173.848413 173.848413 
" style="fill:#1f968b;"/>
    <path clip-path="url(#p6b277ac369)" d="M 183.255329 173.848413 
L 192.662245 173.848413 
L 192.662245 164.441497 
L 183.255329 164.441497 
L 183.255329 173.848413 
" style="fill:#1e9d89;"/>
    <path clip-path="url(#p6b277ac369)" d="M 192.662245 173.848413 
L 202.069161 173.848413 
L 202.069161 164.441497 
L 192.662245 164.441497 
L 192.662245 173.848413 
" style="fill:#20a386;"/>
    <path clip-path="url(#p6b277ac369)" d="M 13.930839 164.441497 
L 23.337755 164.441497 
L 23.337755 155.034581 
L 13.930839 155.034581 
L 13.930839 164.441497 
" style="fill:#482576;"/>
    <path clip-path="url(#p6b277ac369)" d="M 23.337755 164.441497 
L 32.744671 164.441497 
L 32.744671 155.034581 
L 23.337755 155.034581 
L 23.337755 164.441497 
" style="fill:#472e7c;"/>
    <path clip-path="url(#p6b277ac369)" d="M 32.744671 164.441497 
L 42.151587 164.441497 
L 42.151587 155.034581 
L 32.744671 155.034581 
L 32.744671 164.441497 
" style="fill:#453781;"/>
    <path clip-path="url(#p6b277ac369)" d="M 42.151587 164.441497 
L 51.558503 164.441497 
L 51.558503 155.034581 
L 42.151587 155.034581 
L 42.151587 164.441497 
" style="fill:#423f85;"/>
    <path clip-path="url(#p6b277ac369)" d="M 51.558503 164.441497 
L 60.965419 164.441497 
L 60.965419 155.034581 
L 51.558503 155.034581 
L 51.558503 164.441497 
" style="fill:#404688;"/>
    <path clip-path="url(#p6b277ac369)" d="M 60.965419 164.441497 
L 70.372335 164.441497 
L 70.372335 155.034581 
L 60.965419 155.034581 
L 60.965419 164.441497 
" style="fill:#3d4e8a;"/>
    <path clip-path="url(#p6b277ac369)" d="M 70.372335 164.441497 
L 79.779252 164.441497 
L 79.779252 155.034581 
L 70.372335 155.034581 
L 70.372335 164.441497 
" style="fill:#39558c;"/>
    <path clip-path="url(#p6b277ac369)" d="M 79.779252 164.441497 
L 89.186168 164.441497 
L 89.186168 155.034581 
L 79.779252 155.034581 
L 79.779252 164.441497 
" style="fill:#365d8d;"/>
    <path clip-path="url(#p6b277ac369)" d="M 89.186168 164.441497 
L 98.593084 164.441497 
L 98.593084 155.034581 
L 89.186168 155.034581 
L 89.186168 164.441497 
" style="fill:#33638d;"/>
    <path clip-path="url(#p6b277ac369)" d="M 98.593084 164.441497 
L 108 164.441497 
L 108 155.034581 
L 98.593084 155.034581 
L 98.593084 164.441497 
" style="fill:#306a8e;"/>
    <path clip-path="url(#p6b277ac369)" d="M 108 164.441497 
L 117.406916 164.441497 
L 117.406916 155.034581 
L 108 155.034581 
L 108 164.441497 
" style="fill:#2d718e;"/>
    <path clip-path="url(#p6b277ac369)" d="M 117.406916 164.441497 
L 126.813832 164.441497 
L 126.813832 155.034581 
L 117.406916 155.034581 
L 117.406916 164.441497 
" style="fill:#2a778e;"/>
    <path clip-path="url(#p6b277ac369)" d="M 126.813832 164.441497 
L 136.220748 164.441497 
L 136.220748 155.034581 
L 126.813832 155.034581 
L 126.813832 164.441497 
" style="fill:#287d8e;"/>
    <path clip-path="url(#p6b277ac369)" d="M 136.220748 164.441497 
L 145.627665 164.441497 
L 145.627665 155.034581 
L 136.220748 155.034581 
L 136.220748 164.441497 
" style="fill:#25838e;"/>
    <path clip-path="url(#p6b277ac369)" d="M 145.627665 164.441497 
L 155.034581 164.441497 
L 155.034581 155.034581 
L 145.627665 155.034581 
L 145.627665 164.441497 
" style="fill:#238a8d;"/>
    <path clip-path="url(#p6b277ac369)" d="M 155.034581 164.441497 
L 164.441497 164.441497 
L 164.441497 155.034581 
L 155.034581 155.034581 
L 155.034581 164.441497 
" style="fill:#21908d;"/>
    <path clip-path="url(#p6b277ac369)" d="M 164.441497 164.441497 
L 173.848413 164.441497 
L 173.848413 155.034581 
L 164.441497 155.034581 
L 164.441497 164.441497 
" style="fill:#1f968b;"/>
    <path clip-path="url(#p6b277ac369)" d="M 173.848413 164.441497 
L 183.255329 164.441497 
L 183.255329 155.034581 
L 173.848413 155.034581 
L 173.848413 164.441497 
" style="fill:#1e9d89;"/>
    <path clip-path="url(#p6b277ac369)" d="M 183.255329 164.441497 
L 192.662245 164.441497 
L 192.662245 155.034581 
L 183.255329 155.034581 
L 183.255329 164.441497 
" style="fill:#20a386;"/>
    <path clip-path="url(#p6b277ac369)" d="M 192.662245 164.441497 
L 202.069161 164.441497 
L 202.069161 155.034581 
L 192.662245 155.034581 
L 192.662245 164.441497 
" style="fill:#23a983;"/>
    <path clip-path="url(#p6b277ac369)" d="M 13.930839 155.034581 
L 23.337755 155.034581 
L 23.337755 145.627665 
L 13.930839 145.627665 
L 13.930839 155.034581 
" style="fill:#472e7c;"/>
    <path clip-path="url(#p6b277ac369)" d="M 23.337755 155.034581 
L 32.744671 155.034581 
L 32.744671 145.627665 
L 23.337755 145.627665 
L 23.337755 155.034581 
" style="fill:#453781;"/>
    <path clip-path="url(#p6b277ac369)" d="M 32.744671 155.034581 
L 42.151587 155.034581 
L 42.151587 145.627665 
L 32.744671 145.627665 
L 32.744671 155.034581 
" style="fill:#423f85;"/>
    <path clip-path="url(#p6b277ac369)" d="M 42.151587 155.034581 
L 51.558503 155.034581 
L 51.558503 145.627665 
L 42.151587 145.627665 
L 42.151587 155.034581 
" style="fill:#404688;"/>
    <path clip-path="url(#p6b277ac369)" d="M 51.558503 155.034581 
L 60.965419 155.034581 
L 60.965419 145.627665 
L 51.558503 145.627665 
L 51.558503 155.034581 
" style="fill:#3d4e8a;"/>
    <path clip-path="url(#p6b277ac369)" d="M 60.965419 155.034581 
L 70.372335 155.034581 
L 70.372335 145.627665 
L 60.965419 145.627665 
L 60.965419 155.034581 
" style="fill:#39558c;"/>
    <path clip-path="url(#p6b277ac369)" d="M 70.372335 155.034581 
L 79.779252 155.034581 
L 79.779252 145.627665 
L 70.372335 145.627665 
L 70.372335 155.034581 
" style="fill:#365d8d;"/>
    <path clip-path="url(#p6b277ac369)" d="M 79.779252 155.034581 
L 89.186168 155.034581 
L 89.186168 145.627665 
L 79.779252 145.627665 
L 79.779252 155.034581 
" style="fill:#33638d;"/>
    <path clip-path="url(#p6b277ac369)" d="M 89.186168 155.034581 
L 98.593084 155.034581 
L 98.593084 145.627665 
L 89.186168 145.627665 
L 89.186168 155.034581 
" style="fill:#306a8e;"/>
    <path clip-path="url(#p6b277ac369)" d="M 98.593084 155.034581 
L 108 155.034581 
L 108 145.627665 
L 98.593084 145.627665 
L 98.593084 155.034581 
" style="fill:#2d718e;"/>
    <path clip-path="url(#p6b277ac369)" d="M 108 155.034581 
L 117.406916 155.034581 
L 117.406916 145.627665 
L 108 145.627665 
L 108 155.034581 
" style="fill:#2a778e;"/>
    <path clip-path="url(#p6b277ac369)" d="M 117.406916 155.034581 
L 126.813832 155.034581 
L 126.813832 145.627665 
L 117.406916 145.627665 
L 117.406916 155.034581 
" style="fill:#287d8e;"/>
    <path clip-path="url(#p6b277ac369)" d="M 126.813832 155.034581 
L 136.220748 155.034581 
L 136.220748 145.627665 
L 126.813832 145.627665 
L 126.813832 155.034581 
" style="fill:#25838e;"/>
    <path clip-path="url(#p6b277ac369)" d="M 136.220748 155.034581 
L 145.627665 155.034581 
L 145.627665 145.627665 
L 136.220748 145.627665 
L 136.220748 155.034581 
" style="fill:#238a8d;"/>
    <path clip-path="url(#p6b277ac369)" d="M 145.627665 155.034581 
L 155.034581 155.034581 
L 155.034581 145.627665 
L 145.627665 145.627665 
L 145.627665 155.034581 
" style="fill:#21918c;"/>
    <path clip-path="url(#p6b277ac369)" d="M 155.034581 155.034581 
L 164.441497 155.034581 
L 164.441497 145.627665 
L 155.034581 145.627665 
L 155.034581 155.034581 
" style="fill:#1f968b;"/>
    <path clip-path="url(#p6b277ac369)" d="M 164.441497 155.034581 
L 173.848413 155.034581 
L 173.848413 145.627665 
L 164.441497 145.627665 
L 164.441497 155.034581 
" style="fill:#1e9d89;"/>
    <path clip-path="url(#p6b277ac369)" d="M 173.848413 155.034581 
L 183.255329 155.034581 
L 183.255329 145.627665 
L 173.848413 145.627665 
L 173.848413 155.034581 
" style="fill:#20a386;"/>
    <path clip-path="url(#p6b277ac369)" d="M 183.255329 155.034581 
L 192.662245 155.034581 
L 192.662245 145.627665 
L 183.255329 145.627665 
L 183.255329 155.034581 
" style="fill:#23a983;"/>
    <path clip-path="url(#p6b277ac369)" d="M 192.662245 155.034581 
L 202.069161 155.034581 
L 202.069161 145.627665 
L 192.662245 145.627665 
L 192.662245 155.034581 
" style="fill:#29af7f;"/>
    <path clip-path="url(#p6b277ac369)" d="M 13.930839 145.627665 
L 23.337755 145.627665 
L 23.337755 136.220748 
L 13.930839 136.220748 
L 13.930839 145.627665 
" style="fill:#453781;"/>
    <path clip-path="url(#p6b277ac369)" d="M 23.337755 145.627665 
L 32.744671 145.627665 
L 32.744671 136.220748 
L 23.337755 136.220748 
L 23.337755 145.627665 
" style="fill:#423f85;"/>
    <path clip-path="url(#p6b277ac369)" d="M 32.744671 145.627665 
L 42.151587 145.627665 
L 42.151587 136.220748 
L 32.744671 136.220748 
L 32.744671 145.627665 
" style="fill:#404688;"/>
    <path clip-path="url(#p6b277ac369)" d="M 42.151587 145.627665 
L 51.558503 145.627665 
L 51.558503 136.220748 
L 42.151587 136.220748 
L 42.151587 145.627665 
" style="fill:#3d4e8a;"/>
    <path clip-path="url(#p6b277ac369)" d="M 51.558503 145.627665 
L 60.965419 145.627665 
L 60.965419 136.220748 
L 51.558503 136.220748 
L 51.558503 145.627665 
" style="fill:#39558c;"/>
    <path clip-path="url(#p6b277ac369)" d="M 60.965419 145.627665 
L 70.372335 145.627665 
L 70.372335 136.220748 
L 60.965419 136.220748 
L 60.965419 145.627665 
" style="fill:#365d8d;"/>
    <path clip-path="url(#p6b277ac369)" d="M 70.372335 145.627665 
L 79.779252 145.627665 
L 79.779252 136.220748 
L 70.372335 136.220748 
L 70.372335 145.627665 
" style="fill:#33638d;"/>
    <path clip-path="url(#p6b277ac369)" d="M 79.779252 145.627665 
L 89.186168 145.627665 
L 89.186168 136.220748 
L 79.779252 136.220748 
L 79.779252 145.627665 
" style="fill:#306a8e;"/>
    <path clip-path="url(#p6b277ac369)" d="M 89.186168 145.627665 
L 98.593084 145.627665 
L 98.593084 136.220748 
L 89.186168 136.220748 
L 89.186168 145.627665 
" style="fill:#2d718e;"/>
    <path clip-path="url(#p6b277ac369)" d="M 98.593084 145.627665 
L 108 145.627665 
L 108 136.220748 
L 98.593084 136.220748 
L 98.593084 145.627665 
" style="fill:#2a778e;"/>
    <path clip-path="url(#p6b277ac369)" d="M 108 145.627665 
L 117.406916 145.627665 
L 117.406916 136.220748 
L 108 136.220748 
L 108 145.627665 
" style="fill:#287d8e;"/>
    <path clip-path="url(#p6b277ac369)" d="M 117.406916 145.627665 
L 126.813832 145.627665 
L 126.813832 136.220748 
L 117.406916 136.220748 
L 117.406916 145.627665 
" style="fill:#25838e;"/>
    <path clip-path="url(#p6b277ac369)" d="M 126.813832 145.627665 
L 136.220748 145.627665 
L 136.220748 136.220748 
L 126.813832 136.220748 
L 126.813832 145.627665 
" style="fill:#238a8d;"/>
    <path clip-path="url(#p6b277ac369)" d="M 136.220748 145.627665 
L 145.627665 145.627665 
L 145.627665 136.220748 
L 136.220748 136.220748 
L 136.220748 145.627665 
" style="fill:#21918c;"/>
    <path clip-path="url(#p6b277ac369)" d="M 145.627665 145.627665 
L 155.034581 145.627665 
L 155.034581 136.220748 
L 145.627665 136.220748 
L 145.627665 145.627665 
" style="fill:#1f968b;"/>
    <path clip-path="url(#p6b277ac369)" d="M 155.034581 145.627665 
L 164.441497 145.627665 
L 164.441497 136.220748 
L 155.034581 136.220748 
L 155.034581 145.627665 
" style="fill:#1e9d89;"/>
    <path clip-path="url(#p6b277ac369)" d="M 164.441497 145.627665 
L 173.848413 145.627665 
L 173.848413 136.220748 
L 164.441497 136.220748 
L 164.441497 145.627665 
" style="fill:#20a386;"/>
    <path clip-path="url(#p6b277ac369)" d="M 173.848413 145.627665 
L 183.255329 145.627665 
L 183.255329 136.220748 
L 173.848413 136.220748 
L 173.848413 145.627665 
" style="fill:#23a983;"/>
    <path clip-path="url(#p6b277ac369)" d="M 183.255329 145.627665 
L 192.662245 145.627665 
L 192.662245 136.220748 
L 183.255329 136.220748 
L 183.255329 145.627665 
" style="fill:#29af7f;"/>
    <path clip-path="url(#p6b277ac369)" d="M 192.662245 145.627665 
L 202.069161 145.627665 
L 202.069161 136.220748 
L 192.662245 136.220748 
L 192.662245 145.627665 
" style="fill:#32b67a;"/>
    <path clip-path="url(#p6b277ac369)" d="M 13.930839 136.220748 
L 23.337755 136.220748 
L 23.337755 126.813832 
L 13.930839 126.813832 
L 13.930839 136.220748 
" style="fill:#423f85;"/>
    <path clip-path="url(#p6b277ac369)" d="M 23.337755 136.220748 
L 32.744671 136.220748 
L 32.744671 126.813832 
L 23.337755 126.813832 
L 23.337755 136.220748 
" style="fill:#404688;"/>
    <path clip-path="url(#p6b277ac369)" d="M 32.744671 136.220748 
L 42.151587 136.220748 
L 42.151587 126.813832 
L 32.744671 126.813832 
L 32.744671 136.220748 
" style="fill:#3d4e8a;"/>
    <path clip-path="url(#p6b277ac369)" d="M 42.151587 136.220748 
L 51.558503 136.220748 
L 51.558503 126.813832 
L 42.151587 126.813832 
L 42.151587 136.220748 
" style="fill:#39558c;"/>
    <path clip-path="url(#p6b277ac369)" d="M 51.558503 136.220748 
L 60.965419 136.220748 
L 60.965419 126.813832 
L 51.558503 126.813832 
L 51.558503 136.220748 
" style="fill:#365d8d;"/>
    <path clip-path="url(#p6b277ac369)" d="M 60.965419 136.220748 
L 70.372335 136.220748 
L 70.372335 126.813832 
L 60.965419 126.813832 
L 60.965419 136.220748 
" style="fill:#33638d;"/>
    <path clip-path="url(#p6b277ac369)" d="M 70.372335 136.220748 
L 79.779252 136.220748 
L 79.779252 126.813832 
L 70.372335 126.813832 
L 70.372335 136.220748 
" style="fill:#306a8e;"/>
    <path clip-path="url(#p6b277ac369)" d="M 79.779252 136.220748 
L 89.186168 136.220748 
L 89.186168 126.813832 
L 79.779252 126.813832 
L 79.779252 136.220748 
" style="fill:#2d718e;"/>
    <path clip-path="url(#p6b277ac369)" d="M 89.186168 136.220748 
L 98.593084 136.220748 
L 98.593084 126.813832 
L 89.186168 126.813832 
L 89.186168 136.220748 
" style="fill:#2a778e;"/>
    <path clip-path="url(#p6b277ac369)" d="M 98.593084 136.220748 
L 108 136.220748 
L 108 126.813832 
L 98.593084 126.813832 
L 98.593084 136.220748 
" style="fill:#287d8e;"/>
    <path clip-path="url(#p6b277ac369)" d="M 108 136.220748 
L 117.406916 136.220748 
L 117.406916 126.813832 
L 108 126.813832 
L 108 136.220748 
" style="fill:#25838e;"/>
    <path clip-path="url(#p6b277ac369)" d="M 117.406916 136.220748 
L 126.813832 136.220748 
L 126.813832 126.813832 
L 117.406916 126.813832 
L 117.406916 136.220748 
" style="fill:#238a8d;"/>
    <path clip-path="url(#p6b277ac369)" d="M 126.813832 136.220748 
L 136.220748 136.220748 
L 136.220748 126.813832 
L 126.813832 126.813832 
L 126.813832 136.220748 
" style="fill:#21918c;"/>
    <path clip-path="url(#p6b277ac369)" d="M 136.220748 136.220748 
L 145.627665 136.220748 
L 145.627665 126.813832 
L 136.220748 126.813832 
L 136.220748 136.220748 
" style="fill:#1f968b;"/>
    <path clip-path="url(#p6b277ac369)" d="M 145.627665 136.220748 
L 155.034581 136.220748 
L 155.034581 126.813832 
L 145.627665 126.813832 
L 145.627665 136.220748 
" style="fill:#1e9d89;"/>
    <path clip-path="url(#p6b277ac369)" d="M 155.034581 136.220748 
L 164.441497 136.220748 
L 164.441497 126.813832 
L 155.034581 126.813832 
L 155.034581 136.220748 
" style="fill:#20a386;"/>
    <path clip-path="url(#p6b277ac369)" d="M 164.441497 136.220748 
L 173.848413 136.220748 
L 173.848413 126.813832 
L 164.441497 126.813832 
L 164.441497 136.220748 
" style="fill:#23a983;"/>
    <path clip-path="url(#p6b277ac369)" d="M 173.848413 136.220748 
L 183.255329 136.220748 
L 183.255329 126.813832 
L 173.848413 126.813832 
L 173.848413 136.220748 
" style="fill:#29af7f;"/>
    <path clip-path="url(#p6b277ac369)" d="M 183.255329 136.220748 
L 192.662245 136.220748 
L 192.662245 126.813832 
L 183.255329 126.813832 
L 183.255329 136.220748 
" style="fill:#32b67a;"/>
    <path clip-path="url(#p6b277ac369)" d="M 192.662245 136.220748 
L 202.069161 136.220748 
L 202.069161 126.813832 
L 192.662245 126.813832 
L 192.662245 136.220748 
" style="fill:#3dbc74;"/>
    <path clip-path="url(#p6b277ac369)" d="M 13.930839 126.813832 
L 23.337755 126.813832 
L 23.337755 117.406916 
L 13.930839 117.406916 
L 13.930839 126.813832 
" style="fill:#404688;"/>
    <path clip-path="url(#p6b277ac369)" d="M 23.337755 126.813832 
L 32.744671 126.813832 
L 32.744671 117.406916 
L 23.337755 117.406916 
L 23.337755 126.813832 
" style="fill:#3d4e8a;"/>
    <path clip-path="url(#p6b277ac369)" d="M 32.744671 126.813832 
L 42.151587 126.813832 
L 42.151587 117.406916 
L 32.744671 117.406916 
L 32.744671 126.813832 
" style="fill:#39558c;"/>
    <path clip-path="url(#p6b277ac369)" d="M 42.151587 126.813832 
L 51.558503 126.813832 
L 51.558503 117.406916 
L 42.151587 117.406916 
L 42.151587 126.813832 
" style="fill:#365d8d;"/>
    <path clip-path="url(#p6b277ac369)" d="M 51.558503 126.813832 
L 60.965419 126.813832 
L 60.965419 117.406916 
L 51.558503 117.406916 
L 51.558503 126.813832 
" style="fill:#33638d;"/>
    <path clip-path="url(#p6b277ac369)" d="M 60.965419 126.813832 
L 70.372335 126.813832 
L 70.372335 117.406916 
L 60.965419 117.406916 
L 60.965419 126.813832 
" style="fill:#306a8e;"/>
    <path clip-path="url(#p6b277ac369)" d="M 70.372335 126.813832 
L 79.779252 126.813832 
L 79.779252 117.406916 
L 70.372335 117.406916 
L 70.372335 126.813832 
" style="fill:#2d718e;"/>
    <path clip-path="url(#p6b277ac369)" d="M 79.779252 126.813832 
L 89.186168 126.813832 
L 89.186168 117.406916 
L 79.779252 117.406916 
L 79.779252 126.813832 
" style="fill:#2a778e;"/>
    <path clip-path="url(#p6b277ac369)" d="M 89.186168 126.813832 
L 98.593084 126.813832 
L 98.593084 117.406916 
L 89.186168 117.406916 
L 89.186168 126.813832 
" style="fill:#287d8e;"/>
    <path clip-path="url(#p6b277ac369)" d="M 98.593084 126.813832 
L 108 126.813832 
L 108 117.406916 
L 98.593084 117.406916 
L 98.593084 126.813832 
" style="fill:#25838e;"/>
    <path clip-path="url(#p6b277ac369)" d="M 108 126.813832 
L 117.406916 126.813832 
L 117.406916 117.406916 
L 108 117.406916 
L 108 126.813832 
" style="fill:#238a8d;"/>
    <path clip-path="url(#p6b277ac369)" d="M 117.406916 126.813832 
L 126.813832 126.813832 
L 126.813832 117.406916 
L 117.406916 117.406916 
L 117.406916 126.813832 
" style="fill:#21918c;"/>
    <path clip-path="url(#p6b277ac369)" d="M 126.813832 126.813832 
L 136.220748 126.813832 
L 136.220748 117.406916 
L 126.813832 117.406916 
L 126.813832 126.813832 
" style="fill:#1f968b;"/>
    <path clip-path="url(#p6b277ac369)" d="M 136.220748 126.813832 
L 145.627665 126.813832 
L 145.627665 117.406916 
L 136.220748 117.406916 
L 136.220748 126.813832 
" style="fill:#1e9d89;"/>
    <path clip-path="url(#p6b277ac369)" d="M 145.627665 126.813832 
L 155.034581 126.813832 
L 155.034581 117.406916 
L 145.627665 117.406916 
L 145.627665 126.813832 
" style="fill:#20a386;"/>
    <path clip-path="url(#p6b277ac369)" d="M 155.034581 126.813832 
L 164.441497 126.813832 
L 164.441497 117.406916 
L 155.034581 117.406916 
L 155.034581 126.813832 
" style="fill:#23a983;"/>
    <path clip-path="url(#p6b277ac369)" d="M 164.441497 126.813832 
L 173.848413 126.813832 
L 173.848413 117.406916 
L 164.441497 117.406916 
L 164.441497 126.813832 
" style="fill:#29af7f;"/>
    <path clip-path="url(#p6b277ac369)" d="M 173.848413 126.813832 
L 183.255329 126.813832 
L 183.255329 117.406916 
L 173.848413 117.406916 
L 173.848413 126.813832 
" style="fill:#32b67a;"/>
    <path clip-path="url(#p6b277ac369)" d="M 183.255329 126.813832 
L 192.662245 126.813832 
L 192.662245 117.406916 
L 183.255329 117.406916 
L 183.255329 126.813832 
" style="fill:#3dbc74;"/>
    <path clip-path="url(#p6b277ac369)" d="M 192.662245 126.813832 
L 202.069161 126.813832 
L 202.069161 117.406916 
L 192.662245 117.406916 
L 192.662245 126.813832 
" style="fill:#48c16e;"/>
    <path clip-path="url(#p6b277ac369)" d="M 13.930839 117.406916 
L 23.337755 117.406916 
L 23.337755 108 
L 13.930839 108 
L 13.930839 117.406916 
" style="fill:#3d4e8a;"/>
    <path clip-path="url(#p6b277ac369)" d="M 23.337755 117.406916 
L 32.744671 117.406916 
L 32.744671 108 
L 23.337755 108 
L 23.337755 117.406916 
" style="fill:#39558c;"/>
    <path clip-path="url(#p6b277ac369)" d="M 32.744671 117.406916 
L 42.151587 117.406916 
L 42.151587 108 
L 32.744671 108 
L 32.744671 117.406916 
" style="fill:#365d8d;"/>
    <path clip-path="url(#p6b277ac369)" d="M 42.151587 117.406916 
L 51.558503 117.406916 
L 51.558503 108 
L 42.151587 108 
L 42.151587 117.406916 
" style="fill:#33638d;"/>
    <path clip-path="url(#p6b277ac369)" d="M 51.558503 117.406916 
L 60.965419 117.406916 
L 60.965419 108 
L 51.558503 108 
L 51.558503 117.406916 
" style="fill:#306a8e;"/>
    <path clip-path="url(#p6b277ac369)" d="M 60.965419 117.406916 
L 70.372335 117.406916 
L 70.372335 108 
L 60.965419 108 
L 60.965419 117.406916 
" style="fill:#2d718e;"/>
    <path clip-path="url(#p6b277ac369)" d="M 70.372335 117.406916 
L 79.779252 117.406916 
L 79.779252 108 
L 70.372335 108 
L 70.372335 117.406916 
" style="fill:#2a778e;"/>
    <path clip-path="url(#p6b277ac369)" d="M 79.779252 117.406916 
L 89.186168 117.406916 
L 89.186168 108 
L 79.779252 108 
L 79.779252 117.406916 
" style="fill:#287d8e;"/>
    <path clip-path="url(#p6b277ac369)" d="M 89.186168 117.406916 
L 98.593084 117.406916 
L 98.593084 108 
L 89.186168 108 
L 89.186168 117.406916 
" style="fill:#25838e;"/>
    <path clip-path="url(#p6b277ac369)" d="M 98.593084 117.406916 
L 108 117.406916 
L 108 108 
L 98.593084 108 
L 98.593084 117.406916 
" style="fill:#238a8d;"/>
    <path clip-path="url(#p6b277ac369)" d="M 108 117.406916 
L 117.406916 117.406916 
L 117.406916 108 
L 108 108 
L 108 117.406916 
" style="fill:#21908d;"/>
    <path clip-path="url(#p6b277ac369)" d="M 117.406916 117.406916 
L 126.813832 117.406916 
L 126.813832 108 
L 117.406916 108 
L 117.406916 117.406916 
" style="fill:#1f968b;"/>
    <path clip-path="url(#p6b277ac369)" d="M 126.813832 117.406916 
L 136.220748 117.406916 
L 136.220748 108 
L 126.813832 108 
L 126.813832 117.406916 
" style="fill:#1e9d89;"/>
    <path clip-path="url(#p6b277ac369)" d="M 136.220748 117.406916 
L 145.627665 117.406916 
L 145.627665 108 
L 136.220748 108 
L 136.220748 117.406916 
" style="fill:#20a386;"/>
    <path clip-path="url(#p6b277ac369)" d="M 145.627665 117.406916 
L 155.034581 117.406916 
L 155.034581 108 
L 145.627665 108 
L 145.627665 117.406916 
" style="fill:#23a983;"/>
    <path clip-path="url(#p6b277ac369)" d="M 155.034581 117.406916 
L 164.441497 117.406916 
L 164.441497 108 
L 155.034581 108 
L 155.034581 117.406916 
" style="fill:#29af7f;"/>
    <path clip-path="url(#p6b277ac369)" d="M 164.441497 117.406916 
L 173.848413 117.406916 
L 173.848413 108 
L 164.441497 108 
L 164.441497 117.406916 
" style="fill:#32b67a;"/>
    <path clip-path="url(#p6b277ac369)" d="M 173.848413 117.406916 
L 183.255329 117.406916 
L 183.255329 108 
L 173.848413 108 
L 173.848413 117.406916 
" style="fill:#3dbc74;"/>
    <path clip-path="url(#p6b277ac369)" d="M 183.255329 117.406916 
L 192.662245 117.406916 
L 192.662245 108 
L 183.255329 108 
L 183.255329 117.406916 
" style="fill:#48c16e;"/>
    <path clip-path="url(#p6b277ac369)" d="M 192.662245 117.406916 
L 202.069161 117.406916 
L 202.069161 108 
L 192.662245 108 
L 192.662245 117.406916 
" style="fill:#56c667;"/>
    <path clip-path="url(#p6b277ac369)" d="M 13.930839 108 
L 23.337755 108 
L 23.337755 98.593084 
L 13.930839 98.593084 
L 13.930839 108 
" style="fill:#39558c;"/>
    <path clip-path="url(#p6b277ac369)" d="M 23.337755 108 
L 32.744671 108 
L 32.744671 98.593084 
L 23.337755 98.593084 
L 23.337755 108 
" style="fill:#365d8d;"/>
    <path clip-path="url(#p6b277ac369)" d="M 32.744671 108 
L 42.151587 108 
L 42.151587 98.593084 
L 32.744671 98.593084 
L 32.744671 108 
" style="fill:#33638d;"/>
    <path clip-path="url(#p6b277ac369)" d="M 42.151587 108 
L 51.558503 108 
L 51.558503 98.593084 
L 42.151587 98.593084 
L 42.151587 108 
" style="fill:#306a8e;"/>
    <path clip-path="url(#p6b277ac369)" d="M 51.558503 108 
L 60.965419 108 
L 60.965419 98.593084 
L 51.558503 98.593084 
L 51.558503 108 
" style="fill:#2d718e;"/>
    <path clip-path="url(#p6b277ac369)" d="M 60.965419 108 
L 70.372335 108 
L 70.372335 98.593084 
L 60.965419 98.593084 
L 60.965419 108 
" style="fill:#2a778e;"/>
    <path clip-path="url(#p6b277ac369)" d="M 70.372335 108 
L 79.779252 108 
L 79.779252 98.593084 
L 70.372335 98.593084 
L 70.372335 108 
" style="fill:#287d8e;"/>
    <path clip-path="url(#p6b277ac369)" d="M 79.779252 108 
L 89.186168 108 
L 89.186168 98.593084 
L 79.779252 98.593084 
L 79.779252 108 
" style="fill:#25838e;"/>
    <path clip-path="url(#p6b277ac369)" d="M 89.186168 108 
L 98.593084 108 
L 98.593084 98.593084 
L 89.186168 98.593084 
L 89.186168 108 
" style="fill:#238a8d;"/>
    <path clip-path="url(#p6b277ac369)" d="M 98.593084 108 
L 108 108 
L 108 98.593084 
L 98.593084 98.593084 
L 98.593084 108 
" style="fill:#21908d;"/>
    <path clip-path="url(#p6b277ac369)" d="M 108 108 
L 117.406916 108 
L 117.406916 98.593084 
L 108 98.593084 
L 108 108 
" style="fill:#1f968b;"/>
    <path clip-path="url(#p6b277ac369)" d="M 117.406916 108 
L 126.813832 108 
L 126.813832 98.593084 
L 117.406916 98.593084 
L 117.406916 108 
" style="fill:#1e9d89;"/>
    <path clip-path="url(#p6b277ac369)" d="M 126.813832 108 
L 136.220748 108 
L 136.220748 98.593084 
L 126.813832 98.593084 
L 126.813832 108 
" style="fill:#20a386;"/>
    <path clip-path="url(#p6b277ac369)" d="M 136.220748 108 
L 145.627665 108 
L 145.627665 98.593084 
L 136.220748 98.593084 
L 136.220748 108 
" style="fill:#23a983;"/>
    <path clip-path="url(#p6b277ac369)" d="M 145.627665 108 
L 155.034581 108 
L 155.034581 98.593084 
L 145.627665 98.593084 
L 145.627665 108 
" style="fill:#29af7f;"/>
    <path clip-path="url(#p6b277ac369)" d="M 155.034581 108 
L 164.441497 108 
L 164.441497 98.593084 
L 155.034581 98.593084 
L 155.034581 108 
" style="fill:#32b67a;"/>
    <path clip-path="url(#p6b277ac369)" d="M 164.441497 108 
L 173.848413 108 
L 173.848413 98.593084 
L 164.441497 98.593084 
L 164.441497 108 
" style="fill:#3dbc74;"/>
    <path clip-path="url(#p6b277ac369)" d="M 173.848413 108 
L 183.255329 108 
L 183.255329 98.593084 
L 173.848413 98.593084 
L 173.848413 108 
" style="fill:#48c16e;"/>
    <path clip-path="url(#p6b277ac369)" d="M 183.255329 108 
L 192.662245 108 
L 192.662245 98.593084 
L 183.255329 98.593084 
L 183.255329 108 
" style="fill:#56c667;"/>
    <path clip-path="url(#p6b277ac369)" d="M 192.662245 108 
L 202.069161 108 
L 202.069161 98.593084 
L 192.662245 98.593084 
L 192.662245 108 
" style="fill:#65cb5e;"/>
    <path clip-path="url(#p6b277ac369)" d="M 13.930839 98.593084 
L 23.337755 98.593084 
L 23.337755 89.186168 
L 13.930839 89.186168 
L 13.930839 98.593084 
" style="fill:#365d8d;"/>
    <path clip-path="url(#p6b277ac369)" d="M 23.337755 98.593084 
L 32.744671 98.593084 
L 32.744671 89.186168 
L 23.337755 89.186168 
L 23.337755 98.593084 
" style="fill:#33638d;"/>
    <path clip-path="url(#p6b277ac369)" d="M 32.744671 98.593084 
L 42.151587 98.593084 
L 42.151587 89.186168 
L 32.744671 89.186168 
L 32.744671 98.593084 
" style="fill:#306a8e;"/>
    <path clip-path="url(#p6b277ac369)" d="M 42.151587 98.593084 
L 51.558503 98.593084 
L 51.558503 89.186168 
L 42.151587 89.186168 
L 42.151587 98.593084 
" style="fill:#2d718e;"/>
    <path clip-path="url(#p6b277ac369)" d="M 51.558503 98.593084 
L 60.965419 98.593084 
L 60.965419 89.186168 
L 51.558503 89.186168 
L 51.558503 98.593084 
" style="fill:#2a778e;"/>
    <path clip-path="url(#p6b277ac369)" d="M 60.965419 98.593084 
L 70.372335 98.593084 
L 70.372335 89.186168 
L 60.965419 89.186168 
L 60.965419 98.593084 
" style="fill:#287d8e;"/>
    <path clip-path="url(#p6b277ac369)" d="M 70.372335 98.593084 
L 79.779252 98.593084 
L 79.779252 89.186168 
L 70.372335 89.186168 
L 70.372335 98.593084 
" style="fill:#25838e;"/>
    <path clip-path="url(#p6b277ac369)" d="M 79.779252 98.593084 
L 89.186168 98.593084 
L 89.186168 89.186168 
L 79.779252 89.186168 
L 79.779252 98.593084 
" style="fill:#238a8d;"/>
    <path clip-path="url(#p6b277ac369)" d="M 89.186168 98.593084 
L 98.593084 98.593084 
L 98.593084 89.186168 
L 89.186168 89.186168 
L 89.186168 98.593084 
" style="fill:#21918c;"/>
    <path clip-path="url(#p6b277ac369)" d="M 98.593084 98.593084 
L 108 98.593084 
L 108 89.186168 
L 98.593084 89.186168 
L 98.593084 98.593084 
" style="fill:#1f968b;"/>
    <path clip-path="url(#p6b277ac369)" d="M 108 98.593084 
L 117.406916 98.593084 
L 117.406916 89.186168 
L 108 89.186168 
L 108 98.593084 
" style="fill:#1e9d89;"/>
    <path clip-path="url(#p6b277ac369)" d="M 117.406916 98.593084 
L 126.813832 98.593084 
L 126.813832 89.186168 
L 117.406916 89.186168 
L 117.406916 98.593084 
" style="fill:#20a386;"/>
    <path clip-path="url(#p6b277ac369)" d="M 126.813832 98.593084 
L 136.220748 98.593084 
L 136.220748 89.186168 
L 126.813832 89.186168 
L 126.813832 98.593084 
" style="fill:#23a983;"/>
    <path clip-path="url(#p6b277ac369)" d="M 136.220748 98.593084 
L 145.627665 98.593084 
L 145.627665 89.186168 
L 136.220748 89.186168 
L 136.220748 98.593084 
" style="fill:#29af7f;"/>
    <path clip-path="url(#p6b277ac369)" d="M 145.627665 98.593084 
L 155.034581 98.593084 
L 155.034581 89.186168 
L 145.627665 89.186168 
L 145.627665 98.593084 
" style="fill:#32b67a;"/>
    <path clip-path="url(#p6b277ac369)" d="M 155.034581 98.593084 
L 164.441497 98.593084 
L 164.441497 89.186168 
L 155.034581 89.186168 
L 155.034581 98.593084 
" style="fill:#3dbc74;"/>
    <path clip-path="url(#p6b277ac369)" d="M 164.441497 98.593084 
L 173.848413 98.593084 
L 173.848413 89.186168 
L 164.441497 89.186168 
L 164.441497 98.593084 
" style="fill:#48c16e;"/>
    <path clip-path="url(#p6b277ac369)" d="M 173.848413 98.593084 
L 183.255329 98.593084 
L 183.255329 89.186168 
L 173.848413 89.186168 
L 173.848413 98.593084 
" style="fill:#56c667;"/>
    <path clip-path="url(#p6b277ac369)" d="M 183.255329 98.593084 
L 192.662245 98.593084 
L 192.662245 89.186168 
L 183.255329 89.186168 
L 183.255329 98.593084 
" style="fill:#65cb5e;"/>
    <path clip-path="url(#p6b277ac369)" d="M 192.662245 98.593084 
L 202.069161 98.593084 
L 202.069161 89.186168 
L 192.662245 89.186168 
L 192.662245 98.593084 
" style="fill:#75d054;"/>
    <path clip-path="url(#p6b277ac369)" d="M 13.930839 89.186168 
L 23.337755 89.186168 
L 23.337755 79.779252 
L 13.930839 79.779252 
L 13.930839 89.186168 
" style="fill:#33638d;"/>
    <path clip-path="url(#p6b277ac369)" d="M 23.337755 89.186168 
L 32.744671 89.186168 
L 32.744671 79.779252 
L 23.337755 79.779252 
L 23.337755 89.186168 
" style="fill:#306a8e;"/>
    <path clip-path="url(#p6b277ac369)" d="M 32.744671 89.186168 
L 42.151587 89.186168 
L 42.151587 79.779252 
L 32.744671 79.779252 
L 32.744671 89.186168 
" style="fill:#2d718e;"/>
    <path clip-path="url(#p6b277ac369)" d="M 42.151587 89.186168 
L 51.558503 89.186168 
L 51.558503 79.779252 
L 42.151587 79.779252 
L 42.151587 89.186168 
" style="fill:#2a778e;"/>
    <path clip-path="url(#p6b277ac369)" d="M 51.558503 89.186168 
L 60.965419 89.186168 
L 60.965419 79.779252 
L 51.558503 79.779252 
L 51.558503 89.186168 
" style="fill:#287d8e;"/>
    <path clip-path="url(#p6b277ac369)" d="M 60.965419 89.186168 
L 70.372335 89.186168 
L 70.372335 79.779252 
L 60.965419 79.779252 
L 60.965419 89.186168 
" style="fill:#25838e;"/>
    <path clip-path="url(#p6b277ac369)" d="M 70.372335 89.186168 
L 79.779252 89.186168 
L 79.779252 79.779252 
L 70.372335 79.779252 
L 70.372335 89.186168 
" style="fill:#238a8d;"/>
    <path clip-path="url(#p6b277ac369)" d="M 79.779252 89.186168 
L 89.186168 89.186168 
L 89.186168 79.779252 
L 79.779252 79.779252 
L 79.779252 89.186168 
" style="fill:#21918c;"/>
    <path clip-path="url(#p6b277ac369)" d="M 89.186168 89.186168 
L 98.593084 89.186168 
L 98.593084 79.779252 
L 89.186168 79.779252 
L 89.186168 89.186168 
" style="fill:#1f968b;"/>
    <path clip-path="url(#p6b277ac369)" d="M 98.593084 89.186168 
L 108 89.186168 
L 108 79.779252 
L 98.593084 79.779252 
L 98.593084 89.186168 
" style="fill:#1e9d89;"/>
    <path clip-path="url(#p6b277ac369)" d="M 108 89.186168 
L 117.406916 89.186168 
L 117.406916 79.779252 
L 108 79.779252 
L 108 89.186168 
" style="fill:#20a386;"/>
    <path clip-path="url(#p6b277ac369)" d="M 117.406916 89.186168 
L 126.813832 89.186168 
L 126.813832 79.779252 
L 117.406916 79.779252 
L 117.406916 89.186168 
" style="fill:#23a983;"/>
    <path clip-path="url(#p6b277ac369)" d="M 126.813832 89.186168 
L 136.220748 89.186168 
L 136.220748 79.779252 
L 126.813832 79.779252 
L 126.813832 89.186168 
" style="fill:#29af7f;"/>
    <path clip-path="url(#p6b277ac369)" d="M 136.220748 89.186168 
L 145.627665 89.186168 
L 145.627665 79.779252 
L 136.220748 79.779252 
L 136.220748 89.186168 
" style="fill:#32b67a;"/>
    <path clip-path="url(#p6b277ac369)" d="M 145.627665 89.186168 
L 155.034581 89.186168 
L 155.034581 79.779252 
L 145.627665 79.779252 
L 145.627665 89.186168 
" style="fill:#3dbc74;"/>
    <path clip-path="url(#p6b277ac369)" d="M 155.034581 89.186168 
L 164.441497 89.186168 
L 164.441497 79.779252 
L 155.034581 79.779252 
L 155.034581 89.186168 
" style="fill:#48c16e;"/>
    <path clip-path="url(#p6b277ac369)" d="M 164.441497 89.186168 
L 173.848413 89.186168 
L 173.848413 79.779252 
L 164.441497 79.779252 
L 164.441497 89.186168 
" style="fill:#56c667;"/>
    <path clip-path="url(#p6b277ac369)" d="M 173.848413 89.186168 
L 183.255329 89.186168 
L 183.255329 79.779252 
L 173.848413 79.779252 
L 173.848413 89.186168 
" style="fill:#65cb5e;"/>
    <path clip-path="url(#p6b277ac369)" d="M 183.255329 89.186168 
L 192.662245 89.186168 
L 192.662245 79.779252 
L 183.255329 79.779252 
L 183.255329 89.186168 
" style="fill:#75d054;"/>
    <path clip-path="url(#p6b277ac369)" d="M 192.662245 89.186168 
L 202.069161 89.186168 
L 202.069161 79.779252 
L 192.662245 79.779252 
L 192.662245 89.186168 
" style="fill:#84d44b;"/>
    <path clip-path="url(#p6b277ac369)" d="M 13.930839 79.779252 
L 23.337755 79.779252 
L 23.337755 70.372335 
L 13.930839 70.372335 
L 13.930839 79.779252 
" style="fill:#306a8e;"/>
    <path clip-path="url(#p6b277ac369)" d="M 23.337755 79.779252 
L 32.744671 79.779252 
L 32.744671 70.372335 
L 23.337755 70.372335 
L 23.337755 79.779252 
" style="fill:#2d718e;"/>
    <path clip-path="url(#p6b277ac369)" d="M 32.744671 79.779252 
L 42.151587 79.779252 
L 42.151587 70.372335 
L 32.744671 70.372335 
L 32.744671 79.779252 
" style="fill:#2a778e;"/>
    <path clip-path="url(#p6b277ac369)" d="M 42.151587 79.779252 
L 51.558503 79.779252 
L 51.558503 70.372335 
L 42.151587 70.372335 
L 42.151587 79.779252 
" style="fill:#287d8e;"/>
    <path clip-path="url(#p6b277ac369)" d="M 51.558503 79.779252 
L 60.965419 79.779252 
L 60.965419 70.372335 
L 51.558503 70.372335 
L 51.558503 79.779252 
" style="fill:#25838e;"/>
    <path clip-path="url(#p6b277ac369)" d="M 60.965419 79.779252 
L 70.372335 79.779252 
L 70.372335 70.372335 
L 60.965419 70.372335 
L 60.965419 79.779252 
" style="fill:#238a8d;"/>
    <path clip-path="url(#p6b277ac369)" d="M 70.372335 79.779252 
L 79.779252 79.779252 
L 79.779252 70.372335 
L 70.372335 70.372335 
L 70.372335 79.779252 
" style="fill:#21918c;"/>
    <path clip-path="url(#p6b277ac369)" d="M 79.779252 79.779252 
L 89.186168 79.779252 
L 89.186168 70.372335 
L 79.779252 70.372335 
L 79.779252 79.779252 
" style="fill:#1f968b;"/>
    <path clip-path="url(#p6b277ac369)" d="M 89.186168 79.779252 
L 98.593084 79.779252 
L 98.593084 70.372335 
L 89.186168 70.372335 
L 89.186168 79.779252 
" style="fill:#1e9d89;"/>
    <path clip-path="url(#p6b277ac369)" d="M 98.593084 79.779252 
L 108 79.779252 
L 108 70.372335 
L 98.593084 70.372335 
L 98.593084 79.779252 
" style="fill:#20a386;"/>
    <path clip-path="url(#p6b277ac369)" d="M 108 79.779252 
L 117.406916 79.779252 
L 117.406916 70.372335 
L 108 70.372335 
L 108 79.779252 
" style="fill:#23a983;"/>
    <path clip-path="url(#p6b277ac369)" d="M 117.406916 79.779252 
L 126.813832 79.779252 
L 126.813832 70.372335 
L 117.406916 70.372335 
L 117.406916 79.779252 
" style="fill:#29af7f;"/>
    <path clip-path="url(#p6b277ac369)" d="M 126.813832 79.779252 
L 136.220748 79.779252 
L 136.220748 70.372335 
L 126.813832 70.372335 
L 126.813832 79.779252 
" style="fill:#32b67a;"/>
    <path clip-path="url(#p6b277ac369)" d="M 136.220748 79.779252 
L 145.627665 79.779252 
L 145.627665 70.372335 
L 136.220748 70.372335 
L 136.220748 79.779252 
" style="fill:#3dbc74;"/>
    <path clip-path="url(#p6b277ac369)" d="M 145.627665 79.779252 
L 155.034581 79.779252 
L 155.034581 70.372335 
L 145.627665 70.372335 
L 145.627665 79.779252 
" style="fill:#48c16e;"/>
    <path clip-path="url(#p6b277ac369)" d="M 155.034581 79.779252 
L 164.441497 79.779252 
L 164.441497 70.372335 
L 155.034581 70.372335 
L 155.034581 79.779252 
" style="fill:#56c667;"/>
    <path clip-path="url(#p6b277ac369)" d="M 164.441497 79.779252 
L 173.848413 79.779252 
L 173.848413 70.372335 
L 164.441497 70.372335 
L 164.441497 79.779252 
" style="fill:#65cb5e;"/>
    <path clip-path="url(#p6b277ac369)" d="M 173.848413 79.779252 
L 183.255329 79.779252 
L 183.255329 70.372335 
L 173.848413 70.372335 
L 173.848413 79.779252 
" style="fill:#75d054;"/>
    <path clip-path="url(#p6b277ac369)" d="M 183.255329 79.779252 
L 192.662245 79.779252 
L 192.662245 70.372335 
L 183.255329 70.372335 
L 183.255329 79.779252 
" style="fill:#84d44b;"/>
    <path clip-path="url(#p6b277ac369)" d="M 192.662245 79.779252 
L 202.069161 79.779252 
L 202.069161 70.372335 
L 192.662245 70.372335 
L 192.662245 79.779252 
" style="fill:#95d840;"/>
    <path clip-path="url(#p6b277ac369)" d="M 13.930839 70.372335 
L 23.337755 70.372335 
L 23.337755 60.965419 
L 13.930839 60.965419 
L 13.930839 70.372335 
" style="fill:#2d718e;"/>
    <path clip-path="url(#p6b277ac369)" d="M 23.337755 70.372335 
L 32.744671 70.372335 
L 32.744671 60.965419 
L 23.337755 60.965419 
L 23.337755 70.372335 
" style="fill:#2a778e;"/>
    <path clip-path="url(#p6b277ac369)" d="M 32.744671 70.372335 
L 42.151587 70.372335 
L 42.151587 60.965419 
L 32.744671 60.965419 
L 32.744671 70.372335 
" style="fill:#287d8e;"/>
    <path clip-path="url(#p6b277ac369)" d="M 42.151587 70.372335 
L 51.558503 70.372335 
L 51.558503 60.965419 
L 42.151587 60.965419 
L 42.151587 70.372335 
" style="fill:#25838e;"/>
    <path clip-path="url(#p6b277ac369)" d="M 51.558503 70.372335 
L 60.965419 70.372335 
L 60.965419 60.965419 
L 51.558503 60.965419 
L 51.558503 70.372335 
" style="fill:#238a8d;"/>
    <path clip-path="url(#p6b277ac369)" d="M 60.965419 70.372335 
L 70.372335 70.372335 
L 70.372335 60.965419 
L 60.965419 60.965419 
L 60.965419 70.372335 
" style="fill:#21918c;"/>
    <path clip-path="url(#p6b277ac369)" d="M 70.372335 70.372335 
L 79.779252 70.372335 
L 79.779252 60.965419 
L 70.372335 60.965419 
L 70.372335 70.372335 
" style="fill:#1f968b;"/>
    <path clip-path="url(#p6b277ac369)" d="M 79.779252 70.372335 
L 89.186168 70.372335 
L 89.186168 60.965419 
L 79.779252 60.965419 
L 79.779252 70.372335 
" style="fill:#1e9d89;"/>
    <path clip-path="url(#p6b277ac369)" d="M 89.186168 70.372335 
L 98.593084 70.372335 
L 98.593084 60.965419 
L 89.186168 60.965419 
L 89.186168 70.372335 
" style="fill:#20a386;"/>
    <path clip-path="url(#p6b277ac369)" d="M 98.593084 70.372335 
L 108 70.372335 
L 108 60.965419 
L 98.593084 60.965419 
L 98.593084 70.372335 
" style="fill:#23a983;"/>
    <path clip-path="url(#p6b277ac369)" d="M 108 70.372335 
L 117.406916 70.372335 
L 117.406916 60.965419 
L 108 60.965419 
L 108 70.372335 
" style="fill:#29af7f;"/>
    <path clip-path="url(#p6b277ac369)" d="M 117.406916 70.372335 
L 126.813832 70.372335 
L 126.813832 60.965419 
L 117.406916 60.965419 
L 117.406916 70.372335 
" style="fill:#32b67a;"/>
    <path clip-path="url(#p6b277ac369)" d="M 126.813832 70.372335 
L 136.220748 70.372335 
L 136.220748 60.965419 
L 126.813832 60.965419 
L 126.813832 70.372335 
" style="fill:#3dbc74;"/>
    <path clip-path="url(#p6b277ac369)" d="M 136.220748 70.372335 
L 145.627665 70.372335 
L 145.627665 60.965419 
L 136.220748 60.965419 
L 136.220748 70.372335 
" style="fill:#48c16e;"/>
    <path clip-path="url(#p6b277ac369)" d="M 145.627665 70.372335 
L 155.034581 70.372335 
L 155.034581 60.965419 
L 145.627665 60.965419 
L 145.627665 70.372335 
" style="fill:#56c667;"/>
    <path clip-path="url(#p6b277ac369)" d="M 155.034581 70.372335 
L 164.441497 70.372335 
L 164.441497 60.965419 
L 155.034581 60.965419 
L 155.034581 70.372335 
" style="fill:#65cb5e;"/>
    <path clip-path="url(#p6b277ac369)" d="M 164.441497 70.372335 
L 173.848413 70.372335 
L 173.848413 60.965419 
L 164.441497 60.965419 
L 164.441497 70.372335 
" style="fill:#75d054;"/>
    <path clip-path="url(#p6b277ac369)" d="M 173.848413 70.372335 
L 183.255329 70.372335 
L 183.255329 60.965419 
L 173.848413 60.965419 
L 173.848413 70.372335 
" style="fill:#84d44b;"/>
    <path clip-path="url(#p6b277ac369)" d="M 183.255329 70.372335 
L 192.662245 70.372335 
L 192.662245 60.965419 
L 183.255329 60.965419 
L 183.255329 70.372335 
" style="fill:#95d840;"/>
    <path clip-path="url(#p6b277ac369)" d="M 192.662245 70.372335 
L 202.069161 70.372335 
L 202.069161 60.965419 
L 192.662245 60.965419 
L 192.662245 70.372335 
" style="fill:#a8db34;"/>
    <path clip-path="url(#p6b277ac369)" d="M 13.930839 60.965419 
L 23.337755 60.965419 
L 23.337755 51.558503 
L 13.930839 51.558503 
L 13.930839 60.965419 
" style="fill:#2a778e;"/>
    <path clip-path="url(#p6b277ac369)" d="M 23.337755 60.965419 
L 32.744671 60.965419 
L 32.744671 51.558503 
L 23.337755 51.558503 
L 23.337755 60.965419 
" style="fill:#287d8e;"/>
    <path clip-path="url(#p6b277ac369)" d="M 32.744671 60.965419 
L 42.151587 60.965419 
L 42.151587 51.558503 
L 32.744671 51.558503 
L 32.744671 60.965419 
" style="fill:#25838e;"/>
    <path clip-path="url(#p6b277ac369)" d="M 42.151587 60.965419 
L 51.558503 60.965419 
L 51.558503 51.558503 
L 42.151587 51.558503 
L 42.151587 60.965419 
" style="fill:#238a8d;"/>
    <path clip-path="url(#p6b277ac369)" d="M 51.558503 60.965419 
L 60.965419 60.965419 
L 60.965419 51.558503 
L 51.558503 51.558503 
L 51.558503 60.965419 
" style="fill:#21908d;"/>
    <path clip-path="url(#p6b277ac369)" d="M 60.965419 60.965419 
L 70.372335 60.965419 
L 70.372335 51.558503 
L 60.965419 51.558503 
L 60.965419 60.965419 
" style="fill:#1f968b;"/>
    <path clip-path="url(#p6b277ac369)" d="M 70.372335 60.965419 
L 79.779252 60.965419 
L 79.779252 51.558503 
L 70.372335 51.558503 
L 70.372335 60.965419 
" style="fill:#1e9d89;"/>
    <path clip-path="url(#p6b277ac369)" d="M 79.779252 60.965419 
L 89.186168 60.965419 
L 89.186168 51.558503 
L 79.779252 51.558503 
L 79.779252 60.965419 
" style="fill:#20a386;"/>
    <path clip-path="url(#p6b277ac369)" d="M 89.186168 60.965419 
L 98.593084 60.965419 
L 98.593084 51.558503 
L 89.186168 51.558503 
L 89.186168 60.965419 
" style="fill:#23a983;"/>
    <path clip-path="url(#p6b277ac369)" d="M 98.593084 60.965419 
L 108 60.965419 
L 108 51.558503 
L 98.593084 51.558503 
L 98.593084 60.965419 
" style="fill:#29af7f;"/>
    <path clip-path="url(#p6b277ac369)" d="M 108 60.965419 
L 117.406916 60.965419 
L 117.406916 51.558503 
L 108 51.558503 
L 108 60.965419 
" style="fill:#32b67a;"/>
    <path clip-path="url(#p6b277ac369)" d="M 117.406916 60.965419 
L 126.813832 60.965419 
L 126.813832 51.558503 
L 117.406916 51.558503 
L 117.406916 60.965419 
" style="fill:#3dbc74;"/>
    <path clip-path="url(#p6b277ac369)" d="M 126.813832 60.965419 
L 136.220748 60.965419 
L 136.220748 51.558503 
L 126.813832 51.558503 
L 126.813832 60.965419 
" style="fill:#48c16e;"/>
    <path clip-path="url(#p6b277ac369)" d="M 136.220748 60.965419 
L 145.627665 60.965419 
L 145.627665 51.558503 
L 136.220748 51.558503 
L 136.220748 60.965419 
" style="fill:#56c667;"/>
    <path clip-path="url(#p6b277ac369)" d="M 145.627665 60.965419 
L 155.034581 60.965419 
L 155.034581 51.558503 
L 145.627665 51.558503 
L 145.627665 60.965419 
" style="fill:#65cb5e;"/>
    <path clip-path="url(#p6b277ac369)" d="M 155.034581 60.965419 
L 164.441497 60.965419 
L 164.441497 51.558503 
L 155.034581 51.558503 
L 155.034581 60.965419 
" style="fill:#75d054;"/>
    <path clip-path="url(#p6b277ac369)" d="M 164.441497 60.965419 
L 173.848413 60.965419 
L 173.848413 51.558503 
L 164.441497 51.558503 
L 164.441497 60.965419 
" style="fill:#84d44b;"/>
    <path clip-path="url(#p6b277ac369)" d="M 173.848413 60.965419 
L 183.255329 60.965419 
L 183.255329 51.558503 
L 173.848413 51.558503 
L 173.848413 60.965419 
" style="fill:#95d840;"/>
    <path clip-path="url(#p6b277ac369)" d="M 183.255329 60.965419 
L 192.662245 60.965419 
L 192.662245 51.558503 
L 183.255329 51.558503 
L 183.255329 60.965419 
" style="fill:#a8db34;"/>
    <path clip-path="url(#p6b277ac369)" d="M 192.662245 60.965419 
L 202.069161 60.965419 
L 202.069161 51.558503 
L 192.662245 51.558503 
L 192.662245 60.965419 
" style="fill:#bade28;"/>
    <path clip-path="url(#p6b277ac369)" d="M 13.930839 51.558503 
L 23.337755 51.558503 
L 23.337755 42.151587 
L 13.930839 42.151587 
L 13.930839 51.558503 
" style="fill:#287d8e;"/>
    <path clip-path="url(#p6b277ac369)" d="M 23.337755 51.558503 
L 32.744671 51.558503 
L 32.744671 42.151587 
L 23.337755 42.151587 
L 23.337755 51.558503 
" style="fill:#25838e;"/>
    <path clip-path="url(#p6b277ac369)" d="M 32.744671 51.558503 
L 42.151587 51.558503 
L 42.151587 42.151587 
L 32.744671 42.151587 
L 32.744671 51.558503 
" style="fill:#238a8d;"/>
    <path clip-path="url(#p6b277ac369)" d="M 42.151587 51.558503 
L 51.558503 51.558503 
L 51.558503 42.151587 
L 42.151587 42.151587 
L 42.151587 51.558503 
" style="fill:#21918c;"/>
    <path clip-path="url(#p6b277ac369)" d="M 51.558503 51.558503 
L 60.965419 51.558503 
L 60.965419 42.151587 
L 51.558503 42.151587 
L 51.558503 51.558503 
" style="fill:#1f968b;"/>
    <path clip-path="url(#p6b277ac369)" d="M 60.965419 51.558503 
L 70.372335 51.558503 
L 70.372335 42.151587 
L 60.965419 42.151587 
L 60.965419 51.558503 
" style="fill:#1e9d89;"/>
    <path clip-path="url(#p6b277ac369)" d="M 70.372335 51.558503 
L 79.779252 51.558503 
L 79.779252 42.151587 
L 70.372335 42.151587 
L 70.372335 51.558503 
" style="fill:#20a386;"/>
    <path clip-path="url(#p6b277ac369)" d="M 79.779252 51.558503 
L 89.186168 51.558503 
L 89.186168 42.151587 
L 79.779252 42.151587 
L 79.779252 51.558503 
" style="fill:#23a983;"/>
    <path clip-path="url(#p6b277ac369)" d="M 89.186168 51.558503 
L 98.593084 51.558503 
L 98.593084 42.151587 
L 89.186168 42.151587 
L 89.186168 51.558503 
" style="fill:#29af7f;"/>
    <path clip-path="url(#p6b277ac369)" d="M 98.593084 51.558503 
L 108 51.558503 
L 108 42.151587 
L 98.593084 42.151587 
L 98.593084 51.558503 
" style="fill:#32b67a;"/>
    <path clip-path="url(#p6b277ac369)" d="M 108 51.558503 
L 117.406916 51.558503 
L 117.406916 42.151587 
L 108 42.151587 
L 108 51.558503 
" style="fill:#3dbc74;"/>
    <path clip-path="url(#p6b277ac369)" d="M 117.406916 51.558503 
L 126.813832 51.558503 
L 126.813832 42.151587 
L 117.406916 42.151587 
L 117.406916 51.558503 
" style="fill:#48c16e;"/>
    <path clip-path="url(#p6b277ac369)" d="M 126.813832 51.558503 
L 136.220748 51.558503 
L 136.220748 42.151587 
L 126.813832 42.151587 
L 126.813832 51.558503 
" style="fill:#56c667;"/>
    <path clip-path="url(#p6b277ac369)" d="M 136.220748 51.558503 
L 145.627665 51.558503 
L 145.627665 42.151587 
L 136.220748 42.151587 
L 136.220748 51.558503 
" style="fill:#65cb5e;"/>
    <path clip-path="url(#p6b277ac369)" d="M 145.627665 51.558503 
L 155.034581 51.558503 
L 155.034581 42.151587 
L 145.627665 42.151587 
L 145.627665 51.558503 
" style="fill:#75d054;"/>
    <path clip-path="url(#p6b277ac369)" d="M 155.034581 51.558503 
L 164.441497 51.558503 
L 164.441497 42.151587 
L 155.034581 42.151587 
L 155.034581 51.558503 
" style="fill:#84d44b;"/>
    <path clip-path="url(#p6b277ac369)" d="M 164.441497 51.558503 
L 173.848413 51.558503 
L 173.848413 42.151587 
L 164.441497 42.151587 
L 164.441497 51.558503 
" style="fill:#95d840;"/>
    <path clip-path="url(#p6b277ac369)" d="M 173.848413 51.558503 
L 183.255329 51.558503 
L 183.255329 42.151587 
L 173.848413 42.151587 
L 173.848413 51.558503 
" style="fill:#a8db34;"/>
    <path clip-path="url(#p6b277ac369)" d="M 183.255329 51.558503 
L 192.662245 51.558503 
L 192.662245 42.151587 
L 183.255329 42.151587 
L 183.255329 51.558503 
" style="fill:#bade28;"/>
    <path clip-path="url(#p6b277ac369)" d="M 192.662245 51.558503 
L 202.069161 51.558503 
L 202.069161 42.151587 
L 192.662245 42.151587 
L 192.662245 51.558503 
" style="fill:#cae11f;"/>
    <path clip-path="url(#p6b277ac369)" d="M 13.930839 42.151587 
L 23.337755 42.151587 
L 23.337755 32.744671 
L 13.930839 32.744671 
L 13.930839 42.151587 
" style="fill:#25838e;"/>
    <path clip-path="url(#p6b277ac369)" d="M 23.337755 42.151587 
L 32.744671 42.151587 
L 32.744671 32.744671 
L 23.337755 32.744671 
L 23.337755 42.151587 
" style="fill:#238a8d;"/>
    <path clip-path="url(#p6b277ac369)" d="M 32.744671 42.151587 
L 42.151587 42.151587 
L 42.151587 32.744671 
L 32.744671 32.744671 
L 32.744671 42.151587 
" style="fill:#21918c;"/>
    <path clip-path="url(#p6b277ac369)" d="M 42.151587 42.151587 
L 51.558503 42.151587 
L 51.558503 32.744671 
L 42.151587 32.744671 
L 42.151587 42.151587 
" style="fill:#1f968b;"/>
    <path clip-path="url(#p6b277ac369)" d="M 51.558503 42.151587 
L 60.965419 42.151587 
L 60.965419 32.744671 
L 51.558503 32.744671 
L 51.558503 42.151587 
" style="fill:#1e9d89;"/>
    <path clip-path="url(#p6b277ac369)" d="M 60.965419 42.151587 
L 70.372335 42.151587 
L 70.372335 32.744671 
L 60.965419 32.744671 
L 60.965419 42.151587 
" style="fill:#20a386;"/>
    <path clip-path="url(#p6b277ac369)" d="M 70.372335 42.151587 
L 79.779252 42.151587 
L 79.779252 32.744671 
L 70.372335 32.744671 
L 70.372335 42.151587 
" style="fill:#23a983;"/>
    <path clip-path="url(#p6b277ac369)" d="M 79.779252 42.151587 
L 89.186168 42.151587 
L 89.186168 32.744671 
L 79.779252 32.744671 
L 79.779252 42.151587 
" style="fill:#29af7f;"/>
    <path clip-path="url(#p6b277ac369)" d="M 89.186168 42.151587 
L 98.593084 42.151587 
L 98.593084 32.744671 
L 89.186168 32.744671 
L 89.186168 42.151587 
" style="fill:#32b67a;"/>
    <path clip-path="url(#p6b277ac369)" d="M 98.593084 42.151587 
L 108 42.151587 
L 108 32.744671 
L 98.593084 32.744671 
L 98.593084 42.151587 
" style="fill:#3dbc74;"/>
    <path clip-path="url(#p6b277ac369)" d="M 108 42.151587 
L 117.406916 42.151587 
L 117.406916 32.744671 
L 108 32.744671 
L 108 42.151587 
" style="fill:#48c16e;"/>
    <path clip-path="url(#p6b277ac369)" d="M 117.406916 42.151587 
L 126.813832 42.151587 
L 126.813832 32.744671 
L 117.406916 32.744671 
L 117.406916 42.151587 
" style="fill:#56c667;"/>
    <path clip-path="url(#p6b277ac369)" d="M 126.813832 42.151587 
L 136.220748 42.151587 
L 136.220748 32.744671 
L 126.813832 32.744671 
L 126.813832 42.151587 
" style="fill:#65cb5e;"/>
    <path clip-path="url(#p6b277ac369)" d="M 136.220748 42.151587 
L 145.627665 42.151587 
L 145.627665 32.744671 
L 136.220748 32.744671 
L 136.220748 42.151587 
" style="fill:#75d054;"/>
    <path clip-path="url(#p6b277ac369)" d="M 145.627665 42.151587 
L 155.034581 42.151587 
L 155.034581 32.744671 
L 145.627665 32.744671 
L 145.627665 42.151587 
" style="fill:#84d44b;"/>
    <path clip-path="url(#p6b277ac369)" d="M 155.034581 42.151587 
L 164.441497 42.151587 
L 164.441497 32.744671 
L 155.034581 32.744671 
L 155.034581 42.151587 
" style="fill:#95d840;"/>
    <path clip-path="url(#p6b277ac369)" d="M 164.441497 42.151587 
L 173.848413 42.151587 
L 173.848413 32.744671 
L 164.441497 32.744671 
L 164.441497 42.151587 
" style="fill:#a8db34;"/>
    <path clip-path="url(#p6b277ac369)" d="M 173.848413 42.151587 
L 183.255329 42.151587 
L 183.255329 32.744671 
L 173.848413 32.744671 
L 173.848413 42.151587 
" style="fill:#bade28;"/>
    <path clip-path="url(#p6b277ac369)" d="M 183.255329 42.151587 
L 192.662245 42.151587 
L 192.662245 32.744671 
L 183.255329 32.744671 
L 183.255329 42.151587 
" style="fill:#cae11f;"/>
    <path clip-path="url(#p6b277ac369)" d="M 192.662245 42.151587 
L 202.069161 42.151587 
L 202.069161 32.744671 
L 192.662245 32.744671 
L 192.662245 42.151587 
" style="fill:#dde318;"/>
    <path clip-path="url(#p6b277ac369)" d="M 13.930839 32.744671 
L 23.337755 32.744671 
L 23.337755 23.337755 
L 13.930839 23.337755 
L 13.930839 32.744671 
" style="fill:#238a8d;"/>
    <path clip-path="url(#p6b277ac369)" d="M 23.337755 32.744671 
L 32.744671 32.744671 
L 32.744671 23.337755 
L 23.337755 23.337755 
L 23.337755 32.744671 
" style="fill:#21908d;"/>
    <path clip-path="url(#p6b277ac369)" d="M 32.744671 32.744671 
L 42.151587 32.744671 
L 42.151587 23.337755 
L 32.744671 23.337755 
L 32.744671 32.744671 
" style="fill:#1f968b;"/>
    <path clip-path="url(#p6b277ac369)" d="M 42.151587 32.744671 
L 51.558503 32.744671 
L 51.558503 23.337755 
L 42.151587 23.337755 
L 42.151587 32.744671 
" style="fill:#1e9d89;"/>
    <path clip-path="url(#p6b277ac369)" d="M 51.558503 32.744671 
L 60.965419 32.744671 
L 60.965419 23.337755 
L 51.558503 23.337755 
L 51.558503 32.744671 
" style="fill:#20a386;"/>
    <path clip-path="url(#p6b277ac369)" d="M 60.965419 32.744671 
L 70.372335 32.744671 
L 70.372335 23.337755 
L 60.965419 23.337755 
L 60.965419 32.744671 
" style="fill:#23a983;"/>
    <path clip-path="url(#p6b277ac369)" d="M 70.372335 32.744671 
L 79.779252 32.744671 
L 79.779252 23.337755 
L 70.372335 23.337755 
L 70.372335 32.744671 
" style="fill:#29af7f;"/>
    <path clip-path="url(#p6b277ac369)" d="M 79.779252 32.744671 
L 89.186168 32.744671 
L 89.186168 23.337755 
L 79.779252 23.337755 
L 79.779252 32.744671 
" style="fill:#32b67a;"/>
    <path clip-path="url(#p6b277ac369)" d="M 89.186168 32.744671 
L 98.593084 32.744671 
L 98.593084 23.337755 
L 89.186168 23.337755 
L 89.186168 32.744671 
" style="fill:#3dbc74;"/>
    <path clip-path="url(#p6b277ac369)" d="M 98.593084 32.744671 
L 108 32.744671 
L 108 23.337755 
L 98.593084 23.337755 
L 98.593084 32.744671 
" style="fill:#48c16e;"/>
    <path clip-path="url(#p6b277ac369)" d="M 108 32.744671 
L 117.406916 32.744671 
L 117.406916 23.337755 
L 108 23.337755 
L 108 32.744671 
" style="fill:#56c667;"/>
    <path clip-path="url(#p6b277ac369)" d="M 117.406916 32.744671 
L 126.813832 32.744671 
L 126.813832 23.337755 
L 117.406916 23.337755 
L 117.406916 32.744671 
" style="fill:#65cb5e;"/>
    <path clip-path="url(#p6b277ac369)" d="M 126.813832 32.744671 
L 136.220748 32.744671 
L 136.220748 23.337755 
L 126.813832 23.337755 
L 126.813832 32.744671 
" style="fill:#75d054;"/>
    <path clip-path="url(#p6b277ac369)" d="M 136.220748 32.744671 
L 145.627665 32.744671 
L 145.627665 23.337755 
L 136.220748 23.337755 
L 136.220748 32.744671 
" style="fill:#84d44b;"/>
    <path clip-path="url(#p6b277ac369)" d="M 145.627665 32.744671 
L 155.034581 32.744671 
L 155.034581 23.337755 
L 145.627665 23.337755 
L 145.627665 32.744671 
" style="fill:#95d840;"/>
    <path clip-path="url(#p6b277ac369)" d="M 155.034581 32.744671 
L 164.441497 32.744671 
L 164.441497 23.337755 
L 155.034581 23.337755 
L 155.034581 32.744671 
" style="fill:#a8db34;"/>
    <path clip-path="url(#p6b277ac369)" d="M 164.441497 32.744671 
L 173.848413 32.744671 
L 173.848413 23.337755 
L 164.441497 23.337755 
L 164.441497 32.744671 
" style="fill:#bade28;"/>
    <path clip-path="url(#p6b277ac369)" d="M 173.848413 32.744671 
L 183.255329 32.744671 
L 183.255329 23.337755 
L 173.848413 23.337755 
L 173.848413 32.744671 
" style="fill:#cae11f;"/>
    <path clip-path="url(#p6b277ac369)" d="M 183.255329 32.744671 
L 192.662245 32.744671 
L 192.662245 23.337755 
L 183.255329 23.337755 
L 183.255329 32.744671 
" style="fill:#dde318;"/>
    <path clip-path="url(#p6b277ac369)" d="M 192.662245 32.744671 
L 202.069161 32.744671 
L 202.069161 23.337755 
L 192.662245 23.337755 
L 192.662245 32.744671 
" style="fill:#efe51c;"/>
    <path clip-path="url(#p6b277ac369)" d="M 13.930839 23.337755 
L 23.337755 23.337755 
L 23.337755 13.930839 
L 13.930839 13.930839 
L 13.930839 23.337755 
" style="fill:#21918c;"/>
    <path clip-path="url(#p6b277ac369)" d="M 23.337755 23.337755 
L 32.744671 23.337755 
L 32.744671 13.930839 
L 23.337755 13.930839 
L 23.337755 23.337755 
" style="fill:#1f968b;"/>
    <path clip-path="url(#p6b277ac369)" d="M 32.744671 23.337755 
L 42.151587 23.337755 
L 42.151587 13.930839 
L 32.744671 13.930839 
L 32.744671 23.337755 
" style="fill:#1e9d89;"/>
    <path clip-path="url(#p6b277ac369)" d="M 42.151587 23.337755 
L 51.558503 23.337755 
L 51.558503 13.930839 
L 42.151587 13.930839 
L 42.151587 23.337755 
" style="fill:#20a386;"/>
    <path clip-path="url(#p6b277ac369)" d="M 51.558503 23.337755 
L 60.965419 23.337755 
L 60.965419 13.930839 
L 51.558503 13.930839 
L 51.558503 23.337755 
" style="fill:#23a983;"/>
    <path clip-path="url(#p6b277ac369)" d="M 60.965419 23.337755 
L 70.372335 23.337755 
L 70.372335 13.930839 
L 60.965419 13.930839 
L 60.965419 23.337755 
" style="fill:#29af7f;"/>
    <path clip-path="url(#p6b277ac369)" d="M 70.372335 23.337755 
L 79.779252 23.337755 
L 79.779252 13.930839 
L 70.372335 13.930839 
L 70.372335 23.337755 
" style="fill:#32b67a;"/>
    <path clip-path="url(#p6b277ac369)" d="M 79.779252 23.337755 
L 89.186168 23.337755 
L 89.186168 13.930839 
L 79.779252 13.930839 
L 79.779252 23.337755 
" style="fill:#3dbc74;"/>
    <path clip-path="url(#p6b277ac369)" d="M 89.186168 23.337755 
L 98.593084 23.337755 
L 98.593084 13.930839 
L 89.186168 13.930839 
L 89.186168 23.337755 
" style="fill:#48c16e;"/>
    <path clip-path="url(#p6b277ac369)" d="M 98.593084 23.337755 
L 108 23.337755 
L 108 13.930839 
L 98.593084 13.930839 
L 98.593084 23.337755 
" style="fill:#56c667;"/>
    <path clip-path="url(#p6b277ac369)" d="M 108 23.337755 
L 117.406916 23.337755 
L 117.406916 13.930839 
L 108 13.930839 
L 108 23.337755 
" style="fill:#65cb5e;"/>
    <path clip-path="url(#p6b277ac369)" d="M 117.406916 23.337755 
L 126.813832 23.337755 
L 126.813832 13.930839 
L 117.406916 13.930839 
L 117.406916 23.337755 
" style="fill:#75d054;"/>
    <path clip-path="url(#p6b277ac369)" d="M 126.813832 23.337755 
L 136.220748 23.337755 
L 136.220748 13.930839 
L 126.813832 13.930839 
L 126.813832 23.337755 
" style="fill:#84d44b;"/>
    <path clip-path="url(#p6b277ac369)" d="M 136.220748 23.337755 
L 145.627665 23.337755 
L 145.627665 13.930839 
L 136.220748 13.930839 
L 136.220748 23.337755 
" style="fill:#95d840;"/>
    <path clip-path="url(#p6b277ac369)" d="M 145.627665 23.337755 
L 155.034581 23.337755 
L 155.034581 13.930839 
L 145.627665 13.930839 
L 145.627665 23.337755 
" style="fill:#a8db34;"/>
    <path clip-path="url(#p6b277ac369)" d="M 155.034581 23.337755 
L 164.441497 23.337755 
L 164.441497 13.930839 
L 155.034581 13.930839 
L 155.034581 23.337755 
" style="fill:#bade28;"/>
    <path clip-path="url(#p6b277ac369)" d="M 164.441497 23.337755 
L 173.848413 23.337755 
L 173.848413 13.930839 
L 164.441497 13.930839 
L 164.441497 23.337755 
" style="fill:#cae11f;"/>
    <path clip-path="url(#p6b277ac369)" d="M 173.848413 23.337755 
L 183.255329 23.337755 
L 183.255329 13.930839 
L 173.848413 13.930839 
L 173.848413 23.337755 
" style="fill:#dde318;"/>
    <path clip-path="url(#p6b277ac369)" d="M 183.255329 23.337755 
L 192.662245 23.337755 
L 192.662245 13.930839 
L 183.255329 13.930839 
L 183.255329 23.337755 
" style="fill:#efe51c;"/>
    <path clip-path="url(#p6b277ac369)" d="M 192.662245 23.337755 
L 202.069161 23.337755 
L 202.069161 13.930839 
L 192.662245 13.930839 
L 192.662245 23.337755 
" style="fill:#fde725;"/>
   </g>
   <g id="matplotlib.axis_1"/>
   <g id="matplotlib.axis_2"/>
   <g id="LineCollection_1">
    <path clip-path="url(#p6b277ac369)" d="M 13.930839 155.034581 
L 23.337755 164.441497 
L 32.744671 173.848413 
L 42.151587 183.255329 
L 51.558503 192.662245 
L 60.965419 202.069161 
" style="fill:none;stroke:#440154;stroke-width:1.5;"/>
   </g>
   <g id="LineCollection_2">
    <path clip-path="url(#p6b277ac369)" d="M 13.930839 108 
L 23.337755 117.406916 
L 32.744671 126.813832 
L 42.151587 136.220748 
L 42.151587 136.220748 
L 51.558503 145.627665 
L 51.558503 145.627665 
L 60.965419 155.034581 
L 70.372335 164.441497 
L 70.372335 164.441497 
L 79.779252 173.848413 
L 79.779252 173.848413 
L 89.186168 183.255329 
L 98.593084 192.662245 
L 108 202.069161 
" style="fill:none;stroke:#443983;stroke-width:1.5;"/>
   </g>
   <g id="LineCollection_3">
    <path clip-path="url(#p6b277ac369)" d="M 13.930839 60.965419 
L 23.337755 70.372335 
L 23.337755 70.372335 
L 32.744671 79.779252 
L 42.151587 89.186168 
L 42.151587 89.186168 
L 51.558503 98.593084 
L 51.558503 98.593084 
L 60.965419 108 
L 70.372335 117.406916 
L 70.372335 117.406916 
L 79.779252 126.813832 
L 79.779252 126.813832 
L 89.186168 136.220748 
L 89.186168 136.220748 
L 98.593084 145.627665 
L 98.593084 145.627665 
L 108 155.034581 
L 117.406916 164.441497 
L 117.406916 164.441497 
L 126.813832 173.848413 
L 126.813832 173.848413 
L 136.220748 183.255329 
L 145.627665 192.662245 
L 145.627665 192.662245 
L 155.034581 202.069161 
" style="fill:none;stroke:#31688e;stroke-width:1.5;"/>
   </g>
   <g id="LineCollection_4">
    <path clip-path="url(#p6b277ac369)" d="M 13.930839 13.930839 
L 23.337755 23.337755 
L 23.337755 23.337755 
L 32.744671 32.744671 
L 42.151587 42.151587 
L 42.151587 42.151587 
L 51.558503 51.558503 
L 51.558503 51.558503 
L 60.965419 60.965419 
L 70.372335 70.372335 
L 70.372335 70.372335 
L 79.779252 79.779252 
L 79.779252 79.779252 
L 89.186168 89.186168 
L 89.186168 89.186168 
L 98.593084 98.593084 
L 98.593084 98.593084 
L 108 108 
L 117.406916 117.406916 
L 117.406916 117.406916 
L 126.813832 126.813832 
L 126.813832 126.813832 
L 136.220748 136.220748 
L 136.220748 136.220748 
L 145.627665 145.627665 
L 145.627665 145.627665 
L 155.034581 155.034581 
L 164.441497 164.441497 
L 164.441497 164.441497 
L 173.848413 173.848413 
L 173.848413 173.848413 
L 183.255329 183.255329 
L 192.662245 192.662245 
L 192.662245 192.662245 
L 202.069161 202.069161 
" style="fill:none;stroke:#21918c;stroke-width:1.5;"/>
   </g>
   <g id="LineCollection_5">
    <path clip-path="url(#p6b277ac369)" d="M 60.965419 13.930839 
L 70.372335 23.337755 
L 70.372335 23.337755 
L 79.779252 32.744671 
L 79.779252 32.744671 
L 89.186168 42.151587 
L 89.186168 42.151587 
L 98.593084 51.558503 
L 98.593084 51.558503 
L 108 60.965419 
L 117.406916 70.372335 
L 117.406916 70.372335 
L 126.813832 79.779252 
L 126.813832 79.779252 
L 136.220748 89.186168 
L 136.220748 89.186168 
L 145.627665 98.593084 
L 145.627665 98.593084 
L 155.034581 108 
L 164.441497 117.406916 
L 164.441497 117.406916 
L 173.848413 126.813832 
L 173.848413 126.813832 
L 183.255329 136.220748 
L 183.255329 136.220748 
L 192.662245 145.627665 
L 192.662245 145.627665 
L 202.069161 155.034581 
" style="fill:none;stroke:#35b779;stroke-width:1.5;"/>
   </g>
   <g id="LineCollection_6">
    <path clip-path="url(#p6b277ac369)" d="M 108 13.930839 
L 117.406916 23.337755 
L 117.406916 23.337755 
L 126.813832 32.744671 
L 126.813832 32.744671 
L 136.220748 42.151587 
L 136.220748 42.151587 
L 145.627665 51.558503 
L 145.627665 51.558503 
L 155.034581 60.965419 
L 164.441497 70.372335 
L 164.441497 70.372335 
L 173.848413 79.779252 
L 173.848413 79.779252 
L 183.255329 89.186168 
L 183.255329 89.186168 
L 192.662245 98.593084 
L 192.662245 98.593084 
L 202.069161 108 
" style="fill:none;stroke:#90d743;stroke-width:1.5;"/>
   </g>
   <g id="LineCollection_7">
    <path clip-path="url(#p6b277ac369)" d="M 155.034581 13.930839 
L 164.441497 23.337755 
L 164.441497 23.337755 
L 173.848413 32.744671 
L 173.848413 32.744671 
L 183.255329 42.151587 
L 183.255329 42.151587 
L 192.662245 51.558503 
L 192.662245 51.558503 
L 202.069161 60.965419 
" style="fill:none;stroke:#fde725;stroke-width:1.5;"/>
   </g>
   <g id="patch_3">
    <path d="M 13.32 202.68 
L 13.32 13.32 
" style="fill:none;stroke:#000000;stroke-linecap:square;stroke-linejoin:miter;stroke-width:0.8;"/>
   </g>
   <g id="patch_4">
    <path d="M 202.68 202.68 
L 202.68 13.32 
" style="fill:none;stroke:#000000;stroke-linecap:square;stroke-linejoin:miter;stroke-width:0.8;"/>
   </g>
   <g id="patch_5">
    <path d="M 13.32 202.68 
L 202.68 202.68 
" style="fill:none;stroke:#000000;stroke-linecap:square;stroke-linejoin:miter;stroke-width:0.8;"/>
   </g>
   <g id="patch_6">
    <path d="M 13.32 13.32 
L 202.68 13.32 
" style="fill:none;stroke:#000000;stroke-linecap:square;stroke-linejoin:miter;stroke-width:0.8;"/>
   </g>
  </g>
 </g>
 <defs>
  <clipPath id="p6b277ac369">
   <rect height="189.36" width="189.36" x="13.32" y="13.32"/>
  </clipPath>
 </defs>
</svg>
