<?xml version="1.0" encoding="UTF-8"?>
<!DOCTYPE svg PUBLIC "-//W3C//DTD SVG 1.1//EN" "http://www.w3.org/Graphics/SVG/1.1/DTD/svg11.dtd">
<svg version="1.1" xmlns="http://www.w3.org/2000/svg" xmlns:xlink="http://www.w3.org/1999/xlink" x="0" y="0" width="283.465" height="226.772" viewBox="0, 0, 283.465, 226.772">
  <g id="Background">
    <rect x="0" y="0" width="283.465" height="226.772" fill="#FFFFFF"/>
  </g>
  <g id="Layer_1">
    <g>
      <g>
        <path d="M15.934,180.134 L259.531,180.134" fill-opacity="0" stroke="#000000" stroke-width="1"/>
        <path d="M259.531,183.134 L267.531,180.134 L259.531,177.134 z" fill="#000000" fill-opacity="1" stroke="#000000" stroke-width="1" stroke-opacity="1"/>
      </g>
      <text fill="#1D1C2F" transform="matrix(1, 0, -0, 1, 260.935, 163.393)">
        <tspan x="-2.458" y="4.187" font-family="Georgia" font-size="12">r</tspan>
      </text>
    </g>
    <path d="M26.685,180.197 L247.59,180.197 L247.59,218.639 L26.685,218.639 L26.685,180.197 z" fill="#B7E2FF"/>
    <g>
      <g>
        <path d="M134.874,180.134 L134.874,43.239" fill-opacity="0" stroke="#000000" stroke-width="1"/>
        <path d="M137.874,43.239 L134.874,35.239 L131.874,43.239 z" fill="#000000" fill-opacity="1" stroke="#000000" stroke-width="1" stroke-opacity="1"/>
      </g>
      <text fill="#1D1C2F" transform="matrix(1, 0, -0, 1, 122.287, 37.837)">
        <tspan x="-2.663" y="4.187" font-family="Georgia" font-size="12">z</tspan>
      </text>
    </g>
    <g>
      <path d="M134.708,73.727 C133.143,73.727 131.873,72.457 131.873,70.892 C131.873,69.326 133.143,68.057 134.708,68.057 C136.274,68.057 137.543,69.326 137.543,70.892 C137.543,72.457 136.274,73.727 134.708,73.727 z" fill="#000000"/>
      <path d="M134.708,73.727 C133.143,73.727 131.873,72.457 131.873,70.892 C131.873,69.326 133.143,68.057 134.708,68.057 C136.274,68.057 137.543,69.326 137.543,70.892 C137.543,72.457 136.274,73.727 134.708,73.727 z" fill-opacity="0" stroke="#000000" stroke-width="1"/>
    </g>
    <text transform="matrix(1, 0, 0, 1, 145.152, 71.558)">
      <tspan x="-4.465" y="3.5" font-family="Georgia" font-size="12" fill="#000000">Q</tspan>
    </text>
    <text transform="matrix(1, 0, 0, 1, 194.783, 105.748)">
      <tspan x="-21.404" y="3.5" font-family="Georgia" font-size="12" fill="#000000">vakuum</tspan>
    </text>
    <g>
      <g>
        <path d="M107.747,77.687 L107.502,174.134" fill-opacity="0" stroke="#000000" stroke-width="1"/>
        <path d="M110.742,79.695 L107.76,72.687 L104.742,79.679 M107.747,77.687 L107.76,72.687 M112.762,71.7 L102.762,71.674" fill-opacity="0" stroke="#000000" stroke-width="1" stroke-opacity="1"/>
        <path d="M104.507,172.126 L107.489,179.134 L110.507,172.142 M107.502,174.134 L107.489,179.134 M102.487,180.121 L112.487,180.147" fill-opacity="0" stroke="#000000" stroke-width="1" stroke-opacity="1"/>
      </g>
      <text fill="#1D1C2F" transform="matrix(1, 0, -0, 1, 99.196, 114.538)">
        <tspan x="-3.492" y="4.187" font-family="Georgia" font-size="12">h</tspan>
      </text>
    </g>
  </g>
</svg>
