<?xml version="1.0" encoding="UTF-8"?>
<!DOCTYPE svg PUBLIC "-//W3C//DTD SVG 1.1//EN" "http://www.w3.org/Graphics/SVG/1.1/DTD/svg11.dtd">
<svg version="1.1" xmlns="http://www.w3.org/2000/svg" xmlns:xlink="http://www.w3.org/1999/xlink" x="0" y="0" width="283.465" height="226.772" viewBox="0, 0, 283.465, 226.772">
  <g id="Background">
    <rect x="0" y="0" width="283.465" height="226.772" fill="#FFFFFF"/>
  </g>
  <g id="Layer_1">
    <g>
      <g>
        <path d="M31.797,204.189 L31.797,15.174" fill-opacity="0" stroke="#000000" stroke-width="1"/>
        <path d="M34.797,15.174 L31.797,7.174 L28.797,15.174 z" fill="#000000" fill-opacity="1" stroke="#000000" stroke-width="1" stroke-opacity="1"/>
      </g>
      <text fill="#1D1C2F" transform="matrix(1, -0, 0, 1, 22.071, 8.237)">
        <tspan x="-3.357" y="4.187" font-family="Georgia-Italic" font-size="12">y</tspan>
      </text>
    </g>
    <g>
      <g>
        <path d="M31.797,204.189 L252.951,204.189" fill-opacity="0" stroke="#000000" stroke-width="1"/>
        <path d="M252.951,207.189 L260.951,204.189 L252.951,201.189 z" fill="#000000" fill-opacity="1" stroke="#000000" stroke-width="1" stroke-opacity="1"/>
      </g>
      <text fill="#1D1C2F" transform="matrix(1, 0, -0, 1, 258.471, 213.148)">
        <tspan x="-3.006" y="4.187" font-family="Georgia-Italic" font-size="12">x</tspan>
      </text>
    </g>
    <g>
      <path d="M31.797,204.189 L117.276,204.189" fill-opacity="0" stroke="#D11D00" stroke-width="1.5"/>
      <path d="M117.276,207.489 L126.076,204.189 L117.276,200.889 z" fill="#D11D00" fill-opacity="1" stroke="#D11D00" stroke-width="1.5" stroke-opacity="1"/>
    </g>
    <path d="M123.547,204.189 L217.371,204.189" fill-opacity="0" stroke="#D11D00" stroke-width="1.5"/>
    <g>
      <path d="M217.371,204.189 L217.371,152.403" fill-opacity="0" stroke="#D11D00" stroke-width="1.5"/>
      <path d="M220.671,152.403 L217.371,143.603 L214.071,152.403 z" fill="#D11D00" fill-opacity="1" stroke="#D11D00" stroke-width="1.5" stroke-opacity="1"/>
    </g>
    <path d="M217.371,150.279 L217.371,83.928" fill-opacity="0" stroke="#D11D00" stroke-width="1.5"/>
    <g>
      <path d="M31.797,204.189 L118.863,147.88" fill-opacity="0" stroke="#0137CF" stroke-width="1.5"/>
      <path d="M120.655,150.651 L126.252,143.101 L117.071,145.109 z" fill="#0137CF" fill-opacity="1" stroke="#0137CF" stroke-width="1.5" stroke-opacity="1"/>
    </g>
    <path d="M123.547,145.095 L217.371,83.928" fill-opacity="0" stroke="#0137CF" stroke-width="1.5"/>
    <text transform="matrix(1, 0, 0, 1, 216.871, 69.27)">
      <tspan x="-14.323" y="1.313" font-family="Georgia-Italic" font-size="12" fill="#000000">(a, b)</tspan>
    </text>
    <text transform="matrix(1, 0, 0, 1, 216.871, 216.41)">
      <tspan x="-14.684" y="1.313" font-family="Georgia-Italic" font-size="12" fill="#000000">(a, 0)</tspan>
    </text>
    <text transform="matrix(1, 0, 0, 1, 32.501, 216.41)">
      <tspan x="-14.93" y="1.313" font-family="Georgia-Italic" font-size="12" fill="#000000">(0, 0)</tspan>
    </text>
  </g>
</svg>
